<svg width="49" height="48" viewBox="0 0 49 48" fill="none" xmlns="http://www.w3.org/2000/svg">
<path d="M9.21727 4.81502H11.556C11.556 4.81502 14.1699 4.81502 16.2334 4.4023C17.6091 4.12716 18.8473 3.16416 19.9479 2.33873C20.3606 1.92601 20.9109 1.65087 21.3236 1.37572C23.112 8.34465e-06 26.5513 0.13758 26.8264 0.13758H38.52C39.0703 0.412723 39.7582 0.825438 40.3085 1.23815H26.8264C26.8264 1.23815 23.5247 1.10058 22.0114 2.33873C21.5987 2.61387 21.186 2.88901 20.7733 3.30173C19.26 4.12716 18.0219 5.09016 16.371 5.50287C14.3074 5.91559 11.556 5.91559 11.556 5.91559H8.25427C8.52942 5.50287 8.80456 5.09016 9.21727 4.81502Z" fill="#C9262A"/>
<path d="M3.98956 10.7344H12.2439C12.2439 10.7344 14.8577 10.7344 16.9213 10.3217C18.297 10.0466 19.5352 9.08356 20.7733 8.12056C21.186 7.70784 21.7363 7.4327 22.149 7.15755C24.075 5.78184 27.2392 5.91941 27.6519 5.91941H44.1605C44.4356 6.19455 44.7108 6.60727 44.9859 7.01998L27.5143 6.88241C27.5143 6.88241 24.4877 6.74484 22.6993 7.98298C22.2866 8.25813 21.8739 8.53327 21.4612 8.94599C20.223 9.90899 18.8473 11.0096 17.1964 11.2847C15.1329 11.6974 12.3814 11.6974 12.3814 11.6974H3.57684C3.71441 11.4223 3.85199 11.0096 3.98956 10.7344Z" fill="#B42443"/>
<path d="M1.30694 16.5162H13.6884C13.6884 16.5162 16.3023 16.5162 18.3658 16.1035C19.7415 15.8284 20.9797 14.8654 22.2178 13.9024C22.6306 13.4897 23.1808 13.2145 23.5936 12.9394C25.6571 11.5637 28.6837 11.7012 29.0964 11.7012H47.1183C47.2559 12.114 47.3935 12.3891 47.531 12.8018H28.9588C28.9588 12.8018 26.0698 12.6642 24.1438 13.9024C23.7311 14.1775 23.3184 14.4527 22.9057 14.8654C21.6676 15.8284 20.2918 16.929 18.641 17.2041C16.5774 17.6168 13.826 17.6168 13.826 17.6168H1.0318C1.0318 17.2041 1.16937 16.7914 1.30694 16.5162Z" fill="#9D2957"/>
<path d="M0 22.5113H15.1329C15.1329 22.5113 17.7467 22.5113 19.8103 22.0985C21.186 21.8234 22.4242 20.8604 23.6623 19.8974C24.075 19.4847 24.6253 19.2095 25.038 18.9344C27.1016 17.4211 30.1282 17.5587 30.5409 17.6962H48.4252C48.5628 18.109 48.5628 18.3841 48.5628 18.7968H30.5409C30.5409 18.7968 27.5143 18.5217 25.7259 19.8974C25.3132 20.1725 24.9005 20.4477 24.4878 20.8604C23.2496 21.8234 21.8739 22.924 20.223 23.1991C17.8843 23.6118 15.1329 23.6118 15.1329 23.6118H0C0 23.3367 0 23.0615 0 22.7864C0 22.7864 0 22.6488 0 22.5113Z" fill="#893768"/>
<path d="M0.137573 28.4307H16.7837C16.7837 28.4307 19.3976 28.4307 21.4612 28.018C22.8369 27.7428 24.075 26.7798 25.3132 25.8168C25.7259 25.4041 26.2762 25.129 26.6889 24.8538C28.4773 23.4781 31.7791 23.6157 32.1918 23.6157H48.4252C48.4252 24.0284 48.4252 24.3035 48.4252 24.7162H32.1918C32.1918 24.7162 29.0276 24.5787 27.3768 25.8168C26.964 26.092 26.5513 26.3671 26.1386 26.7798C24.9005 27.7428 23.5248 28.8434 21.8739 29.1185C19.8103 29.5312 17.0589 29.5313 17.0589 29.5313H0.275145C0.275145 29.1185 0.137573 28.8434 0.137573 28.4307Z" fill="#784E7F"/>
<path d="M1.37573 34.4257H18.297C18.297 34.4257 20.9109 34.4257 22.9745 34.013C24.3502 33.7378 25.5883 32.7748 26.8265 31.8118C27.2392 31.3991 27.7895 31.124 28.2022 30.8488C30.2658 29.3355 33.2924 29.4731 33.7051 29.6107H47.1871C47.0495 30.0234 47.0495 30.2985 46.912 30.7113H33.7051C33.7051 30.7113 30.6785 30.4361 28.8901 31.8118C28.4774 32.087 28.0646 32.3621 27.6519 32.7748C26.4138 33.7378 25.0381 34.8384 23.3872 35.1135C21.0485 35.5263 18.297 35.5263 18.297 35.5263H1.92602C1.78845 35.1135 1.65088 34.8384 1.37573 34.4257Z" fill="#64548B"/>
<path d="M4.26471 40.3994H19.5352C19.5352 40.3994 22.149 40.3994 24.2126 39.9867C25.5883 39.7116 26.8265 38.7486 28.0646 37.7856C28.4773 37.3728 29.0276 37.0977 29.4403 36.8226C31.0912 35.4468 34.668 35.4468 34.9432 35.5844H44.2981C44.1605 35.9971 43.8853 36.2723 43.7478 36.5474H34.9432C34.9432 36.5474 31.5039 36.4098 30.1282 37.648C29.7155 37.9231 29.3027 38.1983 28.89 38.611C27.6519 39.574 26.2762 40.6746 24.6253 40.9497C22.5617 41.3624 19.8103 41.3624 19.8103 41.3624H5.22771C4.95257 41.0873 4.53985 40.6746 4.26471 40.3994Z" fill="#2F519A"/>
<path d="M9.76758 46.2569H20.0855C20.0855 46.2569 22.6993 46.2569 24.7629 45.8441C26.1386 45.569 27.3768 44.606 28.6149 43.643C29.0276 43.2303 29.5779 42.9551 29.9906 42.68C32.3293 41.1667 35.0808 41.3043 35.4935 41.4419H38.7952C38.3825 41.8546 38.1073 42.1297 37.6946 42.5424H35.3559C35.3559 42.5424 32.742 42.2673 30.5409 43.643C30.1282 43.9181 29.7155 44.1933 29.3028 44.606C28.0646 45.569 26.6889 46.6696 25.038 46.9447C22.8369 47.2199 20.0855 47.2199 20.0855 47.2199H12.1063C11.2809 46.9447 10.4554 46.532 9.76758 46.2569Z" fill="#323E8F"/>
</svg>
