<svg width="478" height="507" viewBox="0 0 478 507" fill="none" xmlns="http://www.w3.org/2000/svg">
<path opacity="0.65" d="M468.648 491.796C468.648 498.509 381.835 503.808 274.731 503.808C167.626 503.808 80.8136 498.332 80.8136 491.796C80.8136 485.083 167.626 479.784 274.731 479.784C381.835 479.784 468.648 485.083 468.648 491.796Z" fill="#C7D4E2"/>
<path d="M189.859 160.929H80.99C77.6375 160.929 74.8143 158.102 74.8143 154.746V6.18278C74.8143 2.82641 77.6375 0 80.99 0H189.859C193.212 0 196.035 2.82641 196.035 6.18278V154.746C196.035 158.102 193.212 160.929 189.859 160.929Z" fill="#C7D4E2"/>
<path d="M187.565 158.456H82.7545C79.402 158.456 76.5788 155.629 76.5788 152.273V7.94929C76.5788 4.59292 79.402 1.76651 82.7545 1.76651H187.565C190.918 1.76651 193.741 4.59292 193.741 7.94929V152.273C193.741 155.806 191.094 158.456 187.565 158.456Z" fill="white"/>
<path d="M184.742 53.8785H90.8712V55.2917H184.742V53.8785Z" fill="#407CCA"/>
<path d="M184.742 59.3546H90.8712V60.7679H184.742V59.3546Z" fill="#407CCA"/>
<path d="M184.742 64.6542H90.8712V66.0674H184.742V64.6542Z" fill="#407CCA"/>
<path d="M184.742 69.9537H90.8712V71.3669H184.742V69.9537Z" fill="#407CCA"/>
<path d="M185.448 110.23H91.577V111.643H185.448V110.23Z" fill="#407CCA"/>
<path d="M185.448 115.706H91.577V117.119H185.448V115.706Z" fill="#407CCA"/>
<path d="M185.448 121.006H91.577V122.419H185.448V121.006Z" fill="#407CCA"/>
<path d="M185.448 126.305H91.577V127.719H185.448V126.305Z" fill="#407CCA"/>
<path d="M184.742 82.3193H90.8712V83.7325H184.742V82.3193Z" fill="#407CCA"/>
<path d="M184.742 87.7955H90.8712V89.2087H184.742V87.7955Z" fill="#407CCA"/>
<path d="M184.742 93.095H90.8712V94.5082H184.742V93.095Z" fill="#407CCA"/>
<path d="M138.512 98.3945H90.8712V99.8077H138.512V98.3945Z" fill="#407CCA"/>
<path d="M135.866 104.224C151.945 104.224 164.98 91.1742 164.98 75.0766C164.98 58.9789 151.945 45.9292 135.866 45.9292C119.786 45.9292 106.752 58.9789 106.752 75.0766C106.752 91.1742 119.786 104.224 135.866 104.224Z" fill="#E94552"/>
<path d="M134.983 56.175L152.452 78.6096H142.218V93.9782H127.573V78.7863H117.339L134.983 56.175Z" fill="white"/>
<path d="M402.833 488.263H140.806C130.396 488.263 121.926 479.784 121.926 469.361V118.356C121.926 107.934 130.396 99.4544 140.806 99.4544H402.833C413.243 99.4544 421.713 107.934 421.713 118.356V469.361C421.536 479.784 413.243 488.263 402.833 488.263Z" fill="#A7BBE4"/>
<path d="M395.245 462.825H148.394C141.336 462.825 135.513 456.996 135.513 449.93V129.838C135.513 122.772 141.336 116.943 148.394 116.943H395.245C402.303 116.943 408.126 122.772 408.126 129.838V449.753C408.126 456.996 402.303 462.825 395.245 462.825Z" fill="url(#paint0_linear_11_2)"/>
<path d="M283.2 476.074C283.2 479.784 280.201 482.61 276.672 482.61C273.143 482.61 270.143 479.607 270.143 476.074C270.143 472.364 273.143 469.538 276.672 469.538C280.201 469.538 283.2 472.541 283.2 476.074Z" fill="#6F95D4"/>
<path d="M168.332 201.029H219.679C219.679 201.029 220.561 169.761 194.094 169.761C167.274 169.761 168.332 201.029 168.332 201.029Z" fill="#407CCA"/>
<path d="M207.504 150.683C207.504 158.102 201.505 164.285 193.917 164.285C186.506 164.285 180.331 158.279 180.331 150.683C180.331 143.264 186.33 137.081 193.917 137.081C201.328 137.081 207.504 143.087 207.504 150.683Z" fill="#407CCA"/>
<path d="M282.671 207.741H168.332V211.804H282.671V207.741Z" fill="#407CCA"/>
<path d="M282.671 217.457H168.332V221.52H282.671V217.457Z" fill="#407CCA"/>
<path d="M282.671 227.88H168.332V231.942H282.671V227.88Z" fill="#407CCA"/>
<path d="M282.671 238.832H168.332V242.895H282.671V238.832Z" fill="#407CCA"/>
<path d="M378.306 407.887H263.968V411.95H378.306V407.887Z" fill="#407CCA"/>
<path d="M378.306 417.779H263.968V421.842H378.306V417.779Z" fill="#407CCA"/>
<path d="M378.306 428.025H263.968V432.088H378.306V428.025Z" fill="#407CCA"/>
<path d="M378.306 438.977H263.968V443.04H378.306V438.977Z" fill="#407CCA"/>
<path d="M273.143 257.027C273.143 257.027 245.264 276.635 208.033 270.099C208.033 270.099 193.917 363.901 269.437 389.868C269.437 389.868 271.908 391.105 276.848 389.868C354.309 370.437 338.253 270.099 338.253 270.099C301.022 276.635 273.143 257.027 273.143 257.027Z" fill="#407CCA"/>
<path d="M273.143 268.156C273.143 268.156 249.852 284.584 218.797 279.108C218.797 279.108 206.975 357.541 270.143 379.093C270.143 379.093 272.261 380.152 276.319 379.093C341.076 362.841 327.666 279.108 327.666 279.108C296.434 284.408 273.143 268.156 273.143 268.156Z" fill="white"/>
<path d="M273.143 273.279C273.143 273.279 251.969 288.117 223.737 283.171C223.737 283.171 212.974 354.361 270.32 373.97C270.32 373.97 272.261 374.853 275.966 373.97C334.724 359.308 322.549 283.171 322.549 283.171C294.317 288.117 273.143 273.279 273.143 273.279Z" fill="#3B5CAD"/>
<path d="M273.849 369.907C273.143 369.907 272.261 369.73 271.378 369.553C217.209 356.481 227.796 286.528 227.796 286.528C253.733 290.767 273.143 276.988 273.143 276.988L273.849 369.907Z" fill="#407CCA"/>
<path d="M288.847 350.652H259.027C255.674 350.652 252.851 347.825 252.851 344.469V320.621C252.851 317.265 255.674 314.438 259.027 314.438H288.847C292.199 314.438 295.023 317.265 295.023 320.621V344.469C295.023 347.825 292.376 350.652 288.847 350.652Z" fill="white"/>
<path d="M286.553 317.088C286.553 317.088 290.611 292.887 274.378 292.887C260.968 292.887 261.85 308.256 261.85 316.558" stroke="white" stroke-width="2.0123" stroke-miterlimit="10"/>
<path d="M280.201 329.454C280.201 326.097 277.378 323.271 274.025 323.271C270.673 323.271 267.849 326.097 267.849 329.454C267.849 331.75 269.085 333.693 271.025 334.753V341.643H277.025V334.93C278.789 333.87 280.201 331.927 280.201 329.454Z" fill="#3B5CAD"/>
<path d="M449.239 17.3118C358.191 66.4207 350.428 80.5527 350.428 80.5527C347.075 79.6695 347.781 77.5497 347.781 77.5497C381.306 43.986 449.062 16.6052 449.062 16.6052C449.062 16.6052 450.121 16.7818 449.239 17.3118Z" fill="#3B5CAD"/>
<path d="M449.239 17.3118C455.767 68.8938 453.297 137.611 440.593 187.956" stroke="#7FADD6" stroke-width="0.7" stroke-miterlimit="10"/>
<path d="M400.715 82.6725H289.376C286.906 82.6725 284.436 81.436 283.024 79.3162C279.495 73.6634 277.378 65.5374 278.966 59.8846C280.907 52.8186 286.729 47.1657 293.611 45.2226C292.552 34.4469 300.845 23.6712 311.432 21.1981C322.019 18.725 333.841 24.2011 339.488 33.5636C340.546 35.1535 341.605 37.0966 343.369 37.6266C345.134 38.1566 346.898 37.2733 348.663 36.39C356.074 33.2103 364.896 33.7403 371.778 37.9799C378.659 42.2195 383.247 49.8155 383.6 57.7648C389.423 55.2917 396.657 56.3516 401.245 60.7679C405.832 65.0075 407.597 72.0735 405.656 78.0796C405.832 77.903 404.95 82.6725 400.715 82.6725Z" fill="#6F95D4"/>
<path opacity="0.8" d="M339.664 89.5619C351.748 89.5619 361.544 79.7549 361.544 67.6572C361.544 55.5596 351.748 45.7525 339.664 45.7525C327.58 45.7525 317.784 55.5596 317.784 67.6572C317.784 79.7549 327.58 89.5619 339.664 89.5619Z" fill="#407CCA"/>
<path d="M337.37 88.8553C349.454 88.8553 359.25 79.0483 359.25 66.9506C359.25 54.853 349.454 45.0459 337.37 45.0459C325.286 45.0459 315.491 54.853 315.491 66.9506C315.491 79.0483 325.286 88.8553 337.37 88.8553Z" fill="#E94552"/>
<path d="M327.489 70.4836L334.724 77.0197L348.839 58.2947" stroke="white" stroke-width="2.0402" stroke-miterlimit="10"/>
<path d="M162.862 388.985H201.681C205.034 388.985 207.857 386.159 207.857 382.802V351.005L176.802 351.182V346.766H162.862V366.55V386.512V388.985Z" fill="#407CCA"/>
<path d="M196.388 343.056H169.567V373.616H196.388V343.056Z" fill="white"/>
<path d="M204.857 388.985L204.681 358.424H171.155V367.61H157.216V388.985" fill="#3B5CAD"/>
<path d="M207.857 358.424V385.982C207.857 387.748 206.445 389.162 204.681 389.162C202.916 389.162 201.505 387.748 201.505 385.982V358.424H207.857Z" fill="#407CCA"/>
<path d="M194.447 347.649H171.332V348.532H194.447V347.649Z" fill="#407CCA"/>
<path d="M194.447 349.592H171.332V350.475H194.447V349.592Z" fill="#407CCA"/>
<path d="M194.447 351.712H171.332V352.595H194.447V351.712Z" fill="#407CCA"/>
<path d="M181.742 354.008H171.332V354.891H181.742V354.008Z" fill="#407CCA"/>
<path d="M162.862 446.573H201.681C205.034 446.573 207.857 443.747 207.857 440.39V408.593L176.802 408.77V404.354H162.862V424.139V444.1V446.573Z" fill="#407CCA"/>
<path d="M196.211 400.821H169.391V431.381H196.211V400.821Z" fill="white"/>
<path d="M204.681 446.573V416.013H171.155V425.198H157.04V446.573" fill="#3B5CAD"/>
<path d="M207.857 416.013V443.57C207.857 445.337 206.445 446.75 204.681 446.75C202.916 446.75 201.505 445.337 201.505 443.57V416.013H207.857Z" fill="#407CCA"/>
<path d="M194.447 405.237H171.332V406.12H194.447V405.237Z" fill="#407CCA"/>
<path d="M194.447 407.18H171.332V408.063H194.447V407.18Z" fill="#407CCA"/>
<path d="M194.447 409.3H171.332V410.183H194.447V409.3Z" fill="#407CCA"/>
<path d="M181.742 411.596H171.332V412.48H181.742V411.596Z" fill="#407CCA"/>
<path d="M392.422 135.491H234.677V200.852H392.422V135.491Z" stroke="#407CCA" stroke-width="0.35" stroke-miterlimit="10"/>
<path d="M257.211 148.177V149.623H256.724V145.93H258.086C258.491 145.93 258.807 146.033 259.035 146.239C259.265 146.445 259.38 146.719 259.38 147.059C259.38 147.417 259.268 147.694 259.043 147.888C258.819 148.081 258.499 148.177 258.081 148.177H257.211ZM257.211 147.779H258.086C258.347 147.779 258.546 147.718 258.685 147.596C258.824 147.473 258.893 147.295 258.893 147.064C258.893 146.844 258.824 146.668 258.685 146.536C258.546 146.404 258.356 146.336 258.114 146.33H257.211V147.779ZM261.357 148.129H260.489V149.623H259.999V145.93H261.222C261.638 145.93 261.958 146.024 262.181 146.214C262.406 146.403 262.518 146.679 262.518 147.041C262.518 147.271 262.456 147.471 262.331 147.642C262.207 147.813 262.035 147.941 261.813 148.025L262.681 149.593V149.623H262.158L261.357 148.129ZM260.489 147.731H261.237C261.479 147.731 261.671 147.668 261.813 147.543C261.957 147.418 262.029 147.251 262.029 147.041C262.029 146.812 261.96 146.637 261.823 146.516C261.688 146.394 261.492 146.332 261.235 146.33H260.489V147.731ZM266.045 147.896C266.045 148.258 265.984 148.574 265.862 148.845C265.74 149.114 265.568 149.319 265.345 149.461C265.121 149.603 264.861 149.674 264.563 149.674C264.272 149.674 264.014 149.603 263.789 149.461C263.565 149.317 263.389 149.114 263.264 148.85C263.141 148.584 263.077 148.277 263.074 147.929V147.662C263.074 147.307 263.136 146.993 263.259 146.721C263.383 146.449 263.557 146.241 263.782 146.097C264.009 145.952 264.267 145.879 264.558 145.879C264.854 145.879 265.115 145.951 265.34 146.094C265.566 146.237 265.74 146.444 265.862 146.716C265.984 146.987 266.045 147.302 266.045 147.662V147.896ZM265.56 147.657C265.56 147.219 265.472 146.884 265.296 146.65C265.121 146.415 264.874 146.297 264.558 146.297C264.25 146.297 264.008 146.415 263.83 146.65C263.654 146.884 263.564 147.208 263.559 147.624V147.896C263.559 148.32 263.647 148.654 263.825 148.898C264.004 149.14 264.25 149.261 264.563 149.261C264.878 149.261 265.121 149.147 265.294 148.918C265.466 148.688 265.555 148.359 265.56 147.931V147.657ZM268.813 147.992H267.263V149.623H266.776V145.93H269.064V146.33H267.263V147.594H268.813V147.992ZM270.17 149.623H269.683V145.93H270.17V149.623ZM271.553 149.225H273.303V149.623H271.063V145.93H271.553V149.225ZM275.947 147.916H274.346V149.225H276.206V149.623H273.859V145.93H276.18V146.33H274.346V147.518H275.947V147.916ZM278.623 149.623H278.136V145.93H278.623V149.623ZM282.355 149.623H281.866L280.006 146.777V149.623H279.516V145.93H280.006L281.871 148.789V145.93H282.355V149.623ZM285.258 147.992H283.708V149.623H283.22V145.93H285.509V146.33H283.708V147.594H285.258V147.992ZM288.934 147.896C288.934 148.258 288.873 148.574 288.751 148.845C288.629 149.114 288.457 149.319 288.234 149.461C288.01 149.603 287.75 149.674 287.452 149.674C287.161 149.674 286.903 149.603 286.678 149.461C286.453 149.317 286.278 149.114 286.153 148.85C286.03 148.584 285.966 148.277 285.963 147.929V147.662C285.963 147.307 286.025 146.993 286.148 146.721C286.272 146.449 286.446 146.241 286.671 146.097C286.897 145.952 287.156 145.879 287.447 145.879C287.743 145.879 288.004 145.951 288.229 146.094C288.455 146.237 288.629 146.444 288.751 146.716C288.873 146.987 288.934 147.302 288.934 147.662V147.896ZM288.449 147.657C288.449 147.219 288.361 146.884 288.185 146.65C288.01 146.415 287.763 146.297 287.447 146.297C287.139 146.297 286.897 146.415 286.719 146.65C286.543 146.884 286.453 147.208 286.448 147.624V147.896C286.448 148.32 286.536 148.654 286.714 148.898C286.893 149.14 287.139 149.261 287.452 149.261C287.767 149.261 288.01 149.147 288.183 148.918C288.355 148.688 288.444 148.359 288.449 147.931V147.657ZM291.019 148.129H290.152V149.623H289.662V145.93H290.885C291.301 145.93 291.621 146.024 291.844 146.214C292.069 146.403 292.181 146.679 292.181 147.041C292.181 147.271 292.119 147.471 291.993 147.642C291.87 147.813 291.697 147.941 291.476 148.025L292.344 149.593V149.623H291.821L291.019 148.129ZM290.152 147.731H290.9C291.142 147.731 291.334 147.668 291.476 147.543C291.62 147.418 291.692 147.251 291.692 147.041C291.692 146.812 291.623 146.637 291.486 146.516C291.351 146.394 291.155 146.332 290.897 146.33H290.152V147.731ZM293.495 145.93L294.703 148.944L295.911 145.93H296.542V149.623H296.055V148.185L296.101 146.632L294.888 149.623H294.515L293.305 146.64L293.353 148.185V149.623H292.866V145.93H293.495ZM299.488 148.659H297.94L297.593 149.623H297.09L298.501 145.93H298.927L300.34 149.623H299.84L299.488 148.659ZM298.087 148.259H299.343L298.714 146.531L298.087 148.259ZM303.06 146.33H301.873V149.623H301.388V146.33H300.203V145.93H303.06V146.33ZM304.131 149.623H303.643V145.93H304.131V149.623ZM307.865 147.896C307.865 148.258 307.804 148.574 307.682 148.845C307.561 149.114 307.388 149.319 307.165 149.461C306.942 149.603 306.681 149.674 306.383 149.674C306.092 149.674 305.835 149.603 305.61 149.461C305.385 149.317 305.21 149.114 305.084 148.85C304.961 148.584 304.898 148.277 304.894 147.929V147.662C304.894 147.307 304.956 146.993 305.079 146.721C305.203 146.449 305.377 146.241 305.602 146.097C305.829 145.952 306.087 145.879 306.378 145.879C306.674 145.879 306.935 145.951 307.16 146.094C307.386 146.237 307.561 146.444 307.682 146.716C307.804 146.987 307.865 147.302 307.865 147.662V147.896ZM307.38 147.657C307.38 147.219 307.292 146.884 307.117 146.65C306.941 146.415 306.695 146.297 306.378 146.297C306.07 146.297 305.828 146.415 305.65 146.65C305.474 146.884 305.384 147.208 305.379 147.624V147.896C305.379 148.32 305.468 148.654 305.645 148.898C305.824 149.14 306.07 149.261 306.383 149.261C306.698 149.261 306.942 149.147 307.114 148.918C307.287 148.688 307.375 148.359 307.38 147.931V147.657ZM311.435 149.623H310.945L309.085 146.777V149.623H308.596V145.93H309.085L310.95 148.789V145.93H311.435V149.623Z" fill="#407CCA"/>
<path d="M370.543 159.339H256.204V161.105H370.543V159.339Z" fill="#407CCA"/>
<path d="M370.543 166.228H256.204V167.995H370.543V166.228Z" fill="#407CCA"/>
<path d="M370.543 172.588H256.204V174.354H370.543V172.588Z" fill="#407CCA"/>
<path d="M370.543 178.947H256.204V180.714H370.543V178.947Z" fill="#407CCA"/>
<path d="M383.423 153.863C383.423 159.869 378.483 164.815 372.484 164.815C366.484 164.815 361.544 159.869 361.544 153.863C361.544 147.857 366.484 142.911 372.484 142.911C378.659 142.734 383.423 147.68 383.423 153.863Z" fill="#E94552"/>
<path d="M369.66 147.857L371.425 150.33C371.778 151.036 372.307 151.566 372.66 152.273C373.013 151.566 373.366 151.036 373.895 150.33L375.483 147.857H377.777L373.719 153.51L377.777 159.516H375.307L373.542 156.866C373.013 156.159 372.66 155.453 372.307 154.746C371.954 155.453 371.425 156.159 371.072 156.866L369.308 159.516H367.014L371.248 153.51L367.19 147.68H369.66V147.857Z" fill="white"/>
<path d="M442.004 331.044L447.298 344.116H431.77L430.006 340.759C430.006 340.759 430.359 334.223 435.299 331.927C440.064 329.63 442.004 331.044 442.004 331.044Z" fill="#F7C5B4"/>
<path d="M363.661 331.044L358.368 344.116H373.895L375.66 340.759C375.66 340.759 375.307 334.223 370.366 331.927C365.602 329.63 363.661 331.044 363.661 331.044Z" fill="#F7C5B4"/>
<path d="M434.946 432.794C435.299 414.069 432.123 395.168 425.771 377.503L412.537 378.739C397.186 379.799 380.953 377.503 380.953 377.503C374.601 395.168 371.601 414.069 371.778 432.794C371.954 440.214 370.543 474.837 375.13 506.988H385.364L385.894 501.158C387.129 478.547 391.011 454.876 396.304 432.794C397.892 426.082 399.833 419.192 401.774 412.48L403.362 407.18C405.303 413.716 408.479 425.022 410.244 432.264C415.537 454.346 419.948 478.37 421.183 501.158L421.713 506.988H431.947C436.535 474.837 434.77 440.214 434.946 432.794Z" fill="#3B5CAD"/>
<path d="M419.419 378.386C419.948 381.036 421.183 383.686 422.948 385.629C424.712 387.749 427.006 389.338 429.477 390.398C429.653 390.398 429.653 390.575 429.653 390.752C429.653 390.928 429.477 390.928 429.3 390.928C426.653 390.045 424.183 388.278 422.419 386.159C420.654 383.862 419.419 381.212 419.066 378.386C419.066 378.209 419.066 378.209 419.243 378.209C419.243 378.209 419.419 378.386 419.419 378.386Z" fill="#407CCA"/>
<path d="M388.188 378.563C387.835 381.389 386.6 384.039 384.835 386.335C383.071 388.455 380.6 390.222 377.954 391.105C377.777 391.105 377.777 391.105 377.601 390.928C377.601 390.752 377.601 390.752 377.777 390.575C380.247 389.515 382.541 387.925 384.306 385.805C386.07 383.686 387.305 381.212 387.835 378.563C387.835 378.386 388.011 378.386 388.011 378.386C388.011 378.386 388.188 378.386 388.188 378.563Z" fill="#407CCA"/>
<path d="M378.483 333.34C378.483 333.34 376.542 339.346 375.836 340.936L374.601 339.346C372.484 336.873 366.308 333.163 363.838 331.22C371.778 311.435 376.542 312.142 380.777 311.435C383.071 310.905 385.717 310.552 388.188 310.199C402.833 307.902 425.065 311.435 425.065 311.435C429.477 312.319 434.064 311.435 442.004 331.22C439.358 333.163 433.358 336.873 431.241 339.346L430.006 340.936C429.3 339.523 427.359 333.34 427.359 333.34V334.753C427.006 348.885 426.83 361.428 426.477 375.56C426.477 376.443 426.3 377.503 425.595 377.856C425.595 377.856 418.537 379.269 401.951 379.269C401.951 379.269 381.306 379.093 380.6 377.326C380.424 376.796 380.247 376.266 380.247 375.736C380.071 372.557 379.894 369.377 379.894 366.197C379.718 361.957 379.542 357.895 379.365 353.655C378.659 345.706 378.483 333.34 378.483 333.34Z" fill="#003A70"/>
<path d="M409.891 295.89C410.244 298.363 410.42 300.836 410.773 303.309C410.949 304.193 410.949 305.783 411.479 306.489C412.185 307.726 417.654 309.845 418.89 310.552C418.89 310.552 414.478 314.438 403.186 314.792C391.893 315.322 388.188 310.022 388.188 310.022C389.246 309.492 394.893 307.372 395.598 305.959C395.951 305.076 396.128 303.663 396.304 302.779C396.657 300.306 396.834 297.833 397.186 295.537" fill="#F7C5B4"/>
<path d="M415.184 275.045C416.066 279.991 414.831 289.707 413.773 293.594C413.42 295.183 412.89 296.773 411.832 298.01C406.891 304.369 400.186 302.426 397.892 300.836C396.128 299.776 394.716 298.187 394.01 296.243C391.893 291.297 391.187 285.998 391.54 280.698C391.54 280.698 391.011 266.919 404.95 266.919C405.127 267.096 413.773 266.919 415.184 275.045Z" fill="#F7C5B4"/>
<path d="M391.893 288.824C391.54 289.177 390.834 289.177 390.481 289.001C390.128 288.824 389.952 288.117 389.776 287.587C389.599 287.058 389.599 286.528 389.599 285.998C389.599 285.644 389.599 285.291 389.952 284.938C390.128 284.584 390.658 284.584 391.011 284.584C391.364 284.761 391.716 284.938 391.716 285.468L391.893 288.824Z" fill="#F7C5B4"/>
<path d="M414.655 285.821C414.831 285.468 415.008 284.761 415.361 284.584C415.714 284.408 416.419 284.584 416.596 284.938C416.772 285.291 416.949 285.644 416.949 285.998C416.949 286.528 416.949 287.058 416.772 287.588C416.596 288.117 416.419 288.647 416.066 289.001C415.714 289.354 415.008 289.354 414.655 288.824C414.831 288.824 414.126 287.411 414.655 285.821Z" fill="#F7C5B4"/>
<path d="M395.775 274.162C396.304 275.929 396.304 278.048 395.598 279.815C395.069 281.581 394.01 283.348 392.775 284.761C392.422 285.114 391.893 285.644 391.364 285.291C391.187 285.114 391.011 284.938 390.834 284.584C389.599 281.581 389.952 278.225 391.717 275.575C391.717 273.279 392.246 270.982 393.834 269.392C395.422 267.803 397.539 266.743 399.657 266.566C400.715 266.566 401.774 266.036 402.833 266.213C403.715 266.213 404.597 266.566 405.303 266.566C406.185 266.566 407.068 266.213 407.95 266.036C409.538 265.859 411.126 266.566 412.008 267.626C412.361 267.979 412.537 268.509 413.067 268.862C413.42 269.216 413.949 269.216 414.478 269.392C416.066 269.922 417.302 271.159 417.302 273.102V273.455C417.302 279.991 410.949 278.755 408.832 278.048C406.715 277.342 404.597 276.282 402.48 275.045C402.127 275.222 402.303 275.752 402.303 276.105C402.303 276.458 401.774 276.812 401.421 276.812C401.068 276.812 400.715 276.812 400.362 276.812C399.304 276.635 398.422 276.458 397.539 275.929C396.834 275.752 396.128 275.222 395.775 274.162Z" fill="#3C3C3B"/>
<path d="M410.067 300.13C410.067 300.13 408.126 302.25 403.891 302.603C399.833 302.956 397.01 300.483 396.657 300.13C396.657 300.13 397.539 304.723 403.539 304.723C409.361 304.899 410.067 300.13 410.067 300.13Z" fill="#F7C5B4"/>
<path d="M413.949 278.048C413.596 280.168 414.126 282.465 415.008 284.408C415.184 284.584 415.361 284.938 415.537 284.938C415.714 284.938 415.89 284.761 416.066 284.584C416.243 284.408 416.243 284.231 416.243 283.878C416.596 281.581 416.949 279.285 416.066 277.165C416.066 276.988 415.89 276.812 415.714 276.812C415.537 276.635 415.361 276.635 415.184 276.635C414.478 276.635 413.596 277.342 413.773 278.225" fill="#3C3C3B"/>
<path opacity="0.48" d="M425.418 377.856C425.418 377.856 411.655 379.446 402.833 379.269C394.01 378.916 383.776 378.916 380.953 377.679C380.953 377.679 400.539 384.569 425.418 377.856Z" fill="#3B5CAD"/>
<path d="M397.186 289.354C397.869 289.354 398.422 288.8 398.422 288.117C398.422 287.435 397.869 286.881 397.186 286.881C396.504 286.881 395.951 287.435 395.951 288.117C395.951 288.8 396.504 289.354 397.186 289.354Z" fill="#3C3C3B"/>
<path d="M409.185 289.354C409.867 289.354 410.42 288.8 410.42 288.117C410.42 287.435 409.867 286.881 409.185 286.881C408.503 286.881 407.95 287.435 407.95 288.117C407.95 288.8 408.503 289.354 409.185 289.354Z" fill="#3C3C3B"/>
<path d="M403.186 287.587C403.009 287.941 403.009 288.647 403.009 289.001L402.833 290.591C402.833 291.121 402.656 291.65 402.833 292.004C402.833 292.357 403.362 292.534 403.715 292.534C403.891 292.534 403.891 292.71 403.891 292.71L403.715 292.887C403.362 292.887 403.186 292.887 402.833 292.71C402.48 292.71 402.127 292.357 402.127 292.004C402.127 291.297 402.127 290.944 402.303 290.414L402.48 288.824C402.656 288.294 402.656 287.764 402.833 287.234L403.009 287.058C403.186 287.411 403.362 287.411 403.186 287.587Z" fill="#DA806C"/>
<path d="M406.362 294.3C406.009 295.007 405.303 295.537 404.597 295.89C403.891 296.243 403.186 296.42 402.303 296.243C402.127 296.243 402.127 296.067 402.127 296.067C402.127 295.89 402.303 295.89 402.303 295.89C403.009 295.89 403.715 295.713 404.244 295.36C404.95 295.183 405.48 294.654 405.832 294.3C405.832 294.3 406.009 294.3 406.185 294.3C406.362 294.124 406.362 294.3 406.362 294.3Z" fill="#DA806C"/>
<path d="M400.743 285.371C400.644 284.821 400.221 284.046 399.587 283.989L399.517 284.229C399.278 284.158 399.278 284.158 399.038 284.087C399.038 284.087 398.883 284.172 398.968 284.327C397.855 284.129 396.672 284.171 395.587 284.762C395.123 285.016 394.658 285.269 394.517 285.749C394.757 285.819 394.757 285.819 394.912 285.735C396.7 284.96 398.038 284.834 400.743 285.371C400.588 285.455 400.588 285.455 400.743 285.371Z" fill="#3C3C3B"/>
<path d="M405.288 285.664C405.335 285.108 405.684 284.296 406.31 284.181L406.403 284.413C406.634 284.32 406.634 284.32 406.866 284.228C406.866 284.228 407.028 284.297 406.959 284.46C408.048 284.159 409.23 284.091 410.365 284.579C410.851 284.788 411.337 284.997 411.522 285.461C411.29 285.553 411.29 285.553 411.128 285.484C409.275 284.879 407.931 284.878 405.288 285.664C405.45 285.734 405.45 285.734 405.288 285.664Z" fill="#3C3C3B"/>
<path d="M451.18 405.59H355.368C352.016 405.59 349.192 402.764 349.192 399.407V350.299C349.192 346.942 352.016 344.116 355.368 344.116H451.18C454.532 344.116 457.356 346.942 457.356 350.299V399.407C457.356 402.94 454.532 405.59 451.18 405.59Z" fill="#E94552"/>
<path d="M457.179 353.478H349.016V364.784H457.179V353.478Z" fill="#3B5CAD"/>
<path d="M385.188 368.317H351.839V374.853H385.188V368.317Z" fill="white"/>
<path d="M405.656 368.317H389.776V374.853H405.656V368.317Z" fill="white"/>
<path d="M459.649 382.096L457.356 371.673V381.742V383.156C456.12 382.802 454.709 382.096 453.474 381.566C452.768 381.389 452.062 381.212 451.709 381.742C451.356 382.272 451.886 383.156 452.415 383.509C453.121 384.039 453.65 384.392 454.356 384.569C453.474 384.392 452.415 384.215 451.533 384.039C451.356 384.039 451.003 384.039 450.827 384.039C450.298 384.392 450.65 385.099 451.003 385.452C451.709 386.159 452.591 386.512 453.474 386.689C452.768 386.689 452.062 386.689 451.18 386.689C451.003 386.689 450.65 386.689 450.474 386.865C449.945 387.219 450.121 388.278 450.65 388.632C451.18 388.985 451.886 388.985 452.591 388.985C452.062 389.162 451.356 389.162 450.827 389.338C450.298 389.515 449.768 390.045 449.945 390.575C450.121 390.928 450.65 391.105 451.003 391.281C452.062 391.458 453.297 391.635 454.356 391.635C455.415 391.635 456.473 391.635 457.356 391.105C458.591 390.398 459.12 389.162 459.649 387.748C460.179 386.335 460.179 384.039 459.649 382.096Z" fill="#F7C5B4"/>
<path d="M355.544 389.692C355.015 389.515 354.309 389.515 353.78 389.338C354.486 389.338 355.192 389.338 355.721 388.985C356.25 388.632 356.427 387.572 355.897 387.219C355.721 387.042 355.368 387.042 355.192 387.042C354.486 387.042 353.78 387.042 352.898 387.042C353.78 386.865 354.662 386.512 355.368 385.805C355.721 385.452 356.074 384.745 355.544 384.392C355.368 384.215 355.015 384.215 354.839 384.392C353.956 384.569 352.898 384.745 352.016 384.922C352.721 384.569 353.427 384.215 353.956 383.862C354.486 383.509 355.192 382.626 354.662 382.096C354.309 381.566 353.427 381.742 352.898 381.919C351.663 382.272 350.251 382.979 349.016 383.509V382.096V372.027L346.546 382.449C346.016 384.392 346.016 386.512 346.546 388.455C346.898 389.692 347.604 391.105 348.839 391.811C349.722 392.341 350.78 392.341 351.839 392.341C352.898 392.341 354.133 392.165 355.192 391.988C355.544 391.811 356.074 391.811 356.25 391.281C356.603 390.575 356.074 390.045 355.544 389.692Z" fill="#F7C5B4"/>
<path d="M467.766 187.603H329.254C323.607 187.603 319.02 192.196 319.02 197.849V206.505V245.191C319.02 250.844 323.607 255.437 329.254 255.437H467.766C473.412 255.437 478 250.844 478 245.191V206.505V197.849C478 192.019 473.412 187.603 467.766 187.603Z" fill="#C7D4E2"/>
<path d="M474.295 204.032V195.376C474.295 189.723 469.707 185.13 464.061 185.13H325.548C319.902 185.13 315.314 189.723 315.314 195.376V204.032H474.295Z" fill="#407CCA"/>
<path d="M315.491 204.032V242.718C315.491 248.371 320.078 252.964 325.725 252.964H464.061C469.707 252.964 474.295 248.371 474.295 242.718V204.032H315.491Z" fill="white"/>
<path d="M354.133 222.933H356.956L356.603 227.703L360.485 224.7L361.897 227.173L357.485 229.293L361.897 231.589L360.485 234.062L356.603 230.883L356.956 235.652H354.133L354.662 230.706L350.78 233.709L349.369 231.413L353.78 229.293L349.369 227.173L350.78 224.7L354.839 227.703L354.133 222.933Z" fill="#407CCA"/>
<path d="M374.425 222.933H377.248L376.895 227.703L380.777 224.7L382.188 227.173L377.777 229.293L382.188 231.589L380.777 234.062L376.895 230.883L377.248 235.652H374.425L374.954 230.706L371.072 233.709L369.66 231.236L374.072 229.116L369.66 226.996L371.072 224.523L375.13 227.526L374.425 222.933Z" fill="#407CCA"/>
<path d="M394.716 222.933H397.539L397.186 227.703L401.068 224.7L402.48 227.173L398.069 229.293L402.48 231.589L401.068 234.062L397.186 230.883L397.539 235.652H394.716L395.245 230.706L391.364 233.709L389.952 231.236L394.363 229.116L389.952 226.996L391.364 224.523L395.422 227.526L394.716 222.933Z" fill="#407CCA"/>
<path d="M414.831 222.933H417.654L417.302 227.703L421.183 224.7L422.595 227.173L418.184 229.293L422.595 231.589L421.183 234.062L417.302 230.883L417.654 235.652H414.831L415.361 230.706L411.479 233.709L410.067 231.236L414.478 229.116L410.067 226.996L411.479 224.523L415.537 227.526L414.831 222.933Z" fill="#407CCA"/>
<path d="M435.123 222.933H437.946L437.593 227.703L441.475 224.7L442.887 227.173L438.475 229.293L442.887 231.589L441.475 234.062L437.593 230.883L437.946 235.652H435.123L435.652 230.706L431.77 233.709L430.359 231.236L434.77 229.116L430.359 226.996L431.77 224.523L435.829 227.526L435.123 222.933Z" fill="#407CCA"/>
<path d="M384.775 194.87V190.487H385.492V194.255H387.347V194.87H384.775ZM391.994 192.672C391.994 193.386 391.815 193.94 391.457 194.336C391.102 194.732 390.597 194.93 389.943 194.93C389.282 194.93 388.773 194.734 388.418 194.342C388.064 193.948 387.887 193.39 387.887 192.666C387.887 191.943 388.065 191.387 388.421 190.999C388.778 190.611 389.288 190.418 389.949 190.418C390.601 190.418 391.105 190.614 391.46 191.008C391.816 191.402 391.994 191.957 391.994 192.672ZM388.648 192.672C388.648 193.212 388.757 193.621 388.975 193.901C389.193 194.179 389.516 194.318 389.943 194.318C390.369 194.318 390.69 194.18 390.906 193.904C391.124 193.628 391.233 193.218 391.233 192.672C391.233 192.134 391.125 191.727 390.909 191.449C390.695 191.171 390.375 191.032 389.949 191.032C389.52 191.032 389.195 191.171 388.975 191.449C388.757 191.727 388.648 192.134 388.648 192.672ZM394.728 192.492H396.341V194.693C396.077 194.779 395.823 194.84 395.58 194.876C395.338 194.912 395.076 194.93 394.794 194.93C394.131 194.93 393.619 194.734 393.259 194.342C392.899 193.948 392.72 193.394 392.72 192.678C392.72 191.973 392.922 191.421 393.328 191.023C393.734 190.623 394.293 190.424 395.004 190.424C395.462 190.424 395.895 190.512 396.305 190.687L396.053 191.284C395.698 191.12 395.342 191.038 394.986 191.038C394.518 191.038 394.149 191.185 393.877 191.479C393.605 191.773 393.469 192.174 393.469 192.684C393.469 193.22 393.591 193.627 393.835 193.907C394.081 194.185 394.433 194.324 394.893 194.324C395.125 194.324 395.373 194.295 395.637 194.237V193.107H394.728V192.492ZM397.396 194.87V190.487H398.113V194.87H397.396ZM402.925 194.87H402.046L399.891 191.377H399.867L399.882 191.572C399.91 191.944 399.924 192.283 399.924 192.591V194.87H399.273V190.487H400.143L402.292 193.961H402.31C402.306 193.915 402.298 193.748 402.286 193.461C402.274 193.171 402.268 192.945 402.268 192.783V190.487H402.925V194.87Z" fill="white"/>
<path d="M174.684 372.027H9.88114C5.82282 372.027 2.64674 368.847 2.64674 364.784V306.489C2.64674 302.426 5.82282 299.246 9.88114 299.246H174.684C178.743 299.246 181.919 302.426 181.919 306.489V364.784C181.742 368.67 178.566 372.027 174.684 372.027Z" fill="#C7D4E2"/>
<path d="M171.861 372.027H7.2344C3.17608 372.027 0 368.847 0 364.784V309.669C0 305.606 3.17608 302.426 7.2344 302.426H171.861C175.92 302.426 179.096 305.606 179.096 309.669V364.784C179.096 368.67 175.92 372.027 171.861 372.027Z" fill="white"/>
<path d="M55.0521 357.188C52.0524 349.769 45.8767 342.173 33.1724 342.173C20.4681 342.173 14.2924 349.592 11.2927 357.188H55.0521Z" fill="#407CCA"/>
<path d="M43.5829 328.57C43.5829 334.4 38.9952 338.993 33.1724 338.993C27.3496 338.993 22.7619 334.4 22.7619 328.57C22.7619 322.741 27.3496 318.148 33.1724 318.148C38.9952 318.148 43.5829 322.918 43.5829 328.57Z" fill="#407CCA"/>
<path d="M171.332 326.804H60.6984V328.57H171.332V326.804Z" fill="#407CCA"/>
<path d="M171.332 333.87H60.6984V335.637H171.332V333.87Z" fill="#407CCA"/>
<path d="M171.332 340.583H60.6984V342.349H171.332V340.583Z" fill="#407CCA"/>
<path d="M118.927 347.472H60.6984V349.239H118.927V347.472Z" fill="#407CCA"/>
<path d="M171.332 326.804H60.6984V328.57H171.332V326.804Z" fill="#407CCA"/>
<path d="M171.332 333.87H60.6984V335.637H171.332V333.87Z" fill="#407CCA"/>
<path d="M171.332 340.583H60.6984V342.349H171.332V340.583Z" fill="#407CCA"/>
<path d="M118.927 347.472H60.6984V349.239H118.927V347.472Z" fill="#407CCA"/>
<defs>
<linearGradient id="paint0_linear_11_2" x1="249.027" y1="238.943" x2="371.079" y2="511.606" gradientUnits="userSpaceOnUse">
<stop stop-color="white"/>
<stop offset="1" stop-color="#C6D4EE"/>
</linearGradient>
</defs>
</svg>
