<svg width="360" height="315" viewBox="0 0 360 315" fill="none" xmlns="http://www.w3.org/2000/svg">
<path opacity="0.2" d="M61.8673 307.073C61.8673 311.662 124.807 315 202.336 315C279.865 315 342.806 311.245 342.806 307.073C342.806 302.483 279.865 299.145 202.336 299.145C124.807 298.728 61.8673 302.483 61.8673 307.073Z" fill="#5872E2"/>
<path d="M275.28 37.9519V288.714C275.28 298.311 267.361 306.238 257.774 306.238H146.482C136.895 306.238 128.976 298.311 128.976 288.714V37.9519C128.976 28.3553 136.895 20.4277 146.482 20.4277H257.774C267.361 20.4277 275.28 28.3553 275.28 37.9519Z" fill="#A7BBE4"/>
<path d="M257.774 23.7659H229.43C227.763 23.7659 226.512 24.1831 225.262 25.4348L221.093 28.7728C219.843 29.6073 218.593 30.4417 216.925 30.4417H187.331C185.664 30.4417 184.413 30.0245 183.163 28.7728L178.578 25.0176C177.327 24.1831 176.077 23.3486 174.409 23.3486H146.065C138.146 23.3486 131.893 29.6073 131.893 37.5348V288.297C131.893 296.225 138.146 302.483 146.065 302.483H257.357C265.277 302.483 271.529 296.225 271.529 288.297V37.9521C272.363 30.0245 265.693 23.7659 257.774 23.7659Z" fill="url(#paint0_linear_24_1181)"/>
<path d="M206.921 27.104H192.75C191.916 27.104 191.499 26.6868 191.499 25.8523C191.499 25.0178 191.916 24.6006 192.75 24.6006H206.921C207.755 24.6006 208.172 25.0178 208.172 25.8523C208.172 26.2696 207.755 27.104 206.921 27.104Z" fill="#CEE1FE"/>
<path d="M211.923 27.104C211.507 27.104 211.09 27.104 211.09 26.6868C210.673 26.2696 210.673 26.2696 210.673 25.8523V25.4351C210.673 25.4351 210.673 25.0178 211.09 25.0178C211.507 24.6006 211.923 24.6006 212.34 24.6006C212.34 24.6006 212.34 24.6006 212.757 24.6006C212.757 24.6006 212.757 24.6006 213.174 24.6006L213.591 25.0178V25.4351C213.591 25.8523 213.591 26.2695 213.174 26.2695C212.34 26.6868 212.34 27.104 211.923 27.104Z" fill="#CEE1FE"/>
<path d="M209.006 156.031H176.91C174.826 156.031 172.742 154.362 172.742 151.859C172.742 149.355 174.409 147.687 176.91 147.687H209.006C211.09 147.687 213.174 149.355 213.174 151.859C213.174 154.362 211.09 156.031 209.006 156.031ZM231.931 151.859C231.931 149.773 230.264 147.687 227.763 147.687H220.26C218.176 147.687 216.092 149.355 216.092 151.859C216.092 154.362 217.759 156.031 220.26 156.031H227.763C230.264 156.031 231.931 154.362 231.931 151.859Z" fill="#B7D3FD"/>
<path d="M250.688 178.979H153.985C150.234 178.979 146.899 176.058 146.899 171.886C146.899 168.131 149.817 164.793 153.985 164.793H250.688C254.439 164.793 257.774 167.714 257.774 171.886C257.357 175.641 254.439 178.979 250.688 178.979Z" fill="white"/>
<path d="M250.688 201.927H153.985C150.234 201.927 146.899 199.007 146.899 194.834C146.899 191.079 149.817 187.741 153.985 187.741H250.688C254.439 187.741 257.774 190.662 257.774 194.834C257.357 199.007 254.439 201.927 250.688 201.927Z" fill="white"/>
<path d="M183.996 173.973C183.579 174.39 183.163 174.39 182.746 174.39C182.329 174.39 181.912 173.973 181.495 173.556C181.078 173.139 181.078 172.721 181.078 171.887V170.218C181.078 169.801 181.495 169.801 181.495 169.801C181.495 169.801 181.912 169.801 181.912 170.218V171.887C181.912 172.304 181.912 172.721 182.329 172.721C182.329 173.139 182.746 173.139 183.163 173.139C183.579 173.139 183.579 173.139 183.996 172.721C184.413 172.304 184.413 172.304 184.413 171.887V170.218C184.413 169.801 184.83 169.801 184.83 169.801H185.247C185.247 169.801 185.247 169.801 185.247 170.218V173.973V174.39H184.83C184.413 174.39 183.996 174.39 183.996 173.973ZM186.914 174.39C186.497 174.39 186.497 173.973 186.08 173.973C186.08 173.973 186.08 173.973 186.08 173.556C186.08 173.556 186.08 173.556 186.08 173.139L186.497 172.721C186.497 172.721 186.914 172.721 186.914 173.139C187.331 173.556 187.331 173.556 187.748 173.556H188.164C188.164 173.556 188.581 173.556 188.581 173.139C188.581 173.139 188.581 173.139 188.581 172.721C188.581 172.721 188.164 172.721 188.164 172.304H187.748C187.331 172.304 186.914 171.887 186.497 171.887C186.08 171.47 186.08 171.47 186.08 171.053C186.08 170.635 186.08 170.218 186.497 170.218C186.914 169.801 187.331 169.801 187.748 169.801C188.164 169.801 188.164 169.801 188.581 169.801C188.998 169.801 188.998 170.218 188.998 170.218C188.998 170.218 188.998 170.218 188.998 170.635C188.998 170.635 188.998 170.635 188.998 171.053C188.998 171.053 188.998 171.053 188.581 171.053H188.164C187.748 171.053 187.331 171.052 187.331 171.47C187.331 171.47 187.331 171.887 187.748 171.887C187.748 171.887 188.164 171.887 188.164 172.304C188.581 172.304 188.998 172.721 188.998 172.721C189.415 173.139 189.415 173.139 189.415 173.556C189.415 173.973 189.415 174.39 188.998 174.39C188.581 174.808 188.164 174.808 187.748 174.808C187.748 174.39 187.331 174.39 186.914 174.39ZM191.082 173.973C190.665 173.556 190.249 173.139 190.249 172.304C190.249 171.887 190.665 171.053 191.082 170.635C191.499 170.218 191.916 169.801 192.75 169.801C193.166 169.801 194 170.218 194.417 170.635C194.834 171.053 195.25 171.47 195.25 172.304C195.25 172.721 195.25 172.721 194.834 172.721H191.916C191.916 173.139 192.333 173.139 192.333 173.556C192.75 173.556 192.75 173.973 193.166 173.973C193.583 173.973 194 173.973 194 173.556C194 173.556 194 173.556 194.417 173.556C194.417 173.556 194.417 173.556 194.834 173.556C194.834 173.556 194.834 173.556 194.834 173.973V174.39L194.417 174.808C194 174.808 194 174.808 193.583 174.808C192.333 174.39 191.499 174.39 191.082 173.973ZM194 171.887C194 171.47 193.583 171.47 193.583 171.053C193.166 171.053 193.166 170.635 192.75 170.635C192.333 170.635 192.333 170.635 191.916 171.053C191.499 171.053 191.499 171.47 191.499 171.887H194ZM196.501 174.39C196.501 174.39 196.501 173.973 196.501 174.39V170.635V170.218C196.501 170.218 196.501 170.218 196.918 170.218H197.335V170.635C197.751 170.218 198.168 170.218 198.585 170.218C199.002 170.218 199.002 170.218 199.002 170.635C199.002 171.053 198.585 171.053 198.585 171.053C198.168 171.053 197.751 171.052 197.751 171.47C197.335 171.887 197.335 172.304 197.335 172.304V173.973C197.335 174.39 196.918 174.39 196.501 174.39ZM203.587 173.973V172.304C203.587 171.887 203.587 171.47 203.17 171.47C203.17 171.052 202.753 171.053 202.336 171.053C201.92 171.053 201.92 171.052 201.503 171.47C201.503 171.887 201.086 171.887 201.086 172.304V173.973C201.086 174.39 201.086 174.39 200.669 174.39H200.252C200.252 174.39 200.252 174.39 200.252 173.973V170.218V169.801H200.669H201.086V170.218C201.503 169.801 201.92 169.801 202.336 169.801C202.753 169.801 203.17 170.218 203.587 170.635C204.004 171.053 204.004 171.47 204.004 172.304V173.973C204.004 174.39 204.004 174.39 203.587 174.39C203.587 174.39 203.587 174.39 203.587 173.973ZM206.088 173.973C205.671 173.556 205.254 173.139 205.254 172.304C205.254 171.887 205.671 171.053 206.088 170.635C206.505 170.218 206.921 169.801 207.755 169.801C208.172 169.801 209.006 170.218 209.422 170.635C209.839 171.053 210.256 171.47 210.256 172.304V173.973V174.39H209.839C209.422 174.39 209.422 174.39 209.422 173.973C209.006 174.39 208.589 174.39 208.172 174.39C207.338 174.39 206.505 174.39 206.088 173.973ZM208.589 173.139C209.006 172.721 209.006 172.721 209.006 172.304C209.006 171.887 209.006 171.47 208.589 171.47C208.172 171.052 208.172 171.053 207.755 171.053C207.338 171.053 206.921 171.052 206.921 171.47C206.505 171.887 206.505 171.887 206.505 172.304C206.505 172.721 206.505 173.139 206.921 173.139C207.338 173.556 207.338 173.556 207.755 173.556C208.172 173.556 208.589 173.556 208.589 173.139ZM211.923 174.39C211.507 174.39 211.507 173.973 211.923 174.39V170.635V170.218H212.34C212.757 170.218 212.757 170.218 212.757 170.635C213.174 170.218 213.174 170.218 213.591 170.218C214.007 170.218 214.424 170.218 214.841 170.635C215.258 170.218 215.675 170.218 216.092 170.218C216.508 170.218 216.925 170.218 217.342 170.635C217.759 171.053 217.759 171.47 217.759 171.887V174.39C217.759 174.808 217.759 174.808 217.342 174.808H216.925C216.925 174.808 216.925 174.808 216.925 174.39V171.887C216.925 171.47 216.925 171.47 216.925 171.47L216.508 171.053C216.508 171.053 216.092 171.052 216.092 171.47L215.675 171.887V174.39C215.675 174.808 215.675 174.808 215.258 174.808H214.841C214.841 174.808 214.841 174.808 214.841 174.39V171.887C214.841 171.47 214.841 171.47 214.424 171.47L214.007 171.053C213.591 171.053 213.591 171.052 213.591 171.47L213.174 171.887V173.973C212.757 174.39 212.34 174.39 211.923 174.39ZM219.426 173.973C219.009 173.556 218.592 173.139 218.592 172.304C218.592 171.887 219.009 171.053 219.426 170.635C219.843 170.218 220.26 169.801 221.093 169.801C221.51 169.801 222.344 170.218 222.761 170.635C223.178 171.053 223.594 171.47 223.594 172.304C223.594 172.721 223.594 172.721 223.178 172.721H220.26C220.26 173.139 220.677 173.139 220.677 173.556C221.093 173.556 221.093 173.973 221.51 173.973C221.927 173.973 222.344 173.973 222.344 173.556C222.344 173.556 222.344 173.556 222.761 173.556C222.761 173.556 222.761 173.556 223.178 173.556C223.178 173.556 223.178 173.556 223.178 173.973V174.39L222.761 174.808C222.344 174.808 222.344 174.808 221.927 174.808C220.677 174.39 219.843 174.39 219.426 173.973ZM222.344 171.887C222.344 171.47 221.927 171.47 221.927 171.053C221.51 171.053 221.51 170.635 221.093 170.635C220.677 170.635 220.677 170.635 220.26 171.053C219.843 171.053 219.843 171.47 219.843 171.887H222.344Z" fill="#DBE8EC"/>
<path d="M188.998 196.086V195.669C188.998 195.669 188.998 195.669 188.581 195.669H188.164C188.164 195.669 188.164 195.669 188.164 195.252V194.835H188.581H188.164L187.748 194.417V194C187.748 194 187.748 194 188.164 194C188.164 194 188.164 194 188.581 194C188.581 193.583 188.998 193.583 188.998 193.583C189.415 193.583 189.415 194 189.415 194C189.415 194 189.415 194 189.832 194H190.249C190.249 194 190.249 194 190.249 194.417V194.835H189.832H190.249V195.252C190.249 195.252 190.249 195.252 190.249 195.669H189.832C189.832 195.669 189.832 195.669 189.415 195.669V196.086C189.832 196.086 189.832 196.504 188.998 196.086C189.415 196.504 189.415 196.086 188.998 196.086ZM193.583 196.086C193.166 196.086 193.166 196.086 193.583 196.086V195.669C193.583 195.669 193.583 195.669 193.166 195.669H192.75C192.75 195.669 192.75 195.669 192.75 195.252V194.835H193.166H192.75L192.333 194.417V194C192.333 194 192.333 194 192.75 194C192.75 194 192.75 194 193.166 194C193.166 193.583 193.583 193.583 193.583 193.583C194 193.583 194 194 194 194C194 194 194 194 194.417 194H194.834C194.834 194 194.834 194 194.834 194.417V194.835H194.417H194.834V195.252C194.834 195.252 194.834 195.252 194.834 195.669H194.417H194V196.086C194 196.086 194 196.504 193.583 196.086C193.583 196.504 193.583 196.086 193.583 196.086ZM197.751 196.086C197.751 196.086 197.335 196.086 197.751 196.086V195.669C197.751 195.669 197.751 195.669 197.335 195.669H196.918C196.918 195.669 196.918 195.669 196.918 195.252V194.835H197.335H196.918L196.501 194.417V194C196.501 194 196.501 194 196.918 194C196.918 194 196.918 194 197.335 194C197.335 193.583 197.751 193.583 197.751 193.583C198.168 193.583 198.168 194 198.168 194C198.168 194 198.168 194 198.585 194H199.002C199.002 194 199.002 194 199.002 194.417V194.835H198.585H199.002V195.252C199.002 195.252 199.002 195.252 199.002 195.669H198.585H198.168V196.086C198.168 196.086 198.168 196.504 197.751 196.086C197.751 196.504 197.751 196.086 197.751 196.086ZM201.92 196.086V195.669C201.92 195.669 201.92 195.669 201.503 195.669H201.086C201.086 195.669 201.086 195.669 201.086 195.252V194.835H201.503H201.086L200.669 194.417V194C200.669 194 200.669 194 201.086 194C201.086 194 201.086 194 201.503 194C201.503 193.583 201.92 193.583 201.92 193.583C202.336 193.583 202.336 194 202.336 194C202.336 194 202.336 194 202.753 194H203.17C203.17 194 203.17 194 203.17 194.417V194.835H202.753H203.17V195.252C203.17 195.252 203.17 195.252 203.17 195.669H202.753H202.336V196.086C202.336 196.086 202.336 196.504 201.92 196.086C201.92 196.504 201.92 196.086 201.92 196.086ZM206.088 196.086V195.669C206.088 195.669 206.088 195.669 205.671 195.669H205.254C205.254 195.669 205.254 195.669 205.254 195.252V194.835H205.671H205.254L204.837 194.417V194C204.837 194 204.837 194 205.254 194C205.254 194 205.254 194 205.671 194C205.671 193.583 206.088 193.583 206.088 193.583C206.505 193.583 206.505 194 206.505 194C206.505 194 206.505 194 206.921 194H207.338C207.338 194 207.338 194 207.338 194.417V194.835H206.921H207.338V195.252C207.338 195.252 207.338 195.252 207.338 195.669H206.921H206.505V196.086C206.921 196.086 206.505 196.504 206.088 196.086C206.505 196.504 206.088 196.086 206.088 196.086ZM210.256 196.086V195.669C210.256 195.669 210.256 195.669 209.839 195.669H209.422C209.422 195.669 209.422 195.669 209.422 195.252V194.835H209.839H209.422L209.006 194.417V194C209.006 194 209.006 194 209.422 194C209.422 194 209.422 194 209.839 194C209.839 193.583 210.256 193.583 210.256 193.583C210.673 193.583 210.673 194 210.673 194C210.673 194 210.673 194 211.09 194H211.507C211.507 194 211.507 194 211.507 194.417V194.835H211.09H211.507V195.252C211.507 195.252 211.507 195.252 211.507 195.669H211.09H210.673V196.086C211.09 196.086 210.673 196.504 210.256 196.086C210.673 196.504 210.673 196.086 210.256 196.086ZM214.841 196.086C214.424 196.086 214.424 196.086 214.841 196.086V195.669C214.841 195.669 214.841 195.669 214.424 195.669H214.007C214.007 195.669 214.007 195.669 214.007 195.252V194.835H214.424H214.007L213.591 194.417V194C213.591 194 213.591 194 214.007 194C214.007 194 214.007 194 214.424 194C214.424 193.583 214.841 193.583 214.841 193.583C215.258 193.583 215.258 194 215.258 194C215.258 194 215.258 194 215.675 194H216.092C216.092 194 216.092 194 216.092 194.417V194.835H215.675H216.092V195.252C216.092 195.252 216.092 195.252 216.092 195.669H215.675H215.258V196.086C215.258 196.086 215.258 196.504 214.841 196.086C214.841 196.504 214.841 196.086 214.841 196.086Z" fill="#DBE8EC"/>
<path d="M223.594 224.459H180.662C177.327 224.459 174.409 221.538 174.409 218.2C174.409 214.862 177.327 211.941 180.662 211.941H223.594C226.929 211.941 229.847 214.862 229.847 218.2C229.847 221.538 226.929 224.459 223.594 224.459Z" fill="#DD706F"/>
<path d="M230.264 93.8624C230.264 109.3 217.759 121.818 202.336 121.818C186.914 121.818 174.409 109.3 174.409 93.8624C174.409 78.4245 186.914 65.9072 202.336 65.9072C217.759 65.9072 230.264 78.4245 230.264 93.8624Z" fill="#80A6F4"/>
<path d="M211.507 81.3453C211.507 86.3522 207.338 90.5246 202.336 90.5246C197.335 90.5246 193.166 86.3522 193.166 81.3453C193.166 76.3384 197.335 72.166 202.336 72.166C207.338 72.166 211.507 76.3384 211.507 81.3453ZM202.336 93.8626C194.417 93.8626 186.914 96.7833 181.078 101.79C184.413 110.135 192.333 116.394 202.336 116.394C211.923 116.394 220.26 110.552 223.594 101.79C217.759 97.2005 210.256 93.8626 202.336 93.8626Z" fill="white"/>
<path d="M191.916 241.566H129.392V288.715H191.916C194.834 288.715 197.335 286.211 197.335 283.291V246.991C197.335 244.07 194.834 241.566 191.916 241.566Z" fill="#122030"/>
<path d="M194.417 239.062H84.3757C81.4579 239.062 78.957 241.566 78.957 244.487V280.787C78.957 283.707 81.4579 286.211 84.3757 286.211H194.417C197.335 286.211 199.835 283.707 199.835 280.787V244.487C199.835 241.149 197.335 239.062 194.417 239.062Z" fill="#294878"/>
<path d="M143.981 256.586C143.981 256.169 144.398 255.752 144.815 255.752H175.66C176.077 255.752 176.493 256.169 176.493 256.586C176.493 257.004 176.077 257.421 175.66 257.421H144.815C144.398 257.838 143.981 257.421 143.981 256.586Z" fill="#42628C"/>
<path d="M143.981 273.276C143.981 272.859 144.398 272.441 144.815 272.441H175.66C176.077 272.441 176.493 272.859 176.493 273.276C176.493 273.693 176.077 274.11 175.66 274.11H144.815C144.398 274.11 143.981 273.693 143.981 273.276Z" fill="#42628C"/>
<path d="M121.056 249.076H88.9607V276.197H121.056V249.076Z" fill="white"/>
<path d="M135.228 274.945C132.727 274.945 130.643 272.859 130.643 270.355C130.643 267.852 132.727 265.766 135.228 265.766C137.729 265.766 139.813 267.852 139.813 270.355C140.23 272.859 137.729 274.945 135.228 274.945Z" fill="#80A6F4"/>
<path d="M135.228 258.255C137.76 258.255 139.813 256.201 139.813 253.666C139.813 251.131 137.76 249.076 135.228 249.076C132.696 249.076 130.643 251.131 130.643 253.666C130.643 256.201 132.696 258.255 135.228 258.255Z" fill="#80A6F4"/>
<path d="M178.994 273.276C178.994 272.859 179.411 272.024 180.245 272.024H183.163C183.579 272.024 184.413 272.442 184.413 273.276C184.413 273.693 183.996 274.528 183.163 274.528H180.245C179.828 274.111 178.994 273.693 178.994 273.276Z" fill="#80A6F4"/>
<path d="M191.499 267.852C191.499 268.269 191.082 268.686 190.665 268.686H145.232C144.815 268.686 144.398 268.269 144.398 267.852C144.398 267.434 144.815 267.017 145.232 267.017H190.665C191.082 266.6 191.499 267.017 191.499 267.852Z" fill="#42628C"/>
<path d="M178.994 256.587C178.994 256.169 179.411 255.335 180.245 255.335H183.163C183.579 255.335 184.413 255.752 184.413 256.587C184.413 257.004 183.996 257.838 183.163 257.838H180.245C179.828 257.838 178.994 257.421 178.994 256.587Z" fill="#80A6F4"/>
<path d="M191.499 251.58C191.499 251.997 191.082 252.415 190.665 252.415H145.232C144.815 252.415 144.398 251.997 144.398 251.58C144.398 251.163 144.815 250.746 145.232 250.746H190.665C191.082 250.328 191.499 250.746 191.499 251.58Z" fill="#42628C"/>
<path d="M275.28 37.9521V40.4556H255.273C253.189 40.4556 251.105 38.7866 251.105 36.2832V20.0107H257.774C267.361 20.428 275.28 28.3556 275.28 37.9521Z" fill="#122030"/>
<path d="M256.94 38.787H298.206C300.29 38.787 301.957 37.118 301.957 35.0318V11.6663C301.957 9.5801 300.29 7.91113 298.206 7.91113H256.94C254.856 7.91113 253.189 9.5801 253.189 11.6663V35.0318C253.189 37.118 254.856 38.787 256.94 38.787Z" fill="#80A6F4"/>
<path d="M308.209 7.91072C308.209 11.2486 305.708 13.7521 302.374 13.7521C299.039 13.7521 296.538 11.2486 296.538 7.91072C296.538 4.57278 299.039 2.06934 302.374 2.06934C305.292 2.06934 308.209 4.99002 308.209 7.91072Z" fill="#DD706F"/>
<path d="M294.871 14.1689L277.781 25.0172L260.692 14.1689" stroke="#3A609A" stroke-width="0.4375" stroke-miterlimit="10" stroke-linecap="round" stroke-linejoin="round"/>
<path d="M289.035 26.6865L294.871 31.2762" stroke="#3A609A" stroke-width="0.4375" stroke-miterlimit="10" stroke-linecap="round" stroke-linejoin="round"/>
<path d="M260.692 31.2762L266.527 26.6865" stroke="#3A609A" stroke-width="0.4375" stroke-miterlimit="10" stroke-linecap="round" stroke-linejoin="round"/>
<path d="M327.383 183.152C329.467 179.814 334.469 179.814 336.553 183.152L347.807 202.762L359.062 222.373C361.146 225.711 358.645 230.3 354.477 230.3H331.968H309.46C305.292 230.3 302.791 226.128 304.875 222.373L316.129 202.762L327.383 183.152Z" fill="white"/>
<path d="M328.217 218.617C328.217 216.531 329.467 215.279 331.551 215.279C333.635 215.279 334.886 216.948 334.886 218.617C334.886 220.703 333.635 221.955 331.551 221.955C329.884 221.955 328.217 220.703 328.217 218.617ZM329.05 204.431V199.424H334.886V204.431L333.635 213.61H329.884L329.05 204.431Z" fill="#DD706F"/>
<path d="M143.981 64.6553V143.931C143.981 146.852 141.48 149.355 138.563 149.355H128.976V59.6484H138.563C141.897 59.6484 143.981 61.7346 143.981 64.6553Z" fill="#122030"/>
<path d="M5.59624 146.017H141.897C144.815 146.017 147.316 143.514 147.316 140.593V61.7347C147.316 58.814 144.815 56.3105 141.897 56.3105H5.59624C2.67849 56.3105 0.177551 58.814 0.177551 61.7347V140.593C0.594374 143.931 2.67849 146.017 5.59624 146.017Z" fill="#80A6F4"/>
<path d="M147.316 69.2451H0.594376V91.7762H147.316V69.2451Z" fill="#294878"/>
<path d="M117.721 119.731C117.721 125.99 112.72 130.997 106.467 130.997C100.215 130.997 95.2131 125.99 95.2131 119.731C95.2131 113.473 100.215 108.466 106.467 108.466C112.72 108.466 117.721 113.473 117.721 119.731Z" fill="white"/>
<path d="M123.557 130.997C129.773 130.997 134.811 125.953 134.811 119.731C134.811 113.51 129.773 108.466 123.557 108.466C117.341 108.466 112.303 113.51 112.303 119.731C112.303 125.953 117.341 130.997 123.557 130.997Z" fill="#CEE1FE"/>
<path d="M61.8673 115.976H16.8504C14.7663 115.976 13.099 114.307 13.099 112.221C13.099 110.135 14.7663 108.466 16.8504 108.466H62.2841C64.3682 108.466 66.0355 110.135 66.0355 112.221C65.6187 114.307 63.9514 115.976 61.8673 115.976ZM38.5252 127.659C38.5252 125.573 36.8579 123.904 34.7738 123.904H16.8504C14.7663 123.904 13.099 125.573 13.099 127.659C13.099 129.745 14.7663 131.414 16.8504 131.414H35.1906C36.8579 131.414 38.5252 129.745 38.5252 127.659Z" fill="#CEE1FE"/>
<g opacity="0.2">
<path opacity="0.2" d="M114.804 171.469C115.221 170.635 115.637 169.383 115.637 168.131C115.637 163.959 112.303 160.621 108.135 160.621C103.966 160.621 100.632 163.959 100.632 168.131C100.632 169.383 101.049 170.635 101.465 171.469C101.049 171.887 100.632 172.721 100.632 173.556C100.632 175.225 101.882 176.476 103.55 176.476C103.966 176.476 103.966 176.476 104.383 176.476V177.728C104.383 178.562 105.217 178.98 105.634 178.98H111.052C111.886 178.98 112.303 178.145 112.303 177.728V176.476C112.72 176.476 112.72 176.476 113.136 176.476C114.804 176.476 116.054 175.225 116.054 173.556C115.637 172.721 115.221 171.887 114.804 171.469ZM105.217 173.138C103.966 173.138 103.133 172.304 103.133 171.052C103.133 169.8 103.966 168.966 105.217 168.966C106.467 168.966 107.301 169.8 107.301 171.052C107.301 172.304 106.467 173.138 105.217 173.138ZM108.551 175.225H107.301C106.884 175.225 106.884 174.807 106.884 174.807L107.718 173.556H108.135L108.968 174.807C108.968 175.225 108.968 175.225 108.551 175.225ZM110.635 173.138C109.385 173.138 108.551 172.304 108.551 171.052C108.551 169.8 109.385 168.966 110.635 168.966C111.886 168.966 112.72 169.8 112.72 171.052C112.72 172.304 111.886 173.138 110.635 173.138Z" fill="#5872E2"/>
<path opacity="0.2" d="M119.806 178.563C119.389 177.728 118.138 176.894 117.305 177.311C116.471 177.728 115.637 178.563 116.054 179.815L98.5476 186.073C98.1308 185.239 96.8804 184.822 96.0467 185.239C95.2131 185.656 94.3794 186.908 94.7962 187.742C94.7962 188.159 95.2131 188.577 95.6299 188.994C95.6299 189.411 95.6299 189.828 95.6299 190.246C96.0467 191.08 97.2972 191.915 98.1308 191.497C98.9645 191.08 99.7981 190.246 99.3813 188.994L116.888 182.735C117.305 183.57 118.555 183.987 119.389 183.57C120.222 183.153 121.056 181.901 120.639 181.066C120.639 180.649 120.222 180.232 119.806 179.815C120.222 179.397 120.222 178.98 119.806 178.563Z" fill="#5872E2"/>
<path opacity="0.2" d="M96.0467 178.563C96.4635 177.728 97.714 176.894 98.5477 177.311C99.3813 177.728 100.215 178.563 99.7981 179.815L117.305 186.073C117.721 185.239 118.972 184.822 119.806 185.239C120.639 185.656 121.473 186.908 121.056 187.742C121.056 188.159 120.639 188.577 120.222 188.994C120.222 189.411 120.222 189.828 120.222 190.246C119.806 191.08 118.555 191.915 117.721 191.497C116.888 191.08 116.054 190.246 116.471 188.994L98.9645 182.735C98.5477 183.57 97.2972 183.987 96.4635 183.57C95.6299 183.153 94.7962 181.901 95.2131 181.066C95.2131 180.649 95.6299 180.232 96.0467 179.815C96.0467 179.397 96.0467 178.98 96.0467 178.563Z" fill="#5872E2"/>
</g>
<path opacity="0.2" d="M297.789 199.007C297.789 195.252 294.454 191.914 290.703 191.914C286.951 191.914 283.617 194.835 283.617 198.59V199.007C283.617 200.259 284.034 201.511 284.45 202.762L283.2 206.517L287.368 205.266C288.202 205.683 289.452 206.1 290.703 206.1C294.871 206.517 297.789 203.18 297.789 199.007C297.789 199.424 297.789 199.007 297.789 199.007ZM290.703 205.266C289.452 205.266 288.202 204.849 287.368 204.431L284.867 205.266L285.701 203.18C284.867 202.345 284.45 201.093 284.45 199.842V199.424C284.867 196.504 287.368 194 290.286 194C293.621 194 296.121 196.504 296.538 199.424V199.842C296.955 202.762 294.037 205.266 290.703 205.266ZM294.037 201.093C294.037 201.093 294.037 201.511 294.037 201.928C294.037 202.345 293.204 202.762 292.787 202.762C292.37 202.762 292.37 203.18 290.703 202.345C289.035 201.511 287.785 199.842 287.785 199.842C287.785 199.842 287.368 199.424 286.951 198.59V198.173C286.951 197.338 287.368 196.921 287.368 196.504L287.785 196.086H288.202C288.202 196.086 288.619 196.086 288.619 196.504C288.619 196.921 289.035 197.755 289.035 197.755C289.035 197.755 289.035 197.755 289.035 198.173C289.035 198.173 289.035 198.59 288.619 198.59C288.619 198.59 288.619 198.59 288.619 199.007C288.619 199.007 289.035 199.842 289.452 200.259C290.286 200.676 290.703 201.093 290.703 201.093H291.12C291.12 201.093 291.536 200.676 291.536 200.259H291.953C292.787 200.259 293.621 200.676 294.037 201.093C294.037 200.676 294.037 201.093 294.037 201.093Z" fill="#5872E2"/>
<path opacity="0.2" d="M295.288 62.5688C294.871 62.1515 294.871 62.1515 295.288 62.5688C294.454 62.5688 294.454 62.5688 294.037 62.5688C293.621 62.5688 293.204 62.5688 292.787 62.5688C292.37 62.5688 291.536 62.1515 291.12 62.1515C290.703 62.1515 290.286 61.7343 289.869 61.317C289.869 61.317 289.869 61.317 289.452 61.317C290.286 61.317 291.12 61.317 291.953 60.8998C292.787 60.4826 293.621 60.0653 294.454 59.6481C292.37 59.6481 291.536 57.9791 291.12 57.1446H291.536H291.953H292.37H292.787C292.37 57.1446 291.953 56.7274 291.953 56.7274C291.536 56.7274 291.536 56.3101 291.12 55.8929C290.703 55.4757 290.703 55.4757 290.703 55.0584C290.703 54.6412 290.286 54.2239 290.286 53.8067H290.703C291.12 53.8067 291.12 53.8067 291.536 53.8067C291.536 53.8067 291.536 53.8067 291.953 53.8067C291.536 53.8067 291.536 53.3895 291.12 53.3895C290.703 52.9722 290.703 52.9722 290.703 52.555C290.703 52.1377 290.286 51.7205 290.286 51.3032C290.286 50.886 290.286 50.886 290.286 50.4688C290.286 50.0515 290.286 49.6343 290.703 49.217C291.12 49.6343 291.12 49.6343 291.536 50.0515C292.37 50.886 292.787 51.3032 293.621 51.7205C294.037 52.1377 294.871 52.1377 295.288 52.555C295.705 52.555 296.121 52.9722 296.538 52.9722C296.955 52.9722 297.372 52.9722 297.372 52.9722C297.372 52.555 297.372 52.1377 297.372 51.7205C297.372 51.3032 297.372 50.886 297.789 50.4688C297.789 50.0515 298.206 49.6343 298.622 49.6343C299.039 49.217 299.039 49.217 299.456 49.217C299.873 49.217 300.29 48.7998 300.707 48.7998C301.123 48.7998 301.123 48.7998 301.54 48.7998C301.957 48.7998 301.957 48.7998 302.374 49.217C302.791 49.217 303.207 49.6343 303.207 50.0515H303.624C304.041 50.0515 304.458 49.6343 304.875 49.6343C304.875 49.6343 304.875 49.6343 305.292 49.6343C305.292 50.0515 304.875 50.4688 304.458 50.886C304.458 51.3033 304.041 51.3032 303.624 51.3032H304.041C304.458 51.3032 304.875 50.886 305.292 50.886C304.875 51.3033 304.458 52.1377 303.624 52.555C303.624 52.9722 303.624 53.3895 303.624 53.8067C303.624 54.6412 303.207 55.4757 303.207 56.3101C302.791 57.5619 301.957 58.8136 301.123 60.0653C300.29 60.8998 299.456 61.7343 298.206 62.1515C297.372 62.5688 296.121 62.986 295.288 62.986C296.121 62.1515 296.121 62.1515 295.288 62.5688C295.288 62.1515 295.288 62.1515 295.288 62.5688Z" fill="#5872E2"/>
<g opacity="0.2">
<path opacity="0.2" d="M86.043 42.5412L78.5402 35.0309L78.957 34.6136L78.1234 33.7792C80.2075 30.024 79.7906 25.4343 76.8729 22.5136C73.1215 18.7585 67.286 18.7585 63.9514 22.5136C60.2 26.2688 60.2 32.1102 63.9514 35.4481C66.8691 38.3688 71.871 38.7861 75.2056 36.6998L76.0392 37.5343L76.4561 37.1171L83.9589 44.6274C84.3757 45.0447 85.6262 45.0447 86.043 44.6274C86.8766 44.2102 86.8766 43.3757 86.043 42.5412ZM65.2019 33.7792C62.2841 30.8585 62.2841 26.6861 65.2019 23.7654C68.1196 20.8447 72.2878 20.8447 75.2056 23.7654C78.1233 26.6861 78.1233 30.8585 75.2056 33.7792C72.2878 36.6999 68.1196 36.6999 65.2019 33.7792Z" fill="#5872E2"/>
<path opacity="0.2" d="M70.2037 23.3477C68.9532 23.3477 67.286 23.7649 66.4523 25.0166C66.0355 25.4339 66.0355 25.4339 66.4523 25.8511C66.8691 26.2684 66.8691 26.2684 67.286 25.8511C68.1196 25.0166 68.9532 24.5994 70.2037 24.5994C71.4542 24.5994 72.2878 25.0166 73.1215 25.8511H73.5383H73.9551C74.3719 25.4339 74.3719 25.4339 73.9551 25.0166C73.1215 24.1821 71.871 23.3477 70.2037 23.3477Z" fill="#5872E2"/>
</g>
<path d="M146.482 20.4277C136.895 20.4277 128.976 28.3553 128.976 37.9519V50.0519H154.402C155.236 50.0519 156.069 49.2174 156.069 48.3829V20.4277H146.482Z" fill="#122030"/>
<path d="M157.32 47.5481H112.303C111.469 47.5481 110.635 46.7136 110.635 45.8791V11.2481C110.635 10.4136 111.469 9.5791 112.303 9.5791H157.32C158.153 9.5791 158.987 10.4136 158.987 11.2481V45.8791C158.987 46.7136 158.153 47.5481 157.32 47.5481Z" fill="#DD706F"/>
<path d="M128.976 20.0098H119.389C118.555 20.0098 117.721 19.1753 117.721 18.3408C117.721 17.5064 118.555 16.6719 119.389 16.6719H128.976C129.809 16.6719 130.643 17.5064 130.643 18.3408C130.643 19.5926 129.809 20.0098 128.976 20.0098Z" fill="#B75B5A"/>
<path d="M150.234 40.8721H132.727C131.893 40.8721 131.06 40.0376 131.06 39.2031C131.06 38.3687 131.893 37.5342 132.727 37.5342H150.234C151.067 37.5342 151.901 38.3687 151.901 39.2031C151.901 40.0376 151.067 40.8721 150.234 40.8721Z" fill="#B75B5A"/>
<path d="M150.234 25.4336H119.389C118.555 25.4336 117.721 24.5992 117.721 23.7647C117.721 22.9302 118.555 22.0957 119.389 22.0957H150.234C151.067 22.0957 151.901 22.9302 151.901 23.7647C151.901 25.0164 151.067 25.4336 150.234 25.4336Z" fill="white"/>
<path d="M126.892 31.2754H119.389C118.555 31.2754 117.721 30.4409 117.721 29.6065C117.721 28.772 118.555 27.9375 119.389 27.9375H126.892C127.725 27.9375 128.559 28.772 128.559 29.6065C128.559 30.4409 128.142 31.2754 126.892 31.2754Z" fill="white"/>
<path d="M132.31 31.2754H131.477C130.643 31.2754 129.809 30.4409 129.809 29.6065C129.809 28.772 130.643 27.9375 131.477 27.9375H132.31C133.144 27.9375 133.978 28.772 133.978 29.6065C133.978 30.4409 133.144 31.2754 132.31 31.2754Z" fill="#F4D75D"/>
<path opacity="0.2" d="M64.3682 278.7C60.2 278.7 56.4486 282.038 56.4486 286.628C56.4486 290.8 59.7832 294.555 64.3682 294.555C68.9532 294.555 72.2878 291.217 72.2878 286.628C72.2878 282.038 68.5364 278.7 64.3682 278.7ZM70.6205 285.793H68.1196C68.1196 284.124 67.7028 282.455 67.286 280.786C68.5364 281.621 70.2037 283.29 70.6205 285.793ZM64.3682 292.886C63.9514 292.886 62.7009 291.217 62.7009 287.462H66.0355C66.0355 290.8 64.785 292.886 64.3682 292.886ZM62.7009 285.793C62.7009 282.455 63.9514 280.369 64.3682 280.369C64.785 280.369 66.0355 282.038 66.0355 285.793H62.7009ZM61.8673 280.786C61.4504 282.038 61.0336 283.707 61.0336 285.793H58.5327C58.5327 283.29 59.7832 281.621 61.8673 280.786ZM58.1159 287.462H60.6168C60.6168 289.131 61.0336 290.8 61.4505 292.469C59.7832 291.217 58.5327 289.548 58.1159 287.462ZM66.8691 292.052C67.286 290.8 67.7028 289.131 67.7028 287.045H70.2037C70.2037 289.548 68.5364 291.217 66.8691 292.052Z" fill="#5872E2"/>
<path d="M248.604 106.379C248.604 88.0207 263.609 73 281.949 73C300.29 73 315.295 88.0207 315.295 106.379C315.295 124.738 300.29 139.759 281.949 139.759C279.449 139.759 276.948 139.341 274.447 138.924L265.693 147.686V135.586C255.69 129.745 248.604 118.897 248.604 106.379Z" fill="white"/>
<path d="M289.869 124.321C284.867 126.407 279.032 126.407 274.03 124.321C270.695 123.069 268.611 119.731 268.611 116.393V99.2861H295.705V116.393C295.705 119.731 293.204 123.069 289.869 124.321Z" fill="#CEE1FE"/>
<path d="M288.619 115.559L285.701 118.479L281.949 115.141L278.615 118.479L275.28 115.559L279.032 112.221L275.28 108.466L278.615 105.545L281.949 108.883L285.701 105.545L288.619 108.466L285.284 112.221L288.619 115.559Z" fill="#80A6F4"/>
<path d="M291.953 98.8686H287.368V90.1065C287.368 88.8548 286.535 88.0203 285.284 88.0203H279.032C277.781 88.0203 276.948 88.8548 276.948 90.1065V94.6962H272.363V90.1065C272.363 86.3513 275.28 83.4307 279.032 83.4307H285.284C289.035 83.4307 291.953 86.3513 291.953 90.1065V98.8686Z" fill="#80A6F4"/>
<path d="M275.28 279.535V252.414C274.864 252.414 274.03 252.414 273.613 252.414C266.11 252.414 259.858 258.673 259.858 266.183C259.858 273.693 266.11 279.952 273.613 279.952C274.03 279.535 274.864 279.535 275.28 279.535Z" fill="#122030"/>
<path d="M289.035 264.097C289.035 271.607 282.783 277.866 275.28 277.866C267.778 277.866 261.525 271.607 261.525 264.097C261.525 256.587 267.778 250.328 275.28 250.328C282.783 250.328 289.035 256.587 289.035 264.097Z" fill="#DD706F"/>
<path d="M277.781 264.097L281.116 260.759C281.95 259.925 281.95 258.673 281.116 258.256C280.282 257.421 279.032 257.421 278.615 258.256L275.28 261.594L271.946 258.256C271.112 257.421 269.862 257.421 269.445 258.256C268.611 259.09 268.611 260.342 269.445 260.759L272.779 264.097L269.445 267.435C268.611 268.27 268.611 269.521 269.445 269.938C269.862 270.356 270.278 270.356 270.695 270.356C271.112 270.356 271.529 270.356 271.946 269.938L275.28 266.601L278.615 269.938C279.032 270.356 279.449 270.356 279.865 270.356C280.282 270.356 280.699 270.356 281.116 269.938C281.95 269.104 281.95 267.852 281.116 267.435L277.781 264.097Z" fill="white"/>
<path d="M38.5252 34.1969V31.6935L36.0243 31.2762C36.0243 30.4417 35.6075 29.6073 35.1906 29.19L36.8579 27.1038L34.7738 25.0176L32.6897 26.6866C31.8561 26.2693 31.4392 25.8521 30.6056 25.8521L30.1888 23.3486H27.6878L27.271 25.8521C26.4374 25.8521 25.6037 26.2693 25.1869 26.6866L23.1028 25.0176L21.0187 27.1038L22.686 29.19C22.2691 30.0245 21.8523 30.4417 21.8523 31.2762L19.3514 31.6935V34.1969L21.8523 34.6141C21.8523 35.4486 22.2691 36.2831 22.686 36.7004L21.0187 38.7866L23.1028 40.8728L25.1869 39.2038C26.0205 39.621 26.4374 40.0383 27.271 40.0383L27.6878 42.5417H30.1888L30.6056 40.0383C31.4392 40.0383 32.2729 39.621 32.6897 39.2038L34.7738 40.8728L36.8579 38.7866L35.1906 36.7004C35.6075 35.8659 36.0243 35.4486 36.0243 34.6141L38.5252 34.1969ZM28.9383 36.2831C27.271 36.2831 26.0205 35.0314 26.0205 33.3624C26.0205 31.6935 27.271 30.4417 28.9383 30.4417C30.6056 30.4417 31.8561 31.6935 31.8561 33.3624C31.8561 34.6142 30.6056 36.2831 28.9383 36.2831Z" fill="white"/>
<path d="M53.114 15.0036V11.6657L49.7794 11.2484C49.3626 10.4139 49.3626 9.16221 48.5289 8.32773L50.6131 5.82428L48.1121 3.32083L45.6112 5.40704C44.7775 4.9898 43.9439 4.57256 42.6934 4.15531L42.2766 0.817383H38.942L38.5252 4.15531C37.6916 4.57256 36.4411 4.57256 35.6074 5.40704L33.1065 3.32083L30.6056 5.82428L32.6897 8.32773C32.2729 9.16221 31.856 9.99669 31.4392 11.2484L28.1046 11.6657V15.0036L31.4392 15.4208C31.856 16.2553 31.856 17.507 32.6897 18.3415L30.6056 20.845L33.1065 23.3484L35.6074 21.2622C36.4411 21.6794 37.2747 22.0967 38.5252 22.5139L38.942 25.8519H42.2766L42.6934 22.5139C43.5271 22.0967 44.7775 22.0967 45.6112 21.2622L48.1121 23.3484L50.6131 20.845L48.5289 18.3415C48.9458 17.507 49.3626 16.6726 49.7794 15.4208L53.114 15.0036ZM40.6093 17.507C38.5252 17.507 36.4411 15.8381 36.4411 13.3346C36.4411 11.2484 38.1084 9.16221 40.6093 9.16221C42.6934 9.16221 44.7775 10.8312 44.7775 13.3346C44.3607 15.8381 42.6934 17.507 40.6093 17.507Z" fill="white"/>
<path d="M54.7813 219.452C55.6149 219.452 56.8654 219.452 57.699 219.034C53.5308 213.193 47.6953 208.186 40.6093 205.683C41.0262 213.193 47.2785 219.452 54.7813 219.452Z" fill="#122030"/>
<path d="M103.966 199.841H70.2037C68.5364 193.583 63.1177 188.993 56.4486 188.993C48.5289 188.993 42.2766 195.252 42.2766 203.179C42.2766 211.107 48.5289 217.366 56.4486 217.366C63.1177 217.366 68.5364 212.776 70.2037 206.517H86.4598V210.69C86.4598 211.524 87.2934 212.359 88.1271 212.359H93.9626C94.7962 212.359 95.6299 211.524 95.6299 210.69H98.9645V211.107C98.9645 211.941 99.7981 212.776 100.632 212.776C101.465 212.776 102.299 211.941 102.299 211.107V206.935H103.549C104.383 206.935 104.8 206.1 104.8 205.683V201.51C105.634 200.259 104.8 199.841 103.966 199.841ZM56.8654 210.272C53.114 210.272 49.7794 206.935 49.7794 203.179C49.7794 199.424 53.114 196.086 56.8654 196.086C60.6168 196.086 63.9514 199.424 63.9514 203.179C63.5345 207.352 60.6168 210.272 56.8654 210.272Z" fill="white"/>
<path d="M300.29 171.886C300.29 178.145 303.624 183.986 308.626 187.324C309.043 186.907 309.043 186.907 309.46 186.49C317.379 177.728 319.88 166.045 317.379 154.779C317.379 153.945 316.963 153.528 316.963 153.11C307.792 154.779 300.29 162.29 300.29 171.886Z" fill="#122030"/>
<path d="M320.714 189.41C331.073 189.41 339.471 181.004 339.471 170.634C339.471 160.265 331.073 151.858 320.714 151.858C310.355 151.858 301.957 160.265 301.957 170.634C301.957 181.004 310.355 189.41 320.714 189.41Z" fill="#DD706F"/>
<path d="M322.381 178.562V181.9H319.464V178.562C317.379 178.145 315.295 177.31 314.045 176.058L315.712 173.138C317.379 174.389 319.464 175.641 321.131 175.641C322.381 175.641 323.215 175.224 323.215 174.389C323.215 171.886 315.295 173.555 315.295 168.131C315.295 165.627 316.963 163.958 319.88 163.541V160.203H322.798V163.541C324.465 163.541 326.133 164.376 327.383 165.21L325.716 168.548C324.049 167.713 321.964 166.879 320.714 166.879C319.88 166.879 319.047 167.296 319.047 167.713C319.047 170.217 326.966 168.965 326.966 174.389C327.383 176.476 325.299 178.145 322.381 178.562Z" fill="white"/>
<path d="M54.7813 144.766C54.7813 151.025 58.1159 156.866 63.1177 160.204C63.5346 159.787 63.5346 159.787 63.9514 159.37C71.871 150.607 74.372 138.925 71.871 127.659C71.871 126.825 71.4542 126.407 71.4542 125.99C61.8673 127.242 54.7813 135.17 54.7813 144.766Z" fill="#122030"/>
<path d="M74.7888 162.29C85.148 162.29 93.5458 153.884 93.5458 143.514C93.5458 133.145 85.148 124.738 74.7888 124.738C64.4296 124.738 56.0318 133.145 56.0318 143.514C56.0318 153.884 64.4296 162.29 74.7888 162.29Z" fill="#DD706F"/>
<path d="M76.456 151.025V154.363H73.5383V151.025C71.4542 150.607 69.3701 149.773 68.1196 148.521L69.7869 145.601C71.4542 146.852 73.5383 148.104 75.2056 148.104C76.4561 148.104 77.2897 147.687 77.2897 146.852C77.2897 144.349 69.3701 146.018 69.3701 140.594C69.3701 138.09 71.0374 136.421 73.9551 136.004V132.666H76.8729V135.587C78.5402 135.587 80.2075 136.421 81.4579 137.256L79.7906 140.594C78.1233 139.759 76.0392 138.925 74.7888 138.925C73.9551 138.925 73.1215 139.342 73.1215 139.759C73.1215 142.263 81.0411 141.011 81.0411 146.435C81.4579 148.938 79.3738 150.607 76.456 151.025Z" fill="white"/>
<defs>
<linearGradient id="paint0_linear_24_1181" x1="202.234" y1="-7.86395" x2="202.234" y2="333.797" gradientUnits="userSpaceOnUse">
<stop stop-color="white"/>
<stop offset="0.2653" stop-color="#F5F7FC"/>
<stop offset="0.7144" stop-color="#DAE3F4"/>
<stop offset="1" stop-color="#C6D4EE"/>
</linearGradient>
</defs>
</svg>
