<svg width="63" height="53" viewBox="0 0 63 53" fill="none" xmlns="http://www.w3.org/2000/svg">
<path d="M2.50093 1.42702C2.50093 1.00978 2.08411 1.00977 2.08411 1.00977C2.08411 1.00977 2.08411 1.00977 1.66729 1.00977C1.66729 1.00977 1.66729 1.00977 1.25047 1.00977H0.833645C0.833645 1.00977 0.833645 1.00977 0.416822 1.00977C0.416822 1.00977 0.416822 1.00977 0 1.00977C0 1.00977 0 1.00978 0 1.42702C0 1.42702 0 1.42701 0 1.84425C0 1.84425 0 1.84424 0 2.26148C0 2.26148 0 2.26149 0 2.67873C0 2.67873 0 2.67873 0 3.09597C0 3.09597 0 3.09598 0 3.51322C0.416822 3.93046 0.416822 3.93045 0.833645 3.93045C1.25047 3.93045 1.66729 3.93046 1.66729 3.51322C1.66729 3.51322 1.66729 3.51321 1.66729 3.09597C1.66729 3.09597 1.66729 3.09597 1.66729 2.67873C1.66729 2.67873 1.66729 2.67872 1.66729 2.26148C2.50093 1.84424 2.50093 1.84426 2.50093 1.42702C2.50093 1.84426 2.50093 1.84426 2.50093 1.42702Z" fill="#CFEDFE"/>
<path d="M14.5888 1.42702C14.5888 1.00978 14.172 1.00977 14.172 1.00977C14.172 1.00977 14.172 1.00977 13.7551 1.00977C13.7551 1.00977 13.7551 1.00977 13.3383 1.00977C12.9215 1.00977 12.5047 1.00978 12.0879 1.42702C12.0879 1.42702 12.0879 1.42701 12.0879 1.84425C12.0879 1.84425 12.0879 1.84425 12.0879 2.26149C12.0879 2.26149 12.0879 2.2615 12.0879 2.67874C12.0879 2.67874 12.0879 2.67874 12.0879 3.09598C12.0879 3.09598 12.0879 3.09599 12.0879 3.51323C12.0879 3.51323 12.0879 3.51322 12.0879 3.93047C12.5047 4.34771 12.5047 4.3477 12.9215 4.3477C13.3383 4.3477 13.7551 4.34771 13.7551 3.93047C13.7551 3.93047 13.7551 3.93047 13.7551 3.51323C13.7551 3.51323 13.7551 3.51322 13.7551 3.09598C13.7551 3.09598 13.7551 3.09598 13.7551 2.67874C14.5888 1.84426 14.5888 1.84426 14.5888 1.42702C14.5888 1.84426 14.5888 1.84426 14.5888 1.42702Z" fill="#CFEDFE"/>
<path d="M26.6766 1.42726C26.6766 1.01002 26.2598 1.01001 26.2598 1.01001C25.843 0.592767 25.4262 0.592773 25.0093 0.592773C25.0093 0.592773 25.0093 0.592773 24.5925 0.592773C24.5925 0.592773 24.5925 0.592773 24.1757 0.592773C24.1757 0.592773 24.1757 0.592767 24.1757 1.01001C24.1757 1.01001 24.1757 1.01002 24.1757 1.42726C24.1757 1.42726 24.1757 1.42725 24.1757 1.84449C24.1757 1.84449 24.1757 1.84448 24.1757 2.26172C24.1757 2.26172 24.1757 2.26173 24.1757 2.67897C24.1757 2.67897 24.1757 2.67897 24.1757 3.09621C24.5925 3.51345 24.5925 3.51346 25.0093 3.51346C25.4262 3.51346 25.843 3.51345 25.843 3.09621C25.843 3.09621 25.843 3.09621 25.843 2.67897C25.843 2.67897 25.843 2.67897 25.843 2.26172C25.843 2.26172 25.843 2.26173 25.843 1.84449C26.6766 1.84449 26.6766 1.8445 26.6766 1.42726C26.6766 1.8445 26.6766 1.8445 26.6766 1.42726Z" fill="#CFEDFE"/>
<path d="M38.7645 1.42702C38.3477 1.42702 38.3477 1.42702 38.7645 1.42702C38.7645 1.00978 38.3477 1.00977 38.3477 1.00977C38.3477 1.00977 38.3477 1.00977 37.9308 1.00977C37.9308 1.00977 37.9308 1.00977 37.514 1.00977H37.0972C37.0972 1.00977 37.0972 1.00977 36.6804 1.00977C36.6804 1.00977 36.6804 1.00977 36.2635 1.00977C36.2635 1.00977 36.2635 1.00978 36.2635 1.42702C36.2635 1.42702 36.2635 1.42701 36.2635 1.84425C36.2635 1.84425 36.2635 1.84424 36.2635 2.26148C36.2635 2.26148 36.2635 2.26149 36.2635 2.67873C36.2635 2.67873 36.2635 2.67873 36.2635 3.09597C36.2635 3.09597 36.2635 3.09598 36.2635 3.51322C36.6804 3.93046 36.6804 3.93045 37.0972 3.93045C37.514 3.93045 37.9308 3.93046 37.9308 3.51322C37.9308 3.51322 37.9308 3.51321 37.9308 3.09597C37.9308 3.09597 37.9308 3.09597 37.9308 2.67873C37.9308 2.67873 37.9308 2.67872 37.9308 2.26148C38.7645 1.84424 38.7645 1.84426 38.7645 1.42702C38.7645 1.84426 38.7645 1.84426 38.7645 1.42702Z" fill="#CFEDFE"/>
<path d="M50.4355 1.42726C50.4355 1.01002 50.0187 1.01001 50.0187 1.01001C49.6019 0.592767 49.1851 0.592773 48.7682 0.592773C48.7682 0.592773 48.7682 0.592773 48.3514 0.592773C48.3514 0.592773 48.3514 0.592773 47.9346 0.592773C47.9346 0.592773 47.9346 0.592767 47.9346 1.01001C47.9346 1.01001 47.9346 1.01002 47.9346 1.42726C47.9346 1.42726 47.9346 1.42725 47.9346 1.84449C47.9346 1.84449 47.9346 1.84448 47.9346 2.26172C47.9346 2.26172 47.9346 2.26173 47.9346 2.67897C47.9346 2.67897 47.9346 2.67897 47.9346 3.09621C48.3514 3.51345 48.3514 3.51346 48.7682 3.51346C49.1851 3.51346 49.6019 3.51345 49.6019 3.09621C49.6019 3.09621 49.6019 3.09621 49.6019 2.67897C49.6019 2.67897 49.6019 2.67897 49.6019 2.26172C49.6019 2.26172 49.6019 2.26173 49.6019 1.84449C50.8523 1.84449 50.8523 1.8445 50.4355 1.42726C50.8523 1.8445 50.8523 1.8445 50.4355 1.42726Z" fill="#CFEDFE"/>
<path d="M60.4393 2.67873C60.4393 3.09597 60.8561 3.09596 60.8561 3.09596C61.2729 3.5132 61.2729 3.51321 61.6897 3.51321C61.6897 3.51321 61.6897 3.51321 62.1065 3.51321C62.1065 3.51321 62.1065 3.51321 62.5234 3.51321C62.5234 3.51321 62.5234 3.51321 62.9402 3.51321C62.9402 3.51321 62.9402 3.5132 62.9402 3.09596C62.9402 3.09596 62.9402 3.09597 62.9402 2.67873C62.9402 2.67873 62.9402 2.67872 62.9402 2.26148C62.9402 2.26148 62.9402 2.26149 62.9402 1.84425C62.9402 1.84425 62.9402 1.84425 62.9402 1.42701C62.9402 1.42701 62.9402 1.42701 62.9402 1.00977C62.9402 1.00977 62.9402 1.00977 62.5234 1.00977C62.5234 1.00977 62.5234 1.00977 62.1065 1.00977C61.6897 1.00977 61.2729 1.00978 60.8561 1.42701C60.8561 1.42701 60.8561 1.42701 60.8561 1.84425C60.8561 1.84425 60.8561 1.84424 60.8561 2.26148C60.8561 2.26148 60.8561 2.26149 60.8561 2.67873C60.0224 2.26149 60.0224 2.26149 60.4393 2.67873C60.4393 2.67873 60.0224 2.26149 60.4393 2.67873Z" fill="#CFEDFE"/>
<path d="M2.50094 13.527C2.50094 13.1098 2.08411 13.1098 2.08411 13.1098C1.66729 12.6926 0.833647 12.6926 0.416824 13.1098C0.416824 13.1098 0.416824 13.1098 0.416824 13.527C0.416824 13.527 0.416824 13.5271 0.416824 13.9443C0.416824 13.9443 0.416824 13.9443 0.416824 14.3615C0.416824 14.7788 0.416824 15.196 0.833647 15.196C0.833647 15.196 0.833647 15.196 1.25047 15.196C1.25047 15.196 1.25047 15.196 1.66729 15.196C1.66729 15.196 1.66729 15.196 2.08411 15.196C2.08411 15.196 2.08411 15.196 2.50094 15.196C2.50094 15.196 2.50094 15.196 2.91776 15.196C2.91776 15.196 2.91776 15.196 3.33458 15.196C3.33458 15.196 3.33458 15.196 3.33458 14.7788C3.33458 14.7788 3.33458 14.7788 3.33458 14.3615C3.33458 14.3615 3.33458 14.3615 3.33458 13.9443C2.50094 13.9443 2.50094 13.9443 2.50094 13.527C2.50094 13.9443 2.50094 13.9443 2.50094 13.527Z" fill="#CFEDFE"/>
<path d="M14.5888 13.5276C14.5888 13.1103 14.172 13.1104 14.172 13.1104C14.172 13.1104 14.172 13.1104 13.7551 13.1104C13.7551 13.1104 13.7551 13.1104 13.3383 13.1104C12.9215 13.1104 12.5047 13.1103 12.0879 13.5276C12.0879 13.5276 12.0879 13.5276 12.0879 13.9448C12.0879 13.9448 12.0879 13.9448 12.0879 14.3621C12.0879 14.3621 12.0879 14.3621 12.0879 14.7793C12.0879 14.7793 12.0879 14.7793 12.0879 15.1966C12.0879 15.1966 12.0879 15.1966 12.0879 15.6138C12.0879 15.6138 12.0879 15.6138 12.0879 16.0311C12.0879 16.0311 12.0879 16.0311 12.5047 16.0311C12.5047 16.0311 12.5047 16.0311 12.9215 16.0311C12.9215 16.0311 12.9215 16.0311 13.3383 16.0311C13.3383 16.0311 13.3383 16.0311 13.7551 16.0311C13.7551 16.0311 13.7551 16.0311 14.172 16.0311C14.172 16.0311 14.172 16.0311 14.5888 16.0311C15.0056 15.6138 15.0056 15.6138 15.0056 15.1966C14.5888 13.9448 14.5888 13.9448 14.5888 13.5276C14.5888 13.9448 14.5888 13.9448 14.5888 13.5276Z" fill="#CFEDFE"/>
<path d="M26.6766 13.5269C26.6766 13.1096 26.2598 13.1096 26.2598 13.1096C25.843 12.6924 25.4262 12.6924 25.0093 12.6924C25.0093 12.6924 25.0093 12.6924 24.5925 12.6924C24.5925 12.6924 24.5925 12.6924 24.1757 12.6924C24.1757 12.6924 24.1757 12.6924 24.1757 13.1096C24.1757 13.1096 24.1757 13.1096 24.1757 13.5269C24.1757 13.5269 24.1757 13.5269 24.1757 13.9441C24.1757 14.3614 24.1757 14.7786 24.5925 14.7786C25.0093 15.1958 25.0093 15.1958 25.4262 15.1958C25.4262 15.1958 25.4262 15.1958 25.843 15.1958C25.843 15.1958 25.843 15.1958 26.2598 15.1958C26.2598 15.1958 26.2598 15.1958 26.6766 15.1958C26.6766 15.1958 26.6766 15.1958 26.6766 14.7786C26.6766 14.7786 26.6766 14.7786 26.6766 14.3613C26.6766 14.3613 26.6766 14.3614 26.6766 13.9441C26.6766 13.9441 26.6766 13.9441 26.6766 13.5269C26.6766 13.9441 26.6766 13.9441 26.6766 13.5269Z" fill="#CFEDFE"/>
<path d="M38.7645 13.5276C38.3477 13.5276 38.3477 13.5276 38.7645 13.5276C38.7645 13.1103 38.3477 13.1104 38.3477 13.1104C38.3477 13.1104 38.3477 13.1104 37.9308 13.1104C37.9308 13.1104 37.9308 13.1104 37.514 13.1104C37.0972 13.1104 36.6804 13.1103 36.2635 13.5276C36.2635 13.5276 36.2635 13.5276 36.2635 13.9448C36.2635 13.9448 36.2635 13.9448 36.2635 14.3621C36.2635 14.3621 36.2635 14.3621 36.2635 14.7793C36.2635 14.7793 36.2635 14.7793 36.2635 15.1966C36.2635 15.1966 36.2635 15.1966 36.2635 15.6138C36.2635 15.6138 36.2635 15.6138 36.2635 16.0311C36.2635 16.0311 36.2636 16.0311 36.6804 16.0311C36.6804 16.0311 36.6804 16.0311 37.0972 16.0311C37.0972 16.0311 37.0972 16.0311 37.514 16.0311C37.9308 16.0311 37.514 16.0311 37.9308 16.0311C37.9308 16.0311 37.9308 16.0311 38.3477 16.0311C38.7645 16.0311 38.3477 16.0311 38.7645 16.0311C38.7645 16.0311 38.7645 16.0311 38.7645 15.6138C38.7645 15.6138 38.7645 15.6138 38.7645 15.1966C38.7645 15.1966 38.7645 15.1966 38.7645 14.7793C38.7645 13.9448 38.7645 13.9448 38.7645 13.5276C38.7645 13.9448 38.7645 13.9448 38.7645 13.5276Z" fill="#CFEDFE"/>
<path d="M50.4355 13.5276C50.4355 13.1103 50.0187 13.1104 50.0187 13.1104C50.0187 13.1104 50.0187 13.1104 49.6019 13.1104C49.6019 13.1104 49.6019 13.1104 49.1851 13.1104C48.7682 13.1104 48.3514 13.1103 47.9346 13.5276C47.9346 13.5276 47.9346 13.5276 47.9346 13.9448C47.9346 13.9448 47.9346 13.9448 47.9346 14.3621C47.9346 14.3621 47.9346 14.3621 47.9346 14.7793C47.9346 14.7793 47.9346 14.7793 47.9346 15.1966C47.9346 15.1966 47.9346 15.1966 47.9346 15.6138C47.9346 15.6138 47.9346 15.6138 47.9346 16.0311C47.9346 16.0311 47.9346 16.0311 48.3514 16.0311C48.7682 16.0311 48.3514 16.0311 48.7682 16.0311C48.7682 16.0311 48.7682 16.0311 49.1851 16.0311C49.6019 16.0311 49.185 16.0311 49.6019 16.0311C49.6019 16.0311 49.6019 16.0311 50.0187 16.0311C50.0187 16.0311 50.0187 16.0311 50.4355 16.0311C50.8523 15.6138 50.8523 15.6138 50.8523 15.1966C50.8523 13.9448 50.8523 13.9448 50.4355 13.5276C50.8523 13.9448 50.8523 13.9448 50.4355 13.5276Z" fill="#CFEDFE"/>
<path d="M62.5234 13.5269C62.5234 13.1096 62.1065 13.1096 62.1065 13.1096C61.6897 12.6924 61.2729 12.6924 60.8561 12.6924C60.8561 12.6924 60.8561 12.6924 60.4393 12.6924C60.4393 12.6924 60.4393 12.6924 60.0224 12.6924C60.0224 12.6924 60.0224 12.6924 60.0224 13.1096C60.0224 13.1096 60.0224 13.1096 60.0224 13.5269C60.0224 13.5269 60.0224 13.5269 60.0224 13.9441C60.0224 14.3614 60.0224 14.7786 60.4393 14.7786C60.8561 15.1958 60.8561 15.1958 61.2729 15.1958C61.2729 15.1958 61.2729 15.1958 61.6897 15.1958C61.6897 15.1958 61.6897 15.1958 62.1065 15.1958C62.1065 15.1958 62.1065 15.1958 62.5234 15.1958C62.5234 15.1958 62.5234 15.1958 62.5234 14.7786C62.5234 14.7786 62.5234 14.7786 62.5234 14.3613C62.5234 14.3613 62.5234 14.3614 62.5234 13.9441C62.9402 13.9441 62.9402 13.9441 62.5234 13.5269C62.5234 13.9441 62.5234 13.9441 62.5234 13.5269Z" fill="#CFEDFE"/>
<path d="M2.50093 25.6272C2.50093 25.21 2.08411 25.21 2.08411 25.21C2.08411 25.21 2.08411 25.21 1.66729 25.21C1.66729 25.21 1.66729 25.21 1.25047 25.21H0.833645C0.833645 25.21 0.833645 25.21 0.416822 25.21C0.416822 25.21 0.416822 25.21 0 25.21C0 25.21 0 25.21 0 25.6272C0 25.6272 0 25.6272 0 26.0444C0 26.0444 0 26.0445 0 26.4617C0 26.4617 0 26.4617 0 26.8789C0 26.8789 0 26.8789 0 27.2962C0 27.2962 0 27.2962 0 27.7134C0.416822 28.1307 0.416822 28.1307 0.833645 28.1307C0.833645 28.1307 0.833645 28.1307 1.25047 28.1307C1.25047 28.1307 1.25047 28.1307 1.66729 28.1307C1.66729 28.1307 1.66729 28.1307 2.08411 28.1307C2.08411 28.1307 2.08411 28.1307 2.08411 27.7134C2.08411 27.7134 2.08411 27.7134 2.08411 27.2962C2.08411 27.2962 2.08411 27.2962 2.08411 26.8789C2.50093 26.0445 2.50093 26.0445 2.50093 25.6272C2.50093 25.6272 2.50093 26.0445 2.50093 25.6272Z" fill="#CFEDFE"/>
<path d="M14.5888 25.6272C14.5888 25.21 14.172 25.21 14.172 25.21C14.172 25.21 14.172 25.21 13.7551 25.21C13.7551 25.21 13.7551 25.21 13.3383 25.21H12.9215C12.9215 25.21 12.9215 25.21 12.5047 25.21C12.5047 25.21 12.5047 25.21 12.0879 25.21C12.0879 25.21 12.0879 25.21 12.0879 25.6272C12.0879 25.6272 12.0879 25.6272 12.0879 26.0444C12.0879 26.0444 12.0879 26.0445 12.0879 26.4617C12.0879 26.4617 12.0879 26.4617 12.0879 26.8789C12.0879 26.8789 12.0879 26.8789 12.0879 27.2962C12.0879 27.2962 12.0879 27.2962 12.0879 27.7134C12.0879 27.7134 12.0879 27.7134 12.5047 27.7134C12.5047 27.7134 12.5047 27.7134 12.9215 27.7134C12.9215 27.7134 12.9215 27.7134 13.3383 27.7134C13.7551 27.7134 14.172 27.7134 14.172 27.2962C14.172 27.2962 14.172 27.2962 14.172 26.8789C14.172 26.8789 14.172 26.8789 14.172 26.4617C14.172 26.4617 14.172 26.4617 14.172 26.0444C14.5888 26.0444 14.5888 26.0445 14.5888 25.6272C14.5888 25.6272 14.5888 26.0445 14.5888 25.6272Z" fill="#CFEDFE"/>
<path d="M26.6766 25.6272C26.6766 25.21 26.2598 25.21 26.2598 25.21C26.2598 25.21 26.2598 25.21 25.843 25.21C25.843 25.21 25.843 25.21 25.4262 25.21H25.0093C25.0093 25.21 25.0093 25.21 24.5925 25.21C24.5925 25.21 24.5925 25.21 24.1757 25.21C24.1757 25.21 24.1757 25.21 24.1757 25.6272C24.1757 25.6272 24.1757 25.6272 24.1757 26.0444C24.1757 26.0444 24.1757 26.0445 24.1757 26.4617C24.1757 26.4617 24.1757 26.4617 24.1757 26.8789C24.1757 26.8789 24.1757 26.8789 24.1757 27.2962C24.1757 27.2962 24.1757 27.2962 24.1757 27.7134C24.1757 27.7134 24.1757 27.7134 24.5925 27.7134C24.5925 27.7134 24.5925 27.7134 25.0093 27.7134C25.0093 27.7134 25.0093 27.7134 25.4262 27.7134C25.4262 27.7134 25.4262 27.7134 25.843 27.7134C25.843 27.7134 25.843 27.7134 26.2598 27.7134C26.2598 27.7134 26.2598 27.7134 26.6766 27.7134C26.6766 27.7134 26.6766 27.7134 26.6766 27.2962C26.6766 27.2962 26.6766 27.2962 26.6766 26.8789C26.6766 26.8789 26.6766 26.8789 26.6766 26.4617C26.6766 26.0445 26.6766 26.0445 26.6766 25.6272C26.6766 25.6272 26.6766 26.0445 26.6766 25.6272Z" fill="#CFEDFE"/>
<path d="M38.7645 25.6272C38.3477 25.6272 38.3477 25.6272 38.7645 25.6272C38.7645 25.21 38.3477 25.21 38.3477 25.21C38.3477 25.21 38.3477 25.21 37.9308 25.21C37.9308 25.21 37.9308 25.21 37.514 25.21H37.0972C37.0972 25.21 37.0972 25.21 36.6804 25.21C36.6804 25.21 36.6804 25.21 36.2635 25.21C36.2635 25.21 36.2635 25.21 36.2635 25.6272C36.2635 25.6272 36.2635 25.6272 36.2635 26.0444C36.2635 26.0444 36.2635 26.0445 36.2635 26.4617C36.2635 26.4617 36.2635 26.4617 36.2635 26.8789C36.2635 26.8789 36.2635 26.8789 36.2635 27.2962C36.2635 27.2962 36.2635 27.2962 36.2635 27.7134C36.2635 27.7134 36.2636 27.7134 36.6804 27.7134C36.6804 27.7134 36.6804 27.7134 37.0972 27.7134C37.0972 27.7134 37.0972 27.7134 37.514 27.7134C37.9308 27.7134 38.3477 27.7134 38.3477 27.2962C38.3477 27.2962 38.3477 27.2962 38.3477 26.8789C38.3477 26.8789 38.3477 26.8789 38.3477 26.4617C38.3477 26.4617 38.3477 26.4617 38.3477 26.0444C38.7645 26.0444 38.7645 26.0445 38.7645 25.6272C38.7645 25.6272 38.7645 26.0445 38.7645 25.6272Z" fill="#CFEDFE"/>
<path d="M50.4355 25.6272C50.4355 25.21 50.0187 25.21 50.0187 25.21C50.0187 25.21 50.0187 25.21 49.6019 25.21C49.6019 25.21 49.6019 25.21 49.1851 25.21H48.7682C48.7682 25.21 48.7682 25.21 48.3514 25.21C48.3514 25.21 48.3514 25.21 47.9346 25.21C47.9346 25.21 47.9346 25.21 47.9346 25.6272C47.9346 25.6272 47.9346 25.6272 47.9346 26.0444C47.9346 26.0444 47.9346 26.0445 47.9346 26.4617C47.9346 26.4617 47.9346 26.4617 47.9346 26.8789C47.9346 26.8789 47.9346 26.8789 47.9346 27.2962C47.9346 27.2962 47.9346 27.2962 47.9346 27.7134C47.9346 27.7134 47.9346 27.7134 48.3514 27.7134C48.3514 27.7134 48.3514 27.7134 48.7682 27.7134C48.7682 27.7134 48.7682 27.7134 49.1851 27.7134C49.6019 27.7134 49.185 27.7134 49.6019 27.7134C49.6019 27.7134 49.6019 27.7134 50.0187 27.7134C50.0187 27.7134 50.0187 27.7134 50.4355 27.7134C50.4355 27.7134 50.4355 27.7134 50.4355 27.2962C50.4355 27.2962 50.4355 27.2962 50.4355 26.8789C50.4355 26.8789 50.4355 26.8789 50.4355 26.4617C50.8523 26.0445 50.8523 26.0445 50.4355 25.6272C50.8523 25.6272 50.8523 26.0445 50.4355 25.6272Z" fill="#CFEDFE"/>
<path d="M62.5234 25.6272C62.5234 25.21 62.1065 25.21 62.1065 25.21C62.1065 25.21 62.1065 25.21 61.6897 25.21C61.6897 25.21 61.6897 25.21 61.2729 25.21H60.8561C60.8561 25.21 60.8561 25.21 60.4393 25.21C60.4393 25.21 60.4393 25.21 60.0224 25.21C60.0224 25.21 60.0224 25.21 60.0224 25.6272C60.0224 25.6272 60.0224 25.6272 60.0224 26.0444C60.0224 26.0444 60.0224 26.0445 60.0224 26.4617C60.0224 26.4617 60.0224 26.4617 60.0224 26.8789C60.0224 26.8789 60.0224 26.8789 60.0224 27.2962C60.0224 27.2962 60.0224 27.2962 60.0224 27.7134C60.0224 27.7134 60.0224 27.7134 60.4393 27.7134C60.4393 27.7134 60.4393 27.7134 60.8561 27.7134C60.8561 27.7134 60.8561 27.7134 61.2729 27.7134C61.6897 27.7134 62.1065 27.7134 62.1065 27.2962C62.1065 27.2962 62.1065 27.2962 62.1065 26.8789C62.1065 26.8789 62.1065 26.8789 62.1065 26.4617C62.1065 26.4617 62.1065 26.4617 62.1065 26.0444C62.9402 26.0444 62.9402 26.0445 62.5234 25.6272C62.5234 25.6272 62.5234 26.0445 62.5234 25.6272Z" fill="#CFEDFE"/>
<path d="M2.50094 37.7272C2.50094 37.31 2.08411 37.31 2.08411 37.31C1.66729 36.8928 0.833647 36.8928 0.416824 37.31C0.416824 37.31 0.416824 37.31 0.416824 37.7272C0.416824 37.7272 0.416824 37.7273 0.416824 38.1445C0.416824 38.1445 0.416824 38.1445 0.416824 38.5617C0.416824 38.5617 0.416824 38.5617 0.416824 38.979C0.416824 38.979 0.416824 38.979 0.416824 39.3962C0.416824 39.3962 0.416824 39.3962 0.416824 39.8135C0.833647 40.2307 0.833647 40.2307 1.25047 40.2307C1.66729 40.2307 2.08411 40.2307 2.08411 39.8135C2.08411 39.8135 2.08411 39.8135 2.08411 39.3962C2.08411 39.3962 2.08411 39.3962 2.08411 38.979C2.08411 38.979 2.08411 38.979 2.08411 38.5617C2.50094 38.1445 2.50094 38.1445 2.50094 37.7272C2.50094 37.7272 2.50094 38.1445 2.50094 37.7272Z" fill="#CFEDFE"/>
<path d="M14.5888 37.7272C14.172 37.31 14.172 37.31 14.172 37.31C13.7551 36.8928 12.9215 36.8928 12.5047 37.31C12.5047 37.31 12.5047 37.31 12.5047 37.7272C12.5047 37.7272 12.5047 37.7273 12.5047 38.1445C12.5047 38.1445 12.5047 38.1445 12.5047 38.5617C12.5047 38.5617 12.5047 38.5617 12.5047 38.979C12.5047 38.979 12.5047 38.979 12.5047 39.3962C12.5047 39.3962 12.5047 39.3962 12.5047 39.8135C12.9215 40.2307 12.9215 40.2307 13.3383 40.2307C13.7551 40.2307 14.172 40.2307 14.172 39.8135C14.172 39.8135 14.172 39.8135 14.172 39.3962C14.172 39.3962 14.172 39.3962 14.172 38.979C14.172 38.979 14.172 38.979 14.172 38.5617C14.5888 38.1445 14.5888 38.1445 14.5888 37.7272C14.5888 37.7272 14.5888 38.1445 14.5888 37.7272Z" fill="#CFEDFE"/>
<path d="M26.6766 37.727C26.2598 37.3098 26.2598 37.3098 26.2598 37.3098C25.843 36.8926 25.4262 36.8926 25.0093 36.8926C25.0093 36.8926 25.0093 36.8926 24.5925 36.8926C24.5925 36.8926 24.5925 36.8926 24.1757 36.8926C24.1757 36.8926 24.1757 36.8926 24.1757 37.3098C24.1757 37.3098 24.1757 37.3098 24.1757 37.727C24.1757 37.727 24.1757 37.7271 24.1757 38.1443C24.1757 38.1443 24.1757 38.1443 24.1757 38.5615C24.1757 38.5615 24.1757 38.5615 24.1757 38.9788C24.1757 38.9788 24.1757 38.9788 24.1757 39.396C24.5925 39.8133 24.5925 39.8132 25.0093 39.8132C25.0093 39.8132 25.0093 39.8132 25.4262 39.8132C25.4262 39.8132 25.4262 39.8132 25.843 39.8132C25.843 39.8132 25.843 39.8132 26.2598 39.8132C26.2598 39.8132 26.2598 39.8133 26.2598 39.396C26.2598 39.396 26.2598 39.396 26.2598 38.9788C26.2598 38.9788 26.2598 38.9788 26.2598 38.5615C26.6766 38.1443 26.6766 38.1443 26.6766 37.727C26.6766 37.727 26.6766 38.1443 26.6766 37.727Z" fill="#CFEDFE"/>
<path d="M38.7645 37.7272C38.3477 37.7272 38.3477 37.7272 38.7645 37.7272C38.3477 37.31 38.3477 37.31 38.3477 37.31C37.9308 36.8928 37.0972 36.8928 36.6804 37.31C36.6804 37.31 36.6804 37.31 36.6804 37.7272C36.6804 37.7272 36.6804 37.7273 36.6804 38.1445C36.6804 38.1445 36.6804 38.1445 36.6804 38.5617C36.6804 38.5617 36.6804 38.5617 36.6804 38.979C36.6804 38.979 36.6804 38.979 36.6804 39.3962C36.6804 39.3962 36.6804 39.3962 36.6804 39.8135C37.0972 40.2307 37.0972 40.2307 37.514 40.2307C37.9308 40.2307 38.3477 40.2307 38.3477 39.8135C38.3477 39.8135 38.3477 39.8135 38.3477 39.3962C38.3477 39.3962 38.3477 39.3962 38.3477 38.979C38.3477 38.979 38.3477 38.979 38.3477 38.5617C38.7645 38.1445 38.7645 38.1445 38.7645 37.7272C38.7645 37.7272 38.7645 38.1445 38.7645 37.7272Z" fill="#CFEDFE"/>
<path d="M50.4355 37.7268C50.4355 37.3096 50.0187 37.3096 50.0187 37.3096C50.0187 37.3096 50.0187 37.3096 49.6019 37.3096C49.6019 37.3096 49.6019 37.3096 49.1851 37.3096C48.7682 37.3096 48.3514 37.3096 47.9346 37.7268C47.9346 37.7268 47.9346 37.7268 47.9346 38.1441C47.9346 38.1441 47.9346 38.1441 47.9346 38.5613C47.9346 38.5613 47.9346 38.5613 47.9346 38.9786C47.9346 38.9786 47.9346 38.9785 47.9346 39.3958C47.9346 39.3958 47.9346 39.3958 47.9346 39.813C47.9346 39.813 47.9346 39.813 47.9346 40.2303C48.3514 40.6475 48.3514 40.6475 48.7682 40.6475C48.7682 40.6475 48.7682 40.6475 49.1851 40.6475C49.1851 40.6475 49.185 40.6475 49.6019 40.6475C49.6019 40.6475 49.6019 40.6475 50.0187 40.6475C50.0187 40.6475 50.0187 40.6475 50.0187 40.2303C50.0187 40.2303 50.0187 40.2303 50.0187 39.813C50.0187 39.813 50.0187 39.813 50.0187 39.3958C50.8523 38.1441 50.8523 38.1441 50.4355 37.7268C50.8523 37.7268 50.8523 38.1441 50.4355 37.7268Z" fill="#CFEDFE"/>
<path d="M62.5234 37.7272C62.5234 37.31 62.5234 37.31 62.5234 37.31C62.1065 36.8928 61.2729 36.8928 60.8561 37.31C60.8561 37.31 60.8561 37.31 60.8561 37.7272C60.8561 37.7272 60.8561 37.7273 60.8561 38.1445C60.8561 38.1445 60.8561 38.1445 60.8561 38.5617C60.8561 38.5617 60.8561 38.5617 60.8561 38.979C60.8561 38.979 60.8561 38.979 60.8561 39.3962C60.8561 39.3962 60.8561 39.3962 60.8561 39.8135C61.2729 40.2307 61.2729 40.2307 61.6897 40.2307C62.1065 40.2307 62.5234 40.2307 62.5234 39.8135C62.5234 39.8135 62.5234 39.8135 62.5234 39.3962C62.5234 39.3962 62.5234 39.3962 62.5234 38.979C62.5234 38.979 62.5234 38.979 62.5234 38.5617C62.9402 38.1445 62.9402 38.1445 62.5234 37.7272C62.5234 37.7272 62.5234 38.1445 62.5234 37.7272Z" fill="#CFEDFE"/>
<path d="M2.50094 49.8268C2.50094 49.4096 2.08411 49.4096 2.08411 49.4096C1.66729 48.9924 0.833647 48.9924 0.416824 49.4096C0.416824 49.4096 0.416824 49.4096 0.416824 49.8268C0.416824 49.8268 0.416824 49.8268 0.416824 50.2441C0.416824 50.2441 0.416824 50.2441 0.416824 50.6613C0.416824 51.0786 0.416824 51.4958 0.833647 51.4958C0.833647 51.4958 0.833647 51.4958 1.25047 51.4958C1.25047 51.4958 1.25047 51.4958 1.66729 51.4958C1.66729 51.4958 1.66729 51.4958 2.08411 51.4958C2.08411 51.4958 2.08411 51.4958 2.50094 51.4958C2.50094 51.4958 2.50094 51.4958 2.91776 51.4958C2.91776 51.4958 2.91776 51.4958 3.33458 51.4958C3.7514 51.0786 3.7514 51.0786 3.7514 50.6613C2.50094 50.2441 2.50094 50.2441 2.50094 49.8268Z" fill="#CFEDFE"/>
<path d="M14.5888 49.8274C14.5888 49.4101 14.172 49.4102 14.172 49.4102C14.172 49.4102 14.172 49.4102 13.7551 49.4102C13.7551 49.4102 13.7551 49.4102 13.3383 49.4102C12.9215 49.4102 12.5047 49.4101 12.0879 49.8274C12.0879 49.8274 12.0879 49.8274 12.0879 50.2446C12.0879 50.2446 12.0879 50.2446 12.0879 50.6619C12.0879 50.6619 12.0879 50.6619 12.0879 51.0791C12.0879 51.4964 12.0879 51.9136 12.5047 51.9136C12.9215 52.3309 12.9215 52.3309 13.3383 52.3309C13.3383 52.3309 13.3383 52.3309 13.7551 52.3309C13.7551 52.3309 13.7551 52.3309 14.172 52.3309C14.172 52.3309 14.172 52.3309 14.5888 52.3309C15.0056 51.9136 15.0056 51.9136 15.0056 51.4964C14.5888 50.2446 14.5888 50.2446 14.5888 49.8274Z" fill="#CFEDFE"/>
<path d="M26.6766 49.8274C26.6766 49.4101 26.2598 49.4102 26.2598 49.4102C26.2598 49.4102 26.2598 49.4102 25.843 49.4102C25.843 49.4102 25.843 49.4102 25.4262 49.4102C25.0093 49.4102 24.5925 49.4101 24.1757 49.8274C24.1757 49.8274 24.1757 49.8274 24.1757 50.2446C24.1757 50.2446 24.1757 50.2446 24.1757 50.6619C24.1757 50.6619 24.1757 50.6619 24.1757 51.0791C24.1757 51.4964 24.1757 51.9136 24.5925 51.9136C24.5925 51.9136 24.5925 51.9136 25.0093 51.9136C25.0093 51.9136 25.0093 51.9136 25.4262 51.9136C25.4262 51.9136 25.4262 51.9136 25.843 51.9136C25.843 51.9136 25.843 51.9136 26.2598 51.9136C26.2598 51.9136 26.2598 51.9136 26.6766 51.9136C26.6766 51.9136 26.6766 51.9136 27.0935 51.9136C27.5103 51.4964 27.5103 51.4964 27.5103 51.0791C26.6766 50.2446 26.6766 50.2446 26.6766 49.8274Z" fill="#CFEDFE"/>
<path d="M38.7645 49.8276C38.3477 49.8276 38.3477 49.8276 38.7645 49.8276C38.7645 49.4104 38.3477 49.4104 38.3477 49.4104C37.9308 48.9932 37.514 48.9932 37.0972 48.9932C37.0972 48.9932 37.0972 48.9932 36.6804 48.9932C36.6804 48.9932 36.6804 48.9932 36.2635 48.9932C36.2635 48.9932 36.2635 48.9932 36.2635 49.4104C36.2635 49.4104 36.2635 49.4104 36.2635 49.8276C36.2635 49.8276 36.2635 49.8276 36.2635 50.2449C36.2635 50.6621 36.2636 51.0794 36.6804 51.0794C37.0972 51.4966 37.0972 51.4966 37.514 51.4966C37.9308 51.4966 38.3477 51.4966 38.3477 51.0794C38.7645 50.6621 38.7645 50.6621 38.7645 50.2449C38.7645 50.2449 38.7645 50.2449 38.7645 49.8276Z" fill="#CFEDFE"/>
<path d="M50.4355 49.8268C50.4355 49.4096 50.0187 49.4096 50.0187 49.4096C49.6019 48.9924 48.7682 48.9924 48.3514 49.4096C48.3514 49.4096 48.3514 49.4096 48.3514 49.8268C48.3514 49.8268 48.3514 49.8268 48.3514 50.2441C48.3514 50.2441 48.3514 50.2441 48.3514 50.6613C48.3514 51.0786 48.3514 51.4958 48.7682 51.4958C48.7682 51.4958 48.7682 51.4958 49.1851 51.4958C49.6019 51.4958 49.1851 51.4958 49.6019 51.4958C49.6019 51.4958 49.6019 51.4958 50.0187 51.4958C50.4355 51.4958 50.0187 51.4958 50.4355 51.4958C50.4355 51.4958 50.4355 51.4958 50.8523 51.4958C50.8523 51.4958 50.8523 51.4958 51.2692 51.4958C51.686 51.0786 51.686 51.0786 51.686 50.6613C50.8523 50.2441 50.8523 50.2441 50.4355 49.8268C50.8523 49.8268 50.8523 49.8268 50.4355 49.8268Z" fill="#CFEDFE"/>
<path d="M62.5234 49.8274C62.5234 49.4101 62.1065 49.4102 62.1065 49.4102C62.1065 49.4102 62.1065 49.4102 61.6897 49.4102C61.6897 49.4102 61.6897 49.4102 61.2729 49.4102C60.8561 49.4102 60.4393 49.4101 60.0224 49.8274C60.0224 49.8274 60.0224 49.8274 60.0224 50.2446C60.0224 50.2446 60.0224 50.2446 60.0224 50.6619C60.0224 50.6619 60.0224 50.6619 60.0224 51.0791C60.0224 51.4964 60.0224 51.9136 60.4393 51.9136C60.8561 52.3309 60.8561 52.3309 61.2729 52.3309C61.2729 52.3309 61.2729 52.3309 61.6897 52.3309C61.6897 52.3309 61.6897 52.3309 62.1065 52.3309C62.1065 52.3309 62.1065 52.3309 62.5234 52.3309C62.9402 51.9136 62.9402 51.9136 62.9402 51.4964C62.9402 50.2446 62.9402 50.2446 62.5234 49.8274Z" fill="#CFEDFE"/>
</svg>
