<svg width="63" height="28" viewBox="0 0 63 28" fill="none" xmlns="http://www.w3.org/2000/svg">
<path d="M2.56076 1.16919C2.56076 0.751947 2.14394 0.751953 2.14394 0.751953C2.14394 0.751953 2.14395 0.751953 1.72712 0.751953C1.72712 0.751953 1.7271 0.751953 1.31027 0.751953H0.893453C0.893453 0.751953 0.893459 0.751953 0.476634 0.751953C0.476634 0.751953 0.47664 0.751953 0.0598145 0.751953C0.0598145 0.751953 0.0598145 0.751947 0.0598145 1.16919C0.0598145 1.16919 0.0598145 1.16918 0.0598145 1.58643C0.0598145 1.58643 0.0598145 1.58642 0.0598145 2.00366C0.0598145 2.00366 0.0598145 2.00366 0.0598145 2.4209C0.0598145 2.4209 0.0598145 2.42092 0.0598145 2.83817C0.0598145 2.83817 0.0598145 2.83816 0.0598145 3.2554C0.47664 3.67264 0.476627 3.67264 0.893453 3.67264C1.31028 3.67264 1.72712 3.67264 1.72712 3.2554C1.72712 3.2554 1.72712 3.25541 1.72712 2.83817C1.72712 2.83817 1.72712 2.83814 1.72712 2.4209C1.72712 2.4209 1.72712 2.4209 1.72712 2.00366C2.9776 1.58642 2.97759 1.58643 2.56076 1.16919C2.56076 1.58643 2.56076 1.58643 2.56076 1.16919Z" fill="#CFEDFE"/>
<path d="M14.6486 1.16919C14.6486 0.751947 14.2318 0.751953 14.2318 0.751953C14.2318 0.751953 14.2318 0.751953 13.815 0.751953C13.815 0.751953 13.815 0.751953 13.3981 0.751953C12.9813 0.751953 12.5645 0.751947 12.1477 1.16919C12.1477 1.16919 12.1477 1.16918 12.1477 1.58643C12.1477 1.58643 12.1477 1.58642 12.1477 2.00366C12.1477 2.00366 12.1477 2.00366 12.1477 2.4209C12.1477 2.4209 12.1477 2.42092 12.1477 2.83817C12.1477 2.83817 12.1477 2.83816 12.1477 3.2554C12.1477 3.2554 12.1477 3.2554 12.1477 3.67264C12.5645 4.08988 12.5645 4.08987 12.9813 4.08987C13.3981 4.08987 13.815 4.08988 13.815 3.67264C13.815 3.67264 13.815 3.67264 13.815 3.2554C13.815 3.2554 13.815 3.25541 13.815 2.83817C13.815 2.83817 13.815 2.83814 13.815 2.4209C14.6486 1.58641 14.6486 1.58643 14.6486 1.16919C14.6486 1.58643 14.6486 1.58643 14.6486 1.16919Z" fill="#CFEDFE"/>
<path d="M26.7365 1.16946C26.7365 0.752222 26.3196 0.752229 26.3196 0.752229C25.9028 0.334986 25.486 0.334961 25.0692 0.334961C25.0692 0.334961 25.0692 0.334961 24.6524 0.334961C24.6524 0.334961 24.6523 0.334961 24.2355 0.334961C24.2355 0.334961 24.2355 0.334986 24.2355 0.752229C24.2355 0.752229 24.2355 0.752222 24.2355 1.16946C24.2355 1.16946 24.2355 1.16946 24.2355 1.5867C24.2355 1.5867 24.2355 1.58669 24.2355 2.00394C24.2355 2.00394 24.2355 2.00393 24.2355 2.42117C24.2355 2.42117 24.2355 2.4212 24.2355 2.83844C24.6523 3.25568 24.6523 3.25568 25.0692 3.25568C25.486 3.25568 25.9028 3.25568 25.9028 2.83844C25.9028 2.83844 25.9028 2.83841 25.9028 2.42117C25.9028 2.42117 25.9028 2.42118 25.9028 2.00394C25.9028 2.00394 25.9028 2.00394 25.9028 1.5867C26.7365 1.5867 26.7365 1.58671 26.7365 1.16946C26.7365 1.58671 26.7365 1.58671 26.7365 1.16946Z" fill="#CFEDFE"/>
<path d="M38.8243 1.16919C38.8243 0.751947 38.4075 0.751953 38.4075 0.751953C38.4075 0.751953 38.4075 0.751953 37.9907 0.751953C37.9907 0.751953 37.9907 0.751953 37.5738 0.751953H37.157C37.157 0.751953 37.157 0.751953 36.7402 0.751953C36.7402 0.751953 36.7402 0.751953 36.3234 0.751953C36.3234 0.751953 36.3234 0.751947 36.3234 1.16919C36.3234 1.16919 36.3234 1.16918 36.3234 1.58643C36.3234 1.58643 36.3234 1.58642 36.3234 2.00366C36.3234 2.00366 36.3234 2.00366 36.3234 2.4209C36.3234 2.4209 36.3234 2.42092 36.3234 2.83817C36.3234 2.83817 36.3234 2.83816 36.3234 3.2554C36.7402 3.67264 36.7402 3.67264 37.157 3.67264C37.5738 3.67264 37.9907 3.67264 37.9907 3.2554C37.9907 3.2554 37.9907 3.25541 37.9907 2.83817C37.9907 2.83817 37.9907 2.83814 37.9907 2.4209C37.9907 2.4209 37.9907 2.4209 37.9907 2.00366C38.8243 1.58642 38.8243 1.58643 38.8243 1.16919C38.8243 1.58643 38.8243 1.58643 38.8243 1.16919Z" fill="#CFEDFE"/>
<path d="M50.9122 1.16946C50.9122 0.752222 50.4954 0.752229 50.4954 0.752229C50.0785 0.334986 49.6617 0.334961 49.2449 0.334961C49.2449 0.334961 49.2449 0.334961 48.8281 0.334961C48.8281 0.334961 48.8281 0.334961 48.4113 0.334961C48.4113 0.334961 48.4113 0.334986 48.4113 0.752229C48.4113 0.752229 48.4113 0.752222 48.4113 1.16946C48.4113 1.16946 48.4113 1.16946 48.4113 1.5867C48.4113 1.5867 48.4113 1.58669 48.4113 2.00394C48.4113 2.00394 48.4113 2.00393 48.4113 2.42117C48.4113 2.42117 48.4113 2.4212 48.4113 2.83844C48.8281 3.25568 48.8281 3.25568 49.2449 3.25568C49.6617 3.25568 50.0785 3.25568 50.0785 2.83844C50.0785 2.83844 50.0785 2.83841 50.0785 2.42117C50.0785 2.42117 50.0785 2.42118 50.0785 2.00394C50.0785 2.00394 50.0785 2.00394 50.0785 1.5867C50.9122 1.5867 50.9122 1.58671 50.9122 1.16946C50.9122 1.58671 50.9122 1.58671 50.9122 1.16946Z" fill="#CFEDFE"/>
<path d="M60.499 2.4209C60.499 2.83814 60.9158 2.83817 60.9158 2.83817C61.3327 3.25541 61.3327 3.2554 61.7495 3.2554C61.7495 3.2554 61.7495 3.2554 62.1663 3.2554C62.1663 3.2554 62.1663 3.2554 62.5832 3.2554C62.5832 3.2554 62.5831 3.2554 63 3.2554C63 3.2554 63 3.25541 63 2.83817C63 2.83817 63 2.83814 63 2.4209C63 2.4209 63 2.4209 63 2.00366C63 2.00366 63 2.00367 63 1.58643C63 1.58643 63 1.58643 63 1.16919C63 1.16919 63 1.1692 63 0.751953C63 0.751953 63 0.751953 62.5832 0.751953C62.5832 0.751953 62.5832 0.751953 62.1663 0.751953C61.7495 0.751953 61.3327 0.751947 60.9158 1.16919C60.9158 1.16919 60.9158 1.16918 60.9158 1.58643C60.9158 1.58643 60.9158 1.58642 60.9158 2.00366C60.9158 2.00366 60.9158 2.00366 60.9158 2.4209C60.499 2.00366 60.499 2.00366 60.499 2.4209C60.499 2.00366 60.499 2.00366 60.499 2.4209Z" fill="#CFEDFE"/>
<path d="M2.56075 13.2693C2.56075 12.852 2.14394 12.852 2.14394 12.852C1.72712 12.4348 0.893474 12.4348 0.476654 12.852C0.476654 12.852 0.476654 12.852 0.476654 13.2693C0.476654 13.2693 0.476654 13.2693 0.476654 13.6865C0.476654 13.6865 0.476654 13.6865 0.476654 14.1037C0.476654 14.521 0.476648 14.9382 0.893467 14.9382C0.893467 14.9382 0.893461 14.9382 1.31028 14.9382C1.31028 14.9382 1.31031 14.9382 1.72713 14.9382C1.72713 14.9382 1.72712 14.9382 2.14394 14.9382C2.56076 14.9382 2.14393 14.9382 2.56075 14.9382C2.56075 14.9382 2.56075 14.9382 2.97757 14.9382C2.97757 14.9382 2.97756 14.9382 3.39438 14.9382C3.39438 14.9382 3.39438 14.9382 3.39438 14.521C3.39438 14.521 3.39438 14.521 3.39438 14.1037C3.39438 14.1037 3.39438 14.1037 3.39438 13.6865C2.97756 13.6865 2.97757 13.6865 2.56075 13.2693C2.56075 13.2693 2.56075 13.6865 2.56075 13.2693Z" fill="#CFEDFE"/>
<path d="M14.6486 13.2698C14.6486 12.8526 14.2318 12.8525 14.2318 12.8525C14.2318 12.8525 14.2317 12.8525 13.8149 12.8525C13.8149 12.8525 13.8149 12.8525 13.3981 12.8525C12.9813 12.8525 12.5645 12.8526 12.1477 13.2698C12.1477 13.2698 12.1477 13.2698 12.1477 13.687C12.1477 13.687 12.1477 13.687 12.1477 14.1043C12.1477 14.1043 12.1477 14.1043 12.1477 14.5215C12.1477 14.5215 12.1477 14.5215 12.1477 14.9388C12.1477 14.9388 12.1477 14.9388 12.1477 15.356C12.1477 15.356 12.1477 15.356 12.1477 15.7733C12.1477 15.7733 12.1477 15.7733 12.5645 15.7733C12.5645 15.7733 12.5645 15.7733 12.9813 15.7733C12.9813 15.7733 12.9813 15.7733 13.3981 15.7733C13.8149 15.7733 13.3981 15.7733 13.8149 15.7733C13.8149 15.7733 13.815 15.7733 14.2318 15.7733C14.2318 15.7733 14.2318 15.7733 14.6486 15.7733C15.0654 15.356 15.0654 15.356 15.0654 14.9388C14.6486 13.687 14.6486 13.687 14.6486 13.2698C14.6486 13.2698 14.6486 13.687 14.6486 13.2698Z" fill="#CFEDFE"/>
<path d="M26.7365 13.2691C26.7365 12.8518 26.3196 12.8518 26.3196 12.8518C25.9028 12.4346 25.486 12.4346 25.0692 12.4346C25.0692 12.4346 25.0692 12.4346 24.6524 12.4346C24.6524 12.4346 24.6523 12.4346 24.2355 12.4346C24.2355 12.4346 24.2355 12.4346 24.2355 12.8518C24.2355 12.8518 24.2355 12.8518 24.2355 13.2691C24.2355 13.2691 24.2355 13.2691 24.2355 13.6863C24.2355 14.1036 24.2355 14.5208 24.6524 14.5208C25.0692 14.938 25.0692 14.938 25.486 14.938C25.486 14.938 25.486 14.938 25.9028 14.938C25.9028 14.938 25.9028 14.938 26.3196 14.938C26.3196 14.938 26.3197 14.938 26.7365 14.938C26.7365 14.938 26.7365 14.938 26.7365 14.5208C26.7365 14.5208 26.7365 14.5208 26.7365 14.1035C26.7365 14.1035 26.7365 14.1036 26.7365 13.6863C26.7365 13.6863 26.7365 13.6863 26.7365 13.2691C26.7365 13.2691 26.7365 13.6863 26.7365 13.2691Z" fill="#CFEDFE"/>
<path d="M38.8243 13.2698C38.8243 12.8526 38.4075 12.8525 38.4075 12.8525C38.4075 12.8525 38.4075 12.8525 37.9907 12.8525C37.9907 12.8525 37.9907 12.8525 37.5738 12.8525C37.157 12.8525 36.7402 12.8526 36.3234 13.2698C36.3234 13.2698 36.3234 13.2698 36.3234 13.687C36.3234 13.687 36.3234 13.687 36.3234 14.1043C36.3234 14.1043 36.3234 14.1043 36.3234 14.5215C36.3234 14.5215 36.3234 14.5215 36.3234 14.9388C36.3234 14.9388 36.3234 14.9388 36.3234 15.356C36.3234 15.356 36.3234 15.356 36.3234 15.7733C36.3234 15.7733 36.3234 15.7733 36.7402 15.7733C36.7402 15.7733 36.7402 15.7733 37.157 15.7733C37.157 15.7733 37.157 15.7733 37.5738 15.7733C37.5738 15.7733 37.5738 15.7733 37.9907 15.7733C37.9907 15.7733 37.9906 15.7733 38.4075 15.7733C38.4075 15.7733 38.4075 15.7733 38.8243 15.7733C38.8243 15.7733 38.8243 15.7733 38.8243 15.356C38.8243 15.356 38.8243 15.356 38.8243 14.9388C38.8243 14.9388 38.8243 14.9388 38.8243 14.5215C38.8243 13.687 38.8243 13.687 38.8243 13.2698C38.8243 13.2698 38.8243 13.687 38.8243 13.2698Z" fill="#CFEDFE"/>
<path d="M50.9122 13.2698C50.9122 12.8526 50.4954 12.8525 50.4954 12.8525C50.4954 12.8525 50.4954 12.8525 50.0786 12.8525C50.0786 12.8525 50.0786 12.8525 49.6617 12.8525C49.2449 12.8525 48.8281 12.8526 48.4113 13.2698C48.4113 13.2698 48.4113 13.2698 48.4113 13.687C48.4113 13.687 48.4113 13.687 48.4113 14.1043C48.4113 14.1043 48.4113 14.1043 48.4113 14.5215C48.4113 14.5215 48.4113 14.5215 48.4113 14.9388C48.4113 14.9388 48.4113 14.9388 48.4113 15.356C48.4113 15.356 48.4113 15.356 48.4113 15.7733C48.4113 15.7733 48.4112 15.7733 48.8281 15.7733C48.8281 15.7733 48.8281 15.7733 49.2449 15.7733C49.2449 15.7733 49.2449 15.7733 49.6617 15.7733C50.0786 15.7733 49.6617 15.7733 50.0786 15.7733C50.0786 15.7733 50.0786 15.7733 50.4954 15.7733C50.4954 15.7733 50.4954 15.7733 50.9122 15.7733C51.329 15.356 51.329 15.356 51.329 14.9388C50.9122 13.687 50.9122 13.687 50.9122 13.2698C50.9122 13.2698 50.9122 13.687 50.9122 13.2698Z" fill="#CFEDFE"/>
<path d="M63 13.2691C63 12.8518 62.5832 12.8518 62.5832 12.8518C62.1663 12.4346 61.7495 12.4346 61.3327 12.4346C61.3327 12.4346 61.3327 12.4346 60.9158 12.4346C60.9158 12.4346 60.9158 12.4346 60.499 12.4346C60.499 12.4346 60.499 12.4346 60.499 12.8518C60.499 12.8518 60.499 12.8518 60.499 13.2691C60.499 13.2691 60.499 13.2691 60.499 13.6863C60.499 14.1036 60.499 14.5208 60.9158 14.5208C61.3327 14.938 61.3327 14.938 61.7495 14.938C61.7495 14.938 61.7495 14.938 62.1663 14.938C62.1663 14.938 62.1663 14.938 62.5832 14.938C62.5832 14.938 62.5831 14.938 63 14.938C63 14.938 63 14.938 63 14.5208C63 14.5208 63 14.5208 63 14.1035C63 14.1035 63 14.1036 63 13.6863C63 13.6863 63 13.6863 63 13.2691C63 13.2691 63 13.6863 63 13.2691Z" fill="#CFEDFE"/>
<path d="M2.56075 25.3694C2.56075 24.9521 2.14393 24.9521 2.14393 24.9521C2.14393 24.9521 2.14394 24.9521 1.72711 24.9521C1.72711 24.9521 1.72709 24.9521 1.31027 24.9521H0.893449C0.893449 24.9521 0.893455 24.9521 0.476631 24.9521C0.476631 24.9521 0.476638 24.9521 0.0598145 24.9521C0.0598145 24.9521 0.0598145 24.9521 0.0598145 25.3694C0.0598145 25.3694 0.0598145 25.3694 0.0598145 25.7867C0.0598145 25.7867 0.0598145 25.7866 0.0598145 26.2039C0.0598145 26.6211 0.0598145 26.2039 0.0598145 26.6211C0.0598145 26.6211 0.0598145 26.6211 0.0598145 27.0384C0.0598145 27.0384 0.0598145 27.0384 0.0598145 27.4556C0.476638 27.8728 0.476625 27.8729 0.893449 27.8729C0.893449 27.8729 0.893442 27.8729 1.31027 27.8729C1.31027 27.8729 1.31029 27.8729 1.72711 27.8729C1.72711 27.8729 1.72711 27.8729 2.14393 27.8729C2.14393 27.8729 2.14393 27.8728 2.14393 27.4556C2.14393 27.4556 2.14393 27.4556 2.14393 27.0384C2.14393 27.0384 2.14393 27.0384 2.14393 26.6211C2.14393 26.2039 2.97757 25.7866 2.56075 25.3694Z" fill="#CFEDFE"/>
<path d="M14.6486 25.3694C14.6486 24.9521 14.2318 24.9521 14.2318 24.9521C14.2318 24.9521 14.2318 24.9521 13.815 24.9521C13.815 24.9521 13.815 24.9521 13.3981 24.9521H12.9813C12.9813 24.9521 12.9813 24.9521 12.5645 24.9521C12.5645 24.9521 12.5645 24.9521 12.1477 24.9521C12.1477 24.9521 12.1477 24.9521 12.1477 25.3694C12.1477 25.3694 12.1477 25.3694 12.1477 25.7867C12.1477 25.7867 12.1477 25.7866 12.1477 26.2039C12.1477 26.6211 12.1477 26.2039 12.1477 26.6211C12.1477 26.6211 12.1477 26.6211 12.1477 27.0384C12.1477 27.0384 12.1477 27.0384 12.1477 27.4556C12.1477 27.4556 12.1477 27.4556 12.5645 27.4556C12.5645 27.4556 12.5645 27.4556 12.9813 27.4556C12.9813 27.4556 12.9813 27.4556 13.3981 27.4556C13.815 27.4556 14.2318 27.4556 14.2318 27.0384C14.2318 27.0384 14.2318 27.0384 14.2318 26.6211C14.2318 26.6211 14.2318 26.6211 14.2318 26.2039C14.2318 26.2039 14.2318 26.2039 14.2318 25.7867C14.2318 25.3694 14.6486 25.7866 14.6486 25.3694Z" fill="#CFEDFE"/>
<path d="M26.7365 25.3694C26.7365 24.9521 26.3196 24.9521 26.3196 24.9521C26.3196 24.9521 26.3196 24.9521 25.9028 24.9521C25.9028 24.9521 25.9028 24.9521 25.486 24.9521H25.0692C25.0692 24.9521 25.0692 24.9521 24.6524 24.9521C24.6524 24.9521 24.6523 24.9521 24.2355 24.9521C24.2355 24.9521 24.2355 24.9521 24.2355 25.3694C24.2355 25.3694 24.2355 25.3694 24.2355 25.7867C24.2355 25.7867 24.2355 25.7866 24.2355 26.2039C24.2355 26.6211 24.2355 26.2039 24.2355 26.6211C24.2355 26.6211 24.2355 26.6211 24.2355 27.0384C24.2355 27.0384 24.2355 27.0384 24.2355 27.4556C24.2355 27.4556 24.2355 27.4556 24.6524 27.4556C24.6524 27.4556 24.6523 27.4556 25.0692 27.4556C25.0692 27.4556 25.0692 27.4556 25.486 27.4556C25.486 27.4556 25.486 27.4556 25.9028 27.4556C25.9028 27.4556 25.9028 27.4556 26.3196 27.4556C26.3196 27.4556 26.3197 27.4556 26.7365 27.4556C26.7365 27.4556 26.7365 27.4556 26.7365 27.0384C26.7365 27.0384 26.7365 27.0384 26.7365 26.6211C26.7365 26.6211 26.7365 26.6211 26.7365 26.2039C26.7365 25.7866 26.7365 25.7866 26.7365 25.3694Z" fill="#CFEDFE"/>
<path d="M38.8243 25.3694C38.8243 24.9521 38.4075 24.9521 38.4075 24.9521C38.4075 24.9521 38.4075 24.9521 37.9907 24.9521C37.9907 24.9521 37.9907 24.9521 37.5738 24.9521H37.157C37.157 24.9521 37.157 24.9521 36.7402 24.9521C36.7402 24.9521 36.7402 24.9521 36.3234 24.9521C36.3234 24.9521 36.3234 24.9521 36.3234 25.3694C36.3234 25.3694 36.3234 25.3694 36.3234 25.7867C36.3234 25.7867 36.3234 25.7866 36.3234 26.2039C36.3234 26.6211 36.3234 26.2039 36.3234 26.6211C36.3234 26.6211 36.3234 26.6211 36.3234 27.0384C36.3234 27.0384 36.3234 27.0384 36.3234 27.4556C36.3234 27.4556 36.3234 27.4556 36.7402 27.4556C36.7402 27.4556 36.7402 27.4556 37.157 27.4556C37.157 27.4556 37.157 27.4556 37.5738 27.4556C37.9907 27.4556 38.4075 27.4556 38.4075 27.0384C38.4075 27.0384 38.4075 27.0384 38.4075 26.6211C38.4075 26.6211 38.4075 26.6211 38.4075 26.2039C38.4075 26.2039 38.4075 26.2039 38.4075 25.7867C38.4075 25.3694 38.8243 25.7866 38.8243 25.3694Z" fill="#CFEDFE"/>
<path d="M50.9122 25.3694C50.9122 24.9521 50.4954 24.9521 50.4954 24.9521C50.4954 24.9521 50.4954 24.9521 50.0785 24.9521C50.0785 24.9521 50.0785 24.9521 49.6617 24.9521H49.2449C49.2449 24.9521 49.2449 24.9521 48.8281 24.9521C48.8281 24.9521 48.8281 24.9521 48.4113 24.9521C48.4113 24.9521 48.4113 24.9521 48.4113 25.3694C48.4113 25.3694 48.4113 25.3694 48.4113 25.7867C48.4113 25.7867 48.4113 25.7866 48.4113 26.2039C48.4113 26.6211 48.4113 26.2039 48.4113 26.6211C48.4113 26.6211 48.4113 26.6211 48.4113 27.0384C48.4113 27.0384 48.4113 27.0384 48.4113 27.4556C48.4113 27.4556 48.4112 27.4556 48.8281 27.4556C48.8281 27.4556 48.8281 27.4556 49.2449 27.4556C49.2449 27.4556 49.2449 27.4556 49.6617 27.4556C50.0785 27.4556 49.6617 27.4556 50.0785 27.4556C50.0785 27.4556 50.0785 27.4556 50.4954 27.4556C50.4954 27.4556 50.4954 27.4556 50.9122 27.4556C50.9122 27.4556 50.9122 27.4556 50.9122 27.0384C50.9122 27.0384 50.9122 27.0384 50.9122 26.6211C50.9122 26.6211 50.9122 26.6211 50.9122 26.2039C50.9122 25.7866 50.9122 25.7866 50.9122 25.3694Z" fill="#CFEDFE"/>
<path d="M63 25.3694C63 24.9521 62.5832 24.9521 62.5832 24.9521C62.5832 24.9521 62.5832 24.9521 62.1663 24.9521C62.1663 24.9521 62.1663 24.9521 61.7495 24.9521H61.3327C61.3327 24.9521 61.3327 24.9521 60.9158 24.9521C60.9158 24.9521 60.9158 24.9521 60.499 24.9521C60.499 24.9521 60.499 24.9521 60.499 25.3694C60.499 25.3694 60.499 25.3694 60.499 25.7867C60.499 25.7867 60.499 25.7866 60.499 26.2039C60.499 26.6211 60.499 26.2039 60.499 26.6211C60.499 26.6211 60.499 26.6211 60.499 27.0384C60.499 27.0384 60.499 27.0384 60.499 27.4556C60.499 27.4556 60.499 27.4556 60.9158 27.4556C60.9158 27.4556 60.9158 27.4556 61.3327 27.4556C61.3327 27.4556 61.3327 27.4556 61.7495 27.4556C62.1663 27.4556 62.5832 27.4556 62.5832 27.0384C62.5832 27.0384 62.5832 27.0384 62.5832 26.6211C62.5832 26.6211 62.5832 26.6211 62.5832 26.2039C62.5832 26.2039 62.5832 26.2039 62.5832 25.7867C62.5832 25.3694 63 25.7866 63 25.3694Z" fill="#CFEDFE"/>
</svg>
