<svg width="264" height="45" viewBox="0 0 264 45" fill="none" xmlns="http://www.w3.org/2000/svg">
<path d="M96.0251 9.2173C96.0251 5.77801 94.3742 5.50287 92.1731 5.50287H84.3315C82.1303 5.50287 80.617 5.77801 80.617 9.35487V14.5826C80.617 18.0219 82.1303 18.4346 84.3315 18.4346H92.1731C94.3742 18.4346 95.8875 18.0219 95.8875 14.5826V9.2173H96.0251ZM92.1731 23.7999H84.3315C78.9662 23.7999 74.1512 22.4242 74.1512 15.1329V8.52944C74.2888 1.37572 79.1038 0 84.4691 0H92.1731C97.4008 0 102.353 1.37572 102.353 8.52944V15.1329C102.353 22.4242 97.6759 23.7999 92.1731 23.7999Z" fill="white"/>
<path d="M125.603 23.8003H116.661L104.967 0.413086H111.983L121.063 18.9853L130.143 0.413086H137.159L125.603 23.8003Z" fill="white"/>
<path d="M161.372 9.2173C161.372 5.77801 159.721 5.36529 157.657 5.36529H149.816C147.614 5.36529 146.101 5.64044 146.101 9.2173V14.445C146.101 17.8843 147.614 18.297 149.816 18.297H157.657C159.858 18.297 161.372 17.8843 161.372 14.445V9.2173ZM157.657 23.7999H149.816C144.45 23.7999 139.635 22.4242 139.635 15.1329V8.52944C139.635 1.23814 144.45 0 149.816 0H157.657C162.885 0 167.837 1.37572 167.837 8.52944V15.1329C167.837 22.4242 163.022 23.7999 157.657 23.7999Z" fill="white"/>
<path d="M191.5 9.49282C191.5 6.46624 190.537 5.77838 188.336 5.77838H177.467V18.2974H188.336C190.674 18.2974 191.5 16.7841 191.5 14.3078V9.49282ZM189.299 23.8003H171.139V0.413086H188.473C194.939 0.413086 197.966 2.88938 197.966 9.49282V14.4454C197.966 20.7737 195.902 23.8003 189.299 23.8003Z" fill="white"/>
<path d="M222.728 9.2173C222.728 5.77801 221.078 5.36529 219.014 5.36529H211.172C208.971 5.36529 207.458 5.64044 207.458 9.2173V14.445C207.458 17.8843 208.971 18.297 211.172 18.297H219.014C221.215 18.297 222.728 17.8843 222.728 14.445V9.2173ZM219.014 23.7999H211.172C205.807 23.7999 200.992 22.4242 200.992 15.1329V8.52944C200.992 1.23814 205.807 0 211.172 0H219.014C224.242 0 229.194 1.37572 229.194 8.52944V15.1329C229.194 22.4242 224.517 23.7999 219.014 23.7999Z" fill="white"/>
<path d="M252.444 23.8001H243.502L231.808 0.275391H238.824L247.904 18.8476L256.984 0.275391H264L252.444 23.8001Z" fill="white"/>
<path d="M80.4794 41.2712H77.4528C74.7014 41.2712 74.4262 40.1706 74.4262 37.6943C74.4262 35.4932 74.8389 34.3926 77.1776 34.3926H80.2042C81.8551 34.3926 83.0932 34.5301 83.0932 36.4562V36.5937H82.1302V36.3186C82.1302 35.0804 81.4424 35.0804 80.3418 35.0804H77.3152C75.5268 35.0804 75.5268 35.6307 75.5268 37.8319C75.5268 39.7579 75.5268 40.3082 77.5904 40.3082H80.4794C81.7175 40.3082 82.2678 40.1706 82.2678 38.9324V38.6573H83.2308V39.07C83.2308 41.1336 81.9927 41.2712 80.4794 41.2712Z" fill="white"/>
<path d="M88.8713 41.2713C88.321 42.2343 87.2205 44.1603 85.0193 44.1603V43.1973C85.9823 43.1973 87.2205 42.2343 87.7707 41.2713H87.4956L83.9187 34.5303H85.0193L88.1835 40.4459L91.3476 34.5303H92.4482L88.8713 41.2713Z" fill="white"/>
<path d="M99.1892 35.356H96.3002C94.5118 35.356 94.3742 36.0439 94.3742 37.9699C94.3742 40.171 94.7869 40.5838 96.3002 40.5838H99.1892C100.978 40.5838 100.978 39.7583 100.978 37.9699C100.978 35.7688 100.702 35.356 99.1892 35.356ZM99.4643 41.2716H96.5753C95.6123 41.2716 94.7869 41.134 94.3742 40.3086V41.2716H93.4112V31.6416H94.3742V35.356C94.6493 34.5306 95.7499 34.393 96.5753 34.393H99.4643C101.803 34.393 102.078 35.7688 102.078 37.8323C102.078 40.0335 101.803 41.2716 99.4643 41.2716Z" fill="white"/>
<path d="M109.094 35.218H106.205C104.417 35.218 104.279 35.6307 104.279 37.2816H110.883C110.883 35.3556 110.608 35.218 109.094 35.218ZM109.094 41.2712H106.205C103.591 41.2712 103.179 40.4457 103.179 37.8319C103.179 35.0804 103.729 34.3926 106.205 34.3926H109.094C111.296 34.3926 111.983 34.9429 111.983 37.4192V38.107H104.279C104.279 40.1706 104.417 40.4457 106.205 40.4457H109.094C110.47 40.4457 110.883 40.3082 110.883 39.3452V39.07H111.983V39.3452C111.983 41.2712 110.608 41.2712 109.094 41.2712Z" fill="white"/>
<path d="M120.1 36.8689V36.4562C120.1 35.6307 119.825 35.3556 118.999 35.3556H116.11C114.872 35.3556 114.46 35.9059 114.46 37.144V41.2712H113.497V34.5302H114.46V35.3556C114.872 34.6677 115.56 34.3926 116.386 34.3926H119.275C120.513 34.3926 121.201 35.0804 121.201 36.3186V36.8689H120.1Z" fill="white"/>
<path d="M127.942 41.2712H124.915C123.402 41.2712 121.888 41.1336 121.888 39.7579V39.07H122.989V39.6203C122.989 40.3082 123.402 40.4457 124.915 40.4457H127.942C128.63 40.4457 129.73 40.5833 129.73 39.3452C129.73 38.5197 129.455 38.3822 128.905 38.2446C128.217 38.2446 124.227 38.107 123.402 37.9694C122.576 37.8319 122.026 37.5567 122.026 36.3186C122.026 34.3926 123.127 34.3926 124.915 34.3926H127.942C129.18 34.3926 130.556 34.3926 130.556 35.9059V36.181H129.455V35.9059C129.455 35.218 128.905 35.0804 127.942 35.0804H124.915C123.677 35.0804 122.989 35.0804 122.989 36.0434C122.989 36.8689 123.127 37.144 123.677 37.144C124.502 37.2816 127.116 37.2816 128.492 37.2816C129.73 37.2816 130.693 37.4192 130.693 39.2076C130.831 41.2712 129.455 41.2712 127.942 41.2712Z" fill="white"/>
<path d="M137.847 35.218H134.958C133.169 35.218 133.032 35.6307 133.032 37.2816H139.635C139.635 35.3556 139.36 35.218 137.847 35.218ZM137.847 41.2712H134.958C132.344 41.2712 131.931 40.4457 131.931 37.8319C131.931 35.0804 132.481 34.3926 134.958 34.3926H137.847C140.048 34.3926 140.736 34.9429 140.736 37.4192V38.107H133.032C133.032 40.1706 133.169 40.4457 134.958 40.4457H137.847C139.223 40.4457 139.635 40.3082 139.635 39.3452V39.07H140.736V39.3452C140.736 41.2712 139.36 41.2712 137.847 41.2712Z" fill="white"/>
<path d="M147.752 41.2712H144.725C141.974 41.2712 141.699 40.1706 141.699 37.6943C141.699 35.4932 142.112 34.3926 144.45 34.3926H147.477C149.128 34.3926 150.366 34.5301 150.366 36.4562V36.5937H149.403V36.3186C149.403 35.0804 148.715 35.0804 147.614 35.0804H144.588C142.799 35.0804 142.799 35.6307 142.799 37.8319C142.799 39.7579 142.937 40.3082 144.863 40.3082H147.752C148.99 40.3082 149.54 40.1706 149.54 38.9324V38.6573H150.503V39.07C150.641 41.1336 149.403 41.2712 147.752 41.2712Z" fill="white"/>
<path d="M159.308 41.2713V40.3083C158.895 41.1337 158.07 41.2713 157.244 41.2713H154.355C152.567 41.2713 152.017 40.5834 152.017 38.795V34.5303H152.98V38.795C152.98 39.8956 153.117 40.4459 154.355 40.4459H157.244C158.62 40.4459 159.446 40.1707 159.446 38.6574V34.5303H160.409V41.2713H159.308Z" fill="white"/>
<path d="M168.388 36.8689V36.4562C168.388 35.6307 168.113 35.3556 167.287 35.3556H164.398C163.16 35.3556 162.747 35.9059 162.747 37.144V41.2712H161.784V34.5302H162.747V35.3556C163.16 34.6677 163.848 34.3926 164.673 34.3926H167.562C168.8 34.3926 169.488 35.0804 169.488 36.3186V36.8689H168.388Z" fill="white"/>
<path d="M170.726 41.2716V34.5306H171.689V41.2716H170.726ZM170.726 32.7422V31.6416H171.689V32.7422H170.726Z" fill="white"/>
<path d="M178.568 41.2716H175.679C174.166 41.2716 173.753 40.8589 173.753 39.2081V35.2185H172.79V34.393H173.753V32.7422H174.716V34.393H179.806V35.2185H174.716V39.4832C174.716 40.1711 174.991 40.3086 175.679 40.3086H178.568C179.531 40.3086 179.531 39.7583 179.531 39.2081V38.6578H180.494V39.2081C180.494 40.7213 179.944 41.2716 178.568 41.2716Z" fill="white"/>
<path d="M185.997 41.2713C185.447 42.2343 184.346 44.1603 182.145 44.1603V43.1973C183.108 43.1973 184.346 42.2343 184.896 41.2713H184.621L181.044 34.5303H182.145L185.309 40.4459L188.473 34.5303H189.574L185.997 41.2713Z" fill="white"/>
<path d="M13.0693 43.1972H23.3871C23.3871 43.1972 26.001 43.1972 28.0646 42.7845C29.4403 42.5093 30.6784 41.5463 31.9166 40.5833C32.3293 40.1706 32.8796 39.8954 33.2923 39.6203C35.631 38.107 38.3825 38.2446 38.7952 38.3822H42.0969C41.6842 38.7949 41.409 39.07 40.9963 39.4827H38.6576C38.6576 39.4827 36.0437 39.2076 33.8426 40.5833C33.4299 40.8585 33.0172 41.1336 32.6045 41.5463C31.3663 42.5093 29.9906 43.6099 28.3397 43.885C26.1386 44.1602 23.3871 44.1602 23.3871 44.1602H15.408C14.5826 43.885 13.7571 43.4723 13.0693 43.1972Z" fill="white"/>
<path d="M6.05316 37.6945H21.3236C21.3236 37.6945 23.9375 37.6945 26.0011 37.2817C27.3768 37.0066 28.6149 36.0436 29.8531 35.0806C30.2658 34.6679 30.8161 34.3927 31.2288 34.1176C32.8796 32.7419 36.4565 32.7419 36.7316 32.8795H46.0865C45.9489 33.2922 45.6738 33.5673 45.5362 33.8425H36.7316C36.7316 33.8425 33.2924 33.7049 31.9166 34.943C31.5039 35.2182 31.0912 35.4933 30.6785 35.906C29.4403 36.869 28.0646 37.9696 26.4138 38.2447C24.3502 38.6575 21.5988 38.6575 21.5988 38.6575H7.01616C6.74102 38.3823 6.3283 37.9696 6.05316 37.6945Z" fill="white"/>
<path d="M2.33875 32.1913H19.2601C19.2601 32.1913 21.8739 32.1913 23.9375 31.7786C25.3132 31.5035 26.5514 30.5405 27.7895 29.5774C28.2022 29.1647 28.7525 28.8896 29.1652 28.6144C31.2288 27.1012 34.2554 27.2387 34.6681 27.3763H48.1501C48.0125 27.789 48.0125 28.0642 47.875 28.4769H34.6681C34.6681 28.4769 31.6415 28.2017 29.8531 29.5774C29.4404 29.8526 29.0276 30.1277 28.6149 30.5405C27.3768 31.5035 26.0011 32.604 24.3502 32.8792C22.0115 33.2919 19.2601 33.2919 19.2601 33.2919H2.88903C2.75146 32.8792 2.61389 32.604 2.33875 32.1913Z" fill="white"/>
<path d="M0.550293 26.6889H17.1965C17.1965 26.6889 19.8103 26.6889 21.8739 26.2762C23.2496 26.0011 24.4878 25.0381 25.7259 24.0751C26.1386 23.6624 26.6889 23.3872 27.1016 23.1121C28.8901 21.7364 32.1918 21.8739 32.6045 21.8739H48.8379C48.8379 22.2867 48.8379 22.5618 48.8379 22.9745H32.6045C32.6045 22.9745 29.4403 22.8369 27.7895 24.0751C27.3768 24.3502 26.9641 24.6254 26.5513 25.0381C25.3132 26.0011 23.9375 27.1017 22.2866 27.3768C20.223 27.7895 17.4716 27.7895 17.4716 27.7895H0.687865C0.687865 27.3768 0.550293 27.1017 0.550293 26.6889Z" fill="white"/>
<path d="M0 21.1864H15.1329C15.1329 21.1864 17.7467 21.1864 19.8103 20.7737C21.186 20.4986 22.4242 19.5356 23.6623 18.5726C24.075 18.1599 24.6253 17.8847 25.038 17.6096C27.1016 16.0963 30.1282 16.2338 30.5409 16.3714H48.4252C48.5628 16.7841 48.5628 17.0593 48.5628 17.472H30.5409C30.5409 17.472 27.5143 17.1968 25.7259 18.5726C25.3132 18.8477 24.9005 19.1229 24.4878 19.5356C23.2496 20.4986 21.8739 21.5991 20.223 21.8743C17.8843 22.287 15.1329 22.287 15.1329 22.287H0C0 22.0119 0 21.7367 0 21.4616C0 21.4616 0 21.324 0 21.1864Z" fill="white"/>
<path d="M0.687863 15.8208H13.0693C13.0693 15.8208 15.6832 15.8208 17.7467 15.4081C19.1225 15.1329 20.3606 14.1699 21.5988 13.2069C22.0115 12.7942 22.5618 12.5191 22.9745 12.2439C25.038 10.8682 28.0646 11.0058 28.4773 11.0058H46.4992C46.6368 11.4185 46.7744 11.6936 46.9119 12.1063H28.3398C28.3398 12.1063 25.4508 11.9688 23.5248 13.2069C23.112 13.4821 22.6993 13.7572 22.2866 14.1699C21.0485 15.1329 19.6728 16.2335 18.0219 16.5086C15.9583 16.9214 13.2069 16.9214 13.2069 16.9214H0.41272C0.41272 16.5086 0.550291 16.0959 0.687863 15.8208Z" fill="white"/>
<path d="M2.61383 10.3179H10.8681C10.8681 10.3179 13.482 10.3179 15.5456 9.90514C16.9213 9.62999 18.1594 8.66699 19.3976 7.70399C19.8103 7.29128 20.3606 7.01613 20.7733 6.74099C22.6993 5.36527 25.8634 5.50284 26.2762 5.50284H42.7847C43.0599 5.77799 43.335 6.1907 43.6102 6.60342L26.1386 6.46585C26.1386 6.46585 23.112 6.32827 21.3236 7.56642C20.9109 7.84156 20.4981 8.11671 20.0854 8.52942C18.8473 9.49242 17.4716 10.593 15.8207 10.8681C13.7571 11.2809 11.0057 11.2809 11.0057 11.2809H2.20111C2.33868 11.0057 2.47625 10.593 2.61383 10.3179Z" fill="white"/>
<path d="M6.60338 4.81505H8.9421C8.9421 4.81505 11.556 4.81505 13.6195 4.40233C14.9953 4.12719 16.2334 3.16419 17.334 2.33876C17.7467 1.92604 18.297 1.6509 18.7097 1.37576C20.4981 3.88622e-05 23.9374 0.13761 24.2126 0.13761H35.9061C36.4564 0.412754 37.1443 0.825469 37.6946 1.23818H24.2126C24.2126 1.23818 20.9108 1.10061 19.3975 2.33876C18.9848 2.6139 18.5721 2.88904 18.1594 3.30176C16.6461 4.12719 15.408 5.09019 13.7571 5.5029C11.6935 5.91562 8.9421 5.91562 8.9421 5.91562H5.64038C5.91552 5.50291 6.19067 5.09019 6.60338 4.81505Z" fill="white"/>
</svg>
