<svg width="259" height="126" viewBox="0 0 259 126" fill="none" xmlns="http://www.w3.org/2000/svg">
<path d="M246.973 125.536H21.6574C16.5696 125.536 11.4818 122.628 9.30132 118.267C2.03307 106.638 -2.32788 90.6479 1.30624 79.0187C4.94037 65.209 16.5696 53.5798 30.3793 49.9457C28.1988 28.141 44.9158 6.33619 66.7205 1.24841C88.5253 -3.83937 111.784 7.06302 123.413 25.9605C125.593 29.5946 127.774 33.2287 131.408 33.9556C135.042 34.6824 138.676 33.2287 142.31 31.7751C156.847 25.2337 175.018 26.6873 188.827 34.6824C202.637 43.4043 212.086 58.6676 212.812 74.6578C224.442 69.57 238.978 71.7505 248.427 80.4724C257.876 89.1943 261.51 103.731 257.149 115.36C257.876 116.087 255.695 125.536 246.973 125.536Z" fill="#6F95D4"/>
<path d="M152 77C152 93.1111 139.111 106 123 106C106.889 106 94 93.1111 94 77C94 60.8889 106.889 48 123 48C139.111 48 152 60.8889 152 77Z" fill="#E94552"/>
<path d="M121.926 58.2039L139.648 80.2224H129.444V95.7964H114.407V80.7594H104.204L121.926 58.2039Z" fill="white"/>
</svg>
