<svg width="572" height="612" viewBox="0 0 572 612" fill="none" xmlns="http://www.w3.org/2000/svg">
<g opacity="0.75">
<g opacity="0.75">
<path opacity="0.75" d="M270.262 580.857C268.208 580.857 266.565 582.498 266.565 584.549C266.565 586.6 268.208 588.241 270.262 588.241C272.316 588.241 273.959 586.6 273.959 584.549C273.959 582.498 272.316 580.857 270.262 580.857Z" fill="#D7E2F4"/>
<g opacity="0.75">
<path opacity="0.75" d="M102.272 573.884L106.79 566.09L111.719 557.886H102.272H92.8255L97.7543 566.09L102.272 573.884Z" fill="#D7E2F4"/>
</g>
<path opacity="0.75" d="M13.9649 481.177C11.9112 481.177 10.2683 482.817 10.2683 484.868C10.2683 486.919 11.9112 488.56 13.9649 488.56C16.0186 488.56 17.6615 486.919 17.6615 484.868C17.6615 482.817 16.0186 481.177 13.9649 481.177Z" fill="#D7E2F4"/>
<g opacity="0.75">
<path opacity="0.75" d="M87.486 234.64C87.486 243.255 80.5036 250.638 71.8782 250.638C63.2528 250.638 56.2704 243.665 56.2704 234.64C56.2704 226.026 63.2528 218.642 71.8782 218.642C80.5036 218.642 87.486 226.026 87.486 234.64ZM57.0918 234.64C57.0918 242.844 63.6636 249.818 71.8782 249.818C80.0929 249.818 86.6646 243.255 86.6646 234.64C86.6646 226.436 80.0929 219.463 71.8782 219.463C63.6636 219.873 57.0918 226.436 57.0918 234.64Z" fill="#D7E2F4"/>
<path opacity="0.75" d="M210.706 542.708C203.723 542.708 198.384 536.965 198.384 530.402C198.384 523.428 203.723 518.095 210.706 518.095C217.688 518.095 223.028 523.838 223.028 530.402C223.028 536.965 217.688 542.708 210.706 542.708ZM210.706 519.736C204.956 519.736 200.437 524.248 200.437 529.991C200.437 535.734 204.956 540.247 210.706 540.247C216.456 540.247 220.974 535.734 220.974 529.991C220.974 524.248 216.456 519.736 210.706 519.736Z" fill="#D7E2F4"/>
<path opacity="0.75" d="M85.0216 192.799C85.0216 189.517 87.486 187.056 90.3611 187.056C93.2363 187.056 95.7006 189.517 95.7006 192.799C95.7006 196.081 93.2363 198.542 90.3611 198.542C87.486 198.542 85.0216 196.081 85.0216 192.799Z" fill="#D7E2F4"/>
<path opacity="0.75" d="M57.0918 77.9399C57.0918 81.2216 54.6274 83.6828 51.7523 83.6828C51.3416 83.6828 50.9308 83.6828 50.5201 83.6828V167.776L70.646 185.005V153.419C69.0031 153.008 68.1816 151.368 68.1816 149.727C68.1816 147.676 69.8245 146.035 71.8782 146.035C73.9318 146.035 75.5748 147.676 75.5748 149.727C75.5748 151.368 74.3426 152.598 73.1104 153.419V211.668C85.4323 212.079 95.2899 222.744 95.2899 235.05C95.2899 247.767 85.4323 258.022 73.1104 258.432V283.455L102.683 313.401V365.907C105.147 366.318 107.201 368.779 107.201 371.24C107.201 374.112 105.147 376.163 102.683 376.573V400.775L123.63 379.855V315.041C121.988 314.631 121.166 312.99 121.166 311.35C121.166 309.298 122.809 307.658 124.863 307.658C126.916 307.658 128.559 309.298 128.559 311.35C128.559 312.99 127.327 314.221 126.095 315.041V380.675L103.094 404.057V423.747C115.005 424.157 126.506 427.849 135.952 434.002L158.132 411.851L159.775 413.492L143.346 384.367L160.186 354.832H193.866L210.706 384.367L193.866 413.902H160.186V413.492L138.417 435.643C153.203 446.719 163.061 464.358 163.471 484.048H174.561L185.24 465.178H193.866L210.706 448.36H180.722L173.74 455.333L172.097 453.692L179.49 445.898H210.706L226.724 429.49H267.387L280.941 415.543C280.53 415.133 280.53 414.312 280.53 413.902C280.53 411.851 282.173 410.21 284.227 410.21C286.28 410.21 287.923 411.851 287.923 413.902C287.923 415.953 286.28 417.594 284.227 417.594C283.816 417.594 282.995 417.594 282.584 417.184L268.208 431.541H227.546L194.687 464.768H204.955L231.242 438.104H296.96V440.566H232.885L207.42 466.409L217.688 484.048H241.1L267.387 510.712H292.441C292.852 508.25 295.317 506.199 297.781 506.199C300.245 506.199 302.71 508.25 303.121 510.712H330.64C331.05 509.071 332.283 508.25 333.925 508.25C335.979 508.25 337.622 509.891 337.622 511.942C337.622 513.993 335.979 515.634 333.925 515.634C332.283 515.634 331.05 514.404 330.64 513.173H303.121C302.71 515.634 300.245 517.685 297.781 517.685C295.317 517.685 292.852 515.634 292.441 513.173H266.565L240.278 486.509H217.688L207.009 505.379H184.008L176.615 492.662H153.203C151.56 503.738 146.631 513.583 139.649 521.377L149.507 531.222V572.653C151.15 573.064 152.382 574.704 152.382 576.345C152.382 578.396 150.739 580.037 148.685 580.037C146.631 580.037 144.989 578.396 144.989 576.345C144.989 574.704 145.81 573.474 147.042 573.064V532.453L138.006 523.428C128.559 532.863 115.416 539.016 101.04 539.016C86.6645 539.016 73.5211 533.273 64.0743 523.428L59.9669 527.53C70.646 538.196 85.0216 544.759 101.04 544.759V547.22C84.6109 547.22 69.4138 540.247 58.324 529.581L8.21465 579.627C8.62538 580.037 8.62538 580.858 8.62538 581.268C8.62538 583.319 6.98245 584.96 4.92879 584.96C2.87513 584.96 1.2322 583.319 1.2322 581.268C1.2322 579.217 2.87513 577.576 4.92879 577.576C5.33952 577.576 6.16099 577.576 6.57172 577.986L57.0918 527.12C46.8235 516.044 40.6625 501.277 40.6625 485.279H43.1269C43.1269 500.867 49.2879 515.224 58.7347 525.479L62.8421 521.377C54.2167 511.942 48.8772 499.226 48.8772 485.279C48.8772 470.921 54.6274 458.205 63.6635 448.36L45.1806 429.49V397.083L5.33952 356.883C4.51806 356.883 4.10732 356.883 3.69659 356.883C1.64293 356.883 0 355.242 0 353.191C0 351.14 1.64293 349.499 3.69659 349.499C5.75025 349.499 7.39318 351.14 7.39318 353.191C7.39318 354.011 6.98245 354.832 6.57172 355.242L44.3591 393.392V383.957L4.92879 343.756C4.51806 343.756 4.10732 344.166 3.69659 344.166C1.64293 344.166 0 342.525 0 340.474C0 338.423 1.64293 336.783 3.69659 336.783C5.75025 336.783 7.39318 338.423 7.39318 340.474C7.39318 341.295 6.98245 342.115 6.98245 342.525L44.7698 380.675V333.911C43.1269 333.501 42.3054 331.86 42.3054 330.219C42.3054 328.168 43.9484 326.527 46.002 326.527C48.0557 326.527 49.6986 328.168 49.6986 330.219C49.6986 331.86 48.4664 333.091 47.2342 333.911V383.136V395.443V427.439L65.3064 445.488C74.7533 436.464 87.486 430.721 101.862 430.721C130.613 430.721 154.025 454.103 154.435 482.817H160.186C159.775 450.821 133.488 424.978 101.862 424.978H100.629V375.752C98.165 375.342 96.1114 372.881 96.1114 370.42C96.1114 367.548 98.165 365.497 100.629 365.087V314.221L71.0567 284.276V258.432C58.7347 258.022 48.8772 247.357 48.8772 235.05C48.8772 222.334 58.7347 212.079 71.0567 211.668V187.876L48.8772 169.007V82.8624C47.645 82.042 46.8235 80.4012 46.8235 78.3501C46.8235 75.0684 49.2879 72.6072 52.163 72.6072C54.6274 72.6072 57.0918 75.0684 57.0918 77.9399ZM190.991 411.441L206.598 384.367L190.991 356.883H160.186L144.578 383.957L160.186 411.031L190.991 411.441ZM205.366 502.918L215.635 484.868L205.366 466.819H184.83L174.561 484.868L184.83 502.918H205.366ZM175.383 490.201L172.918 486.099H154.025C154.025 487.33 154.025 488.971 153.614 490.201H175.383ZM100.629 486.099L69.8245 454.923C62.4313 462.717 57.9133 473.383 57.9133 484.868C57.9133 508.661 77.2177 528.351 100.629 528.351C124.041 528.351 142.935 509.481 143.346 486.099H100.629ZM101.862 483.638H144.167C143.756 460.256 124.452 441.386 101.451 441.386C89.9504 441.386 79.6821 445.898 71.8782 453.282L101.862 483.638ZM50.9308 484.868C50.9308 513.173 73.5211 535.734 101.451 535.734C128.97 535.734 151.15 513.583 151.971 486.099H145.399C144.989 509.891 125.273 529.171 101.862 529.171C77.6284 529.171 57.9133 509.481 57.9133 484.868C57.9133 472.972 62.4313 462.307 69.8245 454.513L65.3064 450.001C56.2703 459.025 50.9308 471.331 50.9308 484.868ZM101.04 434.002C87.486 434.002 75.164 439.335 66.1279 448.36L70.646 452.872C78.4499 445.488 89.1289 440.566 100.629 440.566C124.452 440.566 143.756 459.846 144.167 483.638H150.739C150.739 456.154 128.559 434.002 101.04 434.002ZM50.9308 234.64C50.9308 246.536 60.3777 255.971 71.8782 255.971C83.3787 255.971 92.8255 246.536 92.8255 234.64C92.8255 222.744 83.3787 213.309 71.8782 213.309C60.3777 213.309 50.9308 223.154 50.9308 234.64Z" fill="#D7E2F4"/>
<path opacity="0.75" d="M265.744 468.87C265.744 472.152 263.279 474.613 260.404 474.613C257.529 474.613 255.065 472.152 255.065 468.87C255.065 465.589 257.529 463.127 260.404 463.127C262.869 463.538 265.744 465.999 265.744 468.87Z" fill="#D7E2F4"/>
<path opacity="0.75" d="M248.493 468.87C248.493 472.152 246.029 474.613 243.154 474.613C240.278 474.613 237.814 472.152 237.814 468.87C237.814 465.589 240.278 463.127 243.154 463.127C246.029 463.538 248.493 465.999 248.493 468.87Z" fill="#D7E2F4"/>
<path opacity="0.75" d="M178.669 342.526C178.669 339.244 181.133 336.783 184.008 336.783C186.883 336.783 189.348 339.244 189.348 342.526C189.348 345.807 186.883 348.269 184.008 348.269C181.133 347.858 178.669 345.397 178.669 342.526Z" fill="#D7E2F4"/>
<path opacity="0.75" d="M172.918 342.526C172.918 345.807 170.454 348.269 167.579 348.269C164.704 348.269 162.239 345.807 162.239 342.526C162.239 339.244 164.704 336.783 167.579 336.783C170.454 336.783 172.918 339.244 172.918 342.526Z" fill="#D7E2F4"/>
<path opacity="0.75" d="M210.706 533.684C208.652 533.684 207.009 532.043 207.009 529.992C207.009 527.941 208.652 526.3 210.706 526.3C212.759 526.3 214.402 527.941 214.402 529.992C214.402 532.043 212.759 533.684 210.706 533.684Z" fill="#D7E2F4"/>
<path opacity="0.75" d="M26.2868 484.868C26.2868 491.842 20.9473 497.175 13.9649 497.175C6.9824 497.175 1.64288 491.432 1.64288 484.868C1.64288 477.895 6.9824 472.562 13.9649 472.562C20.5366 472.562 26.2868 477.895 26.2868 484.868ZM3.69655 484.868C3.69655 490.611 8.2146 495.124 13.9649 495.124C19.7151 495.124 24.2332 490.611 24.2332 484.868C24.2332 479.125 19.7151 474.613 13.9649 474.613C8.2146 474.613 3.69655 479.125 3.69655 484.868Z" fill="#D7E2F4"/>
<path opacity="0.75" d="M270.262 571.833C277.244 571.833 282.584 577.576 282.584 584.139C282.584 591.113 277.244 596.445 270.262 596.445C263.279 596.445 257.94 590.702 257.94 584.139C257.94 577.576 263.279 571.833 270.262 571.833ZM259.994 584.549C259.994 590.292 264.512 594.805 270.262 594.805C276.012 594.805 280.53 590.292 280.53 584.549C280.53 578.806 276.012 574.294 270.262 574.294C264.512 574.294 259.994 578.806 259.994 584.549Z" fill="#D7E2F4"/>
<path opacity="0.75" d="M36.1445 294.941C36.1445 301.915 30.805 307.247 23.8225 307.247C16.8401 307.247 11.5005 301.504 11.5005 294.941C11.5005 287.968 16.8401 282.635 23.8225 282.635C30.3942 282.635 36.1445 287.968 36.1445 294.941ZM13.5542 294.941C13.5542 300.684 18.0723 305.196 23.8225 305.196C29.5728 305.196 34.0908 300.684 34.0908 294.941C34.0908 289.198 29.5728 284.686 23.8225 284.686C18.0723 284.686 13.5542 289.198 13.5542 294.941Z" fill="#D7E2F4"/>
<path opacity="0.75" d="M27.519 294.941C27.519 296.992 25.8761 298.633 23.8224 298.633C21.7688 298.633 20.1259 296.992 20.1259 294.941C20.1259 292.89 21.7688 291.249 23.8224 291.249C25.8761 291.249 27.519 292.89 27.519 294.941Z" fill="#D7E2F4"/>
<path opacity="0.75" d="M176.615 529.992C176.615 527.941 178.258 526.3 180.312 526.3C182.365 526.3 184.008 527.941 184.008 529.992C184.008 532.043 182.365 533.684 180.312 533.684C178.258 533.684 176.615 532.043 176.615 529.992Z" fill="#D7E2F4"/>
<path opacity="0.75" d="M59.1454 283.045C59.1454 283.455 59.1454 284.276 58.7347 284.686L91.5933 317.913V423.337H89.1289V380.265L70.2352 360.985V326.527H72.6996V360.164L89.5396 376.983V319.143L57.0918 286.327C56.681 286.737 55.8596 286.737 55.4488 286.737C53.3952 286.737 51.7523 285.096 51.7523 283.045C51.7523 280.994 53.3952 279.353 55.4488 279.353C57.5025 279.353 59.1454 280.994 59.1454 283.045Z" fill="#D7E2F4"/>
<path opacity="0.75" d="M334.336 597.676C334.336 597.266 334.336 596.446 334.747 596.035L290.799 551.322L292.441 549.682L336.39 594.395C336.801 593.984 337.622 593.984 338.033 593.984C340.086 593.984 341.729 595.625 341.729 597.676C341.729 599.727 340.086 601.368 338.033 601.368C335.979 601.368 334.336 599.727 334.336 597.676Z" fill="#D7E2F4"/>
<path opacity="0.75" d="M392.249 551.733H351.587L322.425 522.197H260.815L231.653 492.662L233.296 491.021L262.047 520.146H412.786L423.465 501.277H446.466L457.145 520.146H559.418V522.608H457.145L453.859 528.761H512.183C512.594 527.12 513.826 526.3 515.469 526.3C517.523 526.3 519.166 527.94 519.166 529.991C519.166 532.042 517.523 533.683 515.469 533.683C513.826 533.683 512.594 532.453 512.183 531.222H452.627L446.466 541.888H423.465L412.786 523.018H326.122L352.819 550.092H392.249C392.66 548.861 394.303 547.63 395.535 547.63C397.589 547.63 399.232 549.271 399.232 551.322C399.232 553.373 397.589 555.014 395.535 555.014C394.303 554.604 392.66 553.373 392.249 551.733ZM445.645 539.016L451.395 528.761V528.351H451.806L455.913 520.967L445.645 502.918H425.108L414.84 520.967L425.108 539.016H445.645Z" fill="#D7E2F4"/>
<path opacity="0.75" d="M369.659 502.508L375.409 505.789L370.07 509.071L364.32 512.353V505.789L363.909 499.226L369.659 502.508Z" fill="#D7E2F4"/>
<path opacity="0.75" d="M90.3611 169.417L93.647 174.75L96.9328 180.493H90.3611L84.2001 180.903L87.0753 175.16L90.3611 169.417Z" fill="#D7E2F4"/>
<path opacity="0.75" d="M214.402 353.601L217.688 358.934L220.974 364.677H214.402L207.831 365.087L211.116 359.344L214.402 353.601Z" fill="#D7E2F4"/>
<path opacity="0.75" d="M200.848 570.602H207.009L213.581 570.192L210.706 575.935L207.42 581.678L204.134 576.345L200.848 570.602Z" fill="#D7E2F4"/>
<path opacity="0.75" d="M170.043 434.412L164.704 438.104L158.953 441.386V434.823L158.543 428.259L164.293 431.541L170.043 434.412Z" fill="#D7E2F4"/>
<path opacity="0.75" d="M412.375 441.796L418.126 444.668L423.876 447.95L418.536 451.231L412.786 454.923V448.36L412.375 441.796Z" fill="#D7E2F4"/>
<path opacity="0.75" d="M560.239 514.814L565.989 517.685L571.739 520.967L565.989 524.249L560.65 527.941V521.377L560.239 514.814Z" fill="#D7E2F4"/>
<path opacity="0.75" d="M354.462 509.071L348.712 512.353V505.789V499.226L354.462 502.508L359.802 505.789L354.462 509.071Z" fill="#D7E2F4"/>
<path opacity="0.75" d="M427.572 507.43H443.18L450.984 521.377L443.18 535.324H427.572L419.768 521.377L427.572 507.43ZM442.77 534.094L450.163 521.377L442.77 508.661H427.983L420.59 521.377L427.983 534.094H442.77Z" fill="#D7E2F4"/>
<path opacity="0.75" d="M162.239 361.395L188.526 360.985L201.67 383.957L188.937 406.929V407.339H162.65L149.507 384.367L162.239 361.395ZM188.115 406.108L200.848 383.957L188.115 361.806H163.061L150.328 383.957L163.061 406.108H188.115Z" fill="#D7E2F4"/>
<path opacity="0.75" d="M38.1981 462.307H28.7512L23.8224 454.103L28.7512 445.488H38.1981L42.7161 454.103L38.1981 462.307Z" fill="#D7E2F4"/>
<path opacity="0.75" d="M239.868 388.879H246.029L248.904 393.802L246.029 399.134H239.868L236.993 393.802L239.868 388.879Z" fill="#D7E2F4"/>
<path opacity="0.75" d="M118.702 212.079H126.916L131.024 219.052L126.916 226.436H118.702L114.594 219.052L118.702 212.079Z" fill="#D7E2F4"/>
<path opacity="0.75" d="M203.723 470.101L211.938 484.868L203.723 499.636H186.883L178.669 484.868L186.883 470.101H203.723ZM187.294 470.921L179.49 484.868L187.294 498.816H202.902L210.706 484.868L202.902 470.921H187.294Z" fill="#D7E2F4"/>
<path opacity="0.75" d="M232.885 447.129H336.801C337.211 445.488 338.443 444.668 340.086 444.668C342.14 444.668 343.783 446.309 343.783 448.36C343.783 450.411 342.14 452.052 340.086 452.052C338.443 452.052 337.211 450.821 336.801 449.59H232.885V447.129Z" fill="#D7E2F4"/>
<path opacity="0.75" d="M78.4499 116.089L81.325 121.012L84.2001 125.934H78.4499H72.6996L75.5748 121.012L78.4499 116.089Z" fill="#D7E2F4"/>
<path opacity="0.75" d="M225.492 496.354L312.978 584.96C313.389 584.55 314.21 584.55 315.032 584.55C317.085 584.55 318.728 586.19 318.728 588.242C318.728 590.293 317.085 591.933 315.032 591.933C312.978 591.933 311.335 590.293 311.335 588.242C311.335 587.831 311.335 587.421 311.746 587.011L245.618 520.147V543.118L262.458 559.937L260.815 561.578L243.564 543.939V517.685L224.26 498.406L225.492 496.354Z" fill="#D7E2F4"/>
<path opacity="0.75" d="M66.9494 405.288H60.3777L63.6635 399.545L66.5387 393.802L70.2353 399.545L73.5211 405.288H66.9494Z" fill="#D7E2F4"/>
<path opacity="0.75" d="M66.9494 420.876L60.3777 421.286L63.6635 415.543L66.5387 409.8L70.2353 415.133L73.5211 420.876H66.9494Z" fill="#D7E2F4"/>
<path opacity="0.75" d="M13.9649 534.093L8.21467 531.222L2.46442 527.94L7.80394 524.659L13.5542 521.377V527.94L13.9649 534.093Z" fill="#D7E2F4"/>
<path opacity="0.75" d="M29.5728 534.093L23.8225 531.222L18.0723 527.94L23.4118 524.659L29.162 521.377V527.94L29.5728 534.093Z" fill="#D7E2F4"/>
<path opacity="0.75" d="M79.6821 0C82.1465 0.41021 84.2002 2.87147 84.2002 5.33273C84.2002 8.2042 82.1465 10.2553 79.6821 10.6655V74.6582L86.2538 67.6847V34.8679C84.6109 34.4576 83.7894 32.8168 83.7894 31.176C83.7894 29.1249 85.4324 27.4841 87.486 27.4841C89.5397 27.4841 91.1826 29.1249 91.1826 31.176C91.1826 32.8168 89.9504 34.0474 88.7182 34.8679V69.3255L79.6821 78.3501V101.732L97.3436 132.908H59.5562L77.2177 101.732V11.0757C74.7533 10.6655 72.6997 8.2042 72.6997 5.74294C72.6997 2.87147 74.7533 0.82042 77.2177 0.41021L79.6821 0ZM63.6635 130.857H93.647L78.4499 104.604L63.6635 130.857Z" fill="#D7E2F4"/>
<path opacity="0.75" d="M64.485 191.158L62.842 193.209L39.4303 173.519V102.552H41.484V172.288L64.485 191.158Z" fill="#D7E2F4"/>
<path opacity="0.75" d="M179.079 542.298C172.918 541.888 167.99 536.555 167.99 529.992C167.99 523.018 173.329 517.685 180.312 517.685C187.294 517.685 192.633 523.428 192.633 529.992C192.633 536.555 187.705 541.888 181.544 542.298V604.65C182.776 605.06 184.008 606.701 184.008 607.932C184.008 609.983 182.365 611.623 180.312 611.623C178.258 611.623 176.615 609.983 176.615 607.932C176.615 606.291 177.847 604.65 179.079 604.24V542.298ZM190.169 529.992C190.169 524.249 185.651 519.736 179.901 519.736C174.151 519.736 169.632 524.249 169.632 529.992C169.632 535.735 174.151 540.247 179.901 540.247C185.651 540.247 190.169 535.735 190.169 529.992Z" fill="#D7E2F4"/>
<path opacity="0.75" d="M293.263 460.666H302.71L307.639 468.87L302.71 477.485H293.263L288.334 468.87L293.263 460.666Z" fill="#D7E2F4"/>
<path opacity="0.75" d="M52.5737 203.054L48.0556 211.258H38.6088L33.68 203.054L38.6088 194.85H48.0556L52.5737 203.054Z" fill="#D7E2F4"/>
<path opacity="0.75" d="M138.417 284.276H94.8792L116.648 245.716L138.417 284.276ZM116.648 282.225H134.72L116.648 250.638L98.5758 282.225H116.648Z" fill="#D7E2F4"/>
<path opacity="0.75" d="M384.035 448.36L351.176 467.64V429.49L384.035 448.36ZM379.517 448.36L353.641 433.182V463.537L379.517 448.36Z" fill="#D7E2F4"/>
</g>
<path opacity="0.75" d="M71.8782 225.616C66.9494 225.616 62.842 229.718 62.842 234.64C62.842 239.563 66.9494 243.665 71.8782 243.665C76.8069 243.665 80.9143 239.563 80.9143 234.64C80.5035 229.718 76.8069 225.616 71.8782 225.616Z" fill="#D7E2F4"/>
<path opacity="0.75" d="M101.04 469.281C92.4148 469.281 85.4323 476.254 85.4323 484.868C85.4323 493.483 92.4148 500.456 101.04 500.456C109.666 500.456 116.648 493.483 116.648 484.868C116.648 476.254 109.666 469.281 101.04 469.281Z" fill="#D7E2F4"/>
<path opacity="0.75" d="M431.68 514.814L427.983 521.377L431.68 527.941H439.073L443.18 521.377L439.073 514.814H431.68Z" fill="#D7E2F4"/>
<path opacity="0.75" d="M167.99 371.24L160.596 384.367L167.99 397.494H183.187L190.58 384.367L183.187 371.24H167.99Z" fill="#D7E2F4"/>
<path opacity="0.75" d="M191.401 478.305L187.705 484.869L191.401 491.432H198.794L202.491 484.869L198.794 478.305H191.401Z" fill="#D7E2F4"/>
<path opacity="0.75" d="M116.648 264.175L113.362 270.328L110.076 276.071H116.648H123.63L119.934 270.328L116.648 264.175Z" fill="#D7E2F4"/>
<path opacity="0.75" d="M368.016 448.36L363.087 445.488L358.159 442.207V448.36V454.103L363.087 451.231L368.016 448.36Z" fill="#D7E2F4"/>
</g>
</g>
</svg>
