<svg width="358" height="340" viewBox="0 0 358 340" fill="none" xmlns="http://www.w3.org/2000/svg">
<path d="M184.892 218.431L178.587 274.949H251.718L242.184 218.431H184.892Z" fill="url(#paint0_linear_27_1322)"/>
<path d="M57.6467 75.1678V208.355C57.6467 219.317 66.3829 228.266 77.3349 228.557C125.992 229.81 296.172 232.848 342.487 232.165C350.451 232.051 356.895 225.684 357.123 217.722C358.022 186.786 359.466 112.382 354.097 77.8387C352.97 70.5603 346.83 65.1301 339.461 64.8896C298.692 63.5858 118.294 59.4466 71.9919 60.4846C64.0279 60.6618 57.6467 67.1807 57.6467 75.1678Z" fill="url(#paint1_linear_27_1322)"/>
<path d="M66.0157 74.5221V201.051C66.0157 207.443 71.1562 212.659 77.5501 212.76L335.84 215.95C342.183 216.038 347.387 210.937 347.399 204.595L347.83 79.1929C347.842 74.6614 344.234 70.9399 339.701 70.8387L75.2585 65.497C70.194 65.3704 66.0157 69.4463 66.0157 74.5221Z" fill="url(#paint2_linear_27_1322)"/>
<path d="M349.336 221.191L66.0031 216.369C65.7752 216.369 65.5853 216.179 65.5979 215.951C65.5979 215.723 65.7878 215.546 66.0157 215.546L349.349 220.369C349.577 220.369 349.767 220.558 349.754 220.786C349.754 221.001 349.564 221.191 349.336 221.191Z" fill="#91B3FA"/>
<path d="M267.469 286.505H160.443C157.531 286.505 155.354 284.441 155.911 282.213L157.278 276.783C157.696 275.15 159.494 273.948 161.621 273.885L264.797 270.669C267.026 270.606 269.001 271.783 269.482 273.479L271.964 282.125C272.609 284.378 270.419 286.505 267.469 286.505Z" fill="url(#paint3_linear_27_1322)"/>
<path d="M66.0157 74.5221V201.051C66.0157 207.443 71.1562 212.659 77.5501 212.76L335.84 215.95C342.183 216.038 347.387 210.937 347.399 204.595L347.83 79.1929C347.842 74.6614 344.234 70.9399 339.701 70.8387L75.2585 65.497C70.194 65.3704 66.0157 69.4463 66.0157 74.5221Z" fill="#91B3FA"/>
<path d="M347.779 93.8635L347.83 79.1676C347.842 74.6361 344.234 70.9273 339.701 70.826L75.3344 65.497C70.2573 65.3704 66.155 69.4589 66.155 74.5348V93.8762H347.779V93.8635Z" fill="url(#paint4_linear_27_1322)"/>
<path d="M83.0198 85.7253C84.6911 85.7253 86.0458 84.3709 86.0458 82.7001C86.0458 81.0293 84.6911 79.6748 83.0198 79.6748C81.3486 79.6748 79.9938 81.0293 79.9938 82.7001C79.9938 84.3709 81.3486 85.7253 83.0198 85.7253Z" fill="#BDD0FB"/>
<path d="M93.5033 85.7253C95.1746 85.7253 96.5294 84.3709 96.5294 82.7001C96.5294 81.0293 95.1746 79.6748 93.5033 79.6748C91.8321 79.6748 90.4773 81.0293 90.4773 82.7001C90.4773 84.3709 91.8321 85.7253 93.5033 85.7253Z" fill="#BDD0FB"/>
<path d="M103.67 85.7253C105.342 85.7253 106.696 84.3709 106.696 82.7001C106.696 81.0293 105.342 79.6748 103.67 79.6748C101.999 79.6748 100.644 81.0293 100.644 82.7001C100.644 84.3709 101.999 85.7253 103.67 85.7253Z" fill="#BDD0FB"/>
<path d="M332.079 209.026L83.8175 205.444C80.0444 205.393 77.0184 202.317 77.0184 198.545V173.698C77.0184 170.191 79.8925 167.356 83.3996 167.394L332.256 170.217C335.118 170.255 337.41 172.571 337.41 175.432V203.773C337.397 206.71 335.004 209.064 332.079 209.026Z" fill="#BDD0FB"/>
<path d="M242.704 164.293L83.9947 162.015C80.1204 161.964 77.0057 158.8 77.0057 154.926V105.813C77.0057 103.041 79.2594 100.788 82.0323 100.788H241.653C244.843 100.788 247.426 103.37 247.426 106.56V159.66C247.413 162.243 245.299 164.331 242.704 164.293Z" fill="#BDD0FB"/>
<path opacity="0.42" d="M335.814 164.356H253.174C252.364 164.356 251.718 163.698 251.718 162.901V102.598C251.718 101.598 252.529 100.775 253.542 100.775H336.308C336.916 100.775 337.41 101.269 337.41 101.877V162.774C337.397 163.648 336.688 164.356 335.814 164.356Z" fill="white"/>
<path d="M16.0671 302.268C16.0671 304.28 17.7131 305.926 19.7262 305.926H217.774C219.787 305.926 221.433 304.28 221.433 302.268L223.079 188.485C223.079 186.473 220.711 182.549 216.368 182.84L22.8156 177.827C20.2833 177.764 17.8397 178.738 16.0545 180.523C14.2692 182.308 13.2817 184.751 13.345 187.27L16.0671 302.268Z" fill="url(#paint5_linear_27_1322)"/>
<path d="M19.6882 298.761C19.6882 300.673 21.2456 302.23 23.1574 302.23H213.013C214.925 302.23 216.482 300.673 216.482 298.761L218.039 195.472C217.862 189.257 212.405 187.017 209.1 187.156L23.6005 182.181C21.828 182.131 20.106 182.814 18.8526 184.067C17.5991 185.321 16.9027 187.042 16.9534 188.814L19.6882 298.761Z" fill="#91B3FA"/>
<path d="M0.721691 315.369H232.777C233.17 315.369 233.499 315.052 233.499 314.647V306.078C233.499 305.686 233.182 305.356 232.777 305.356H0.721691C0.329192 305.356 0 305.673 0 306.078V314.647C0 315.052 0.316531 315.369 0.721691 315.369Z" fill="url(#paint6_linear_27_1322)"/>
<path d="M217.862 205.89L218.014 195.536C217.837 189.32 212.38 187.055 209.075 187.181L23.5752 182.194C21.8027 182.143 20.0807 182.827 18.8273 184.08C17.5738 185.333 16.8774 187.118 16.9281 188.89L17.3586 205.89H217.862Z" fill="url(#paint7_linear_27_1322)"/>
<path d="M214.418 249.687C214.418 249.687 214.406 249.687 214.418 249.687C214.127 249.687 213.912 249.447 213.912 249.168L214.038 240.789C214.038 240.51 214.266 240.282 214.545 240.282H214.557C214.836 240.282 215.064 240.523 215.064 240.801L214.937 249.181C214.912 249.472 214.697 249.687 214.418 249.687Z" fill="#BDD0FB"/>
<path d="M214.722 229.168C214.709 229.168 214.709 229.168 214.722 229.168C214.431 229.168 214.216 228.928 214.216 228.649L214.684 196.561C214.671 194.65 214.102 193.131 212.962 192.055C210.848 190.03 207.492 190.131 207.353 190.144L148.061 188.549C147.782 188.536 147.554 188.308 147.567 188.03C147.579 187.751 147.795 187.511 148.086 187.536L207.341 189.131C207.708 189.106 211.278 189.042 213.659 191.321C215.001 192.599 215.684 194.371 215.697 196.574L215.229 228.662C215.216 228.94 214.988 229.168 214.722 229.168Z" fill="#BDD0FB"/>
<path d="M133.855 258.509H30.1591C27.4876 258.509 25.3225 256.344 25.3225 253.674V215.763C25.3225 213.092 27.4876 210.928 30.1591 210.928H133.842C136.514 210.928 138.679 213.092 138.679 215.763V253.674C138.679 256.344 136.514 258.509 133.855 258.509Z" fill="#BDD0FB"/>
<path d="M208.911 258.509H148.061C146.149 258.509 144.604 256.965 144.604 255.053V214.396C144.604 212.485 146.149 210.94 148.061 210.94H208.911C210.822 210.94 212.367 212.485 212.367 214.396V255.053C212.367 256.952 210.822 258.509 208.911 258.509Z" fill="#BDD0FB"/>
<path d="M208.113 297.724H29.5893C27.2343 297.724 25.3351 295.825 25.3351 293.471V269.687C25.3351 267.332 27.2343 265.434 29.5893 265.434H208.113C210.468 265.434 212.367 267.332 212.367 269.687V293.471C212.367 295.813 210.468 297.724 208.113 297.724Z" fill="#BDD0FB"/>
<path d="M29.1063 194.253C29.4084 192.974 28.6161 191.693 27.3367 191.391C26.0574 191.089 24.7753 191.881 24.4732 193.16C24.1711 194.439 24.9634 195.72 26.2428 196.022C27.5221 196.324 28.8042 195.532 29.1063 194.253Z" fill="#BDD0FB"/>
<path d="M34.7425 196.307C36.0571 196.307 37.1228 195.242 37.1228 193.928C37.1228 192.613 36.0571 191.548 34.7425 191.548C33.4279 191.548 32.3622 192.613 32.3622 193.928C32.3622 195.242 33.4279 196.307 34.7425 196.307Z" fill="#BDD0FB"/>
<path d="M43.0645 196.573C44.2791 196.07 44.8558 194.678 44.3527 193.464C43.8496 192.25 42.4572 191.673 41.2426 192.176C40.028 192.679 39.4513 194.071 39.9544 195.286C40.4575 196.5 41.8499 197.076 43.0645 196.573Z" fill="#BDD0FB"/>
<path d="M244.805 199.32C244.387 219.256 243.007 288.014 243.666 312.368C243.729 314.95 245.502 317.026 247.717 317.102C258.631 317.52 298.654 318.583 316.506 317.697C320.228 317.52 323.178 313.988 323.254 309.634C323.622 288.71 324.444 229.863 322.495 202.915C322.267 199.687 320.089 197.117 317.342 196.788C305.453 195.396 265.266 192.003 249.844 193.168C247.046 193.396 244.869 196.054 244.805 199.32Z" fill="url(#paint8_linear_27_1322)"/>
<path d="M249.667 205.434C249.085 221.522 247.224 275.053 247.819 294.837C247.907 297.736 249.857 300.065 252.326 300.242C262.493 300.938 297.21 302.47 312.125 301.078C314.809 300.825 316.924 298.28 317.063 295.141C317.823 278.724 319.988 228.889 319.431 209.32C319.342 206.194 317.278 203.649 314.607 203.371C303.604 202.219 266.722 199.46 254.048 200.27C251.668 200.409 249.768 202.649 249.667 205.434Z" fill="#91B3FA"/>
<path opacity="0.5" d="M271.774 196.663C271.774 197.27 272.179 197.777 272.698 197.815C275.281 197.967 282.536 198.422 285.79 198.637C286.435 198.675 286.929 198.004 286.815 197.27L286.79 197.144C286.701 196.637 286.347 196.258 285.916 196.22C283.726 195.979 277.104 195.334 272.711 195.511C272.192 195.536 271.774 196.055 271.774 196.663Z" fill="white"/>
<path d="M319.519 215.396C319.507 213.231 319.481 211.105 319.431 209.333C319.342 206.206 317.278 203.649 314.607 203.371C303.604 202.219 266.722 199.46 254.048 200.27C251.668 200.422 249.768 202.675 249.667 205.459C249.579 207.953 249.515 209.928 249.376 213.814L319.519 215.396Z" fill="url(#paint9_linear_27_1322)"/>
<path d="M283.954 249.686H255.263C253.567 249.686 252.199 248.269 252.199 246.522V221.345C252.199 219.75 253.478 218.472 255.023 218.51L283.966 219.218C285.562 219.256 286.828 220.598 286.828 222.244V246.724C286.828 248.357 285.536 249.686 283.954 249.686Z" fill="#BDD0FB"/>
<path d="M312.708 249.687H293.26C291.107 249.687 289.373 247.94 289.373 245.801V222.32C289.373 220.649 290.728 219.282 292.412 219.282H312.923C314.607 219.282 315.974 220.649 315.974 222.333V246.421C315.962 248.231 314.505 249.687 312.708 249.687Z" fill="#BDD0FB"/>
<path d="M312.834 274.369H254.63C252.719 274.369 251.161 272.812 251.161 270.9V256.483C251.161 254.926 252.415 253.673 253.972 253.673H312.695C314.505 253.673 315.961 255.141 315.961 256.939V271.229C315.961 272.964 314.569 274.369 312.834 274.369Z" fill="#BDD0FB"/>
<path d="M309.251 297.724L254.099 296.952C252.465 296.926 251.148 295.737 251.148 294.268V280.914C251.148 279.623 252.313 278.585 253.757 278.585H311.783C313.163 278.585 314.278 279.585 314.278 280.813L314.315 293.243C314.315 295.749 312.036 297.762 309.251 297.724Z" fill="#BDD0FB"/>
<path d="M255.415 210.788C256.492 210.788 257.365 209.916 257.365 208.839C257.365 207.762 256.492 206.89 255.415 206.89C254.339 206.89 253.466 207.762 253.466 208.839C253.466 209.916 254.339 210.788 255.415 210.788Z" fill="#BDD0FB"/>
<path d="M261.911 210.979C262.987 210.979 263.86 210.106 263.86 209.029C263.86 207.953 262.987 207.08 261.911 207.08C260.834 207.08 259.961 207.953 259.961 209.029C259.961 210.106 260.834 210.979 261.911 210.979Z" fill="#BDD0FB"/>
<path d="M267.963 211.331C269.04 211.331 269.913 210.459 269.913 209.382C269.913 208.305 269.04 207.433 267.963 207.433C266.886 207.433 266.013 208.305 266.013 209.382C266.013 210.459 266.886 211.331 267.963 211.331Z" fill="#BDD0FB"/>
<path d="M331.37 42.2219C331.041 37.1207 327.952 32.5892 323.33 30.3994L263.43 1.9569C259.594 0.134157 255.137 0.134157 251.3 1.9569L191.4 30.3867C186.779 32.5765 183.689 37.1081 183.36 42.2092C177.739 129.043 233.435 160.688 251.693 168.675C255.314 170.257 259.429 170.257 263.05 168.675C281.295 160.688 336.992 129.056 331.37 42.2219Z" fill="url(#paint10_linear_27_1322)"/>
<path opacity="0.74" d="M239.247 14.1593C238.842 14.1593 238.449 13.9314 238.272 13.539C238.019 12.9947 238.247 12.3492 238.791 12.096L252.946 5.37464C253.491 5.12148 254.137 5.34932 254.39 5.89362C254.643 6.43791 254.415 7.08346 253.871 7.33662L239.703 14.058C239.563 14.134 239.399 14.1593 239.247 14.1593Z" fill="white"/>
<path opacity="0.74" d="M187.944 61.0319C187.361 61.0319 186.88 60.5762 186.867 59.9812C186.677 54.3231 186.779 48.4372 187.159 42.4626C187.399 38.7412 189.653 35.4375 193.033 33.8299L233.334 14.691C233.879 14.4379 234.524 14.6657 234.778 15.21C235.031 15.7543 234.803 16.3999 234.258 16.653L193.958 35.7919C191.286 37.0577 189.501 39.6779 189.311 42.6145C188.931 48.5131 188.83 54.3485 189.02 59.9306C189.045 60.5255 188.577 61.0319 187.969 61.0445C187.969 61.0319 187.956 61.0319 187.944 61.0319Z" fill="white"/>
<path d="M316.886 45.6011C316.822 44.31 316.05 43.1455 314.873 42.5885L258.872 15.9941C257.91 15.5384 256.808 15.5384 255.846 15.9941L199.845 42.5885C198.668 43.1455 197.908 44.2973 197.832 45.6011C196.173 77.9928 203.656 105.018 220.09 125.967C232.612 141.941 247.274 150.498 255.859 154.485C256.808 154.928 257.897 154.928 258.834 154.485C267.418 150.498 282.08 141.928 294.602 125.967C311.062 105.03 318.544 77.9928 316.886 45.6011Z" fill="url(#paint11_linear_27_1322)"/>
<path d="M146.25 331.291C142.654 331.607 136.4 332.114 131.474 332.329C128.512 332.455 126.815 332.164 125.827 331.772C125.827 331.886 125.827 331.987 125.84 332.088C125.865 332.607 126.283 333.025 126.802 333.05C136.108 333.569 143.515 333.228 146.149 333.076C146.693 333.038 147.022 332.456 146.744 331.987C146.592 331.747 146.427 331.519 146.25 331.291Z" fill="url(#paint12_linear_27_1322)"/>
<path d="M131.474 332.316C136.4 332.101 142.642 331.595 146.25 331.278C142.705 326.937 131.474 324.013 131.474 324.013H128.296C126.119 327.152 125.802 330.152 125.828 331.759C126.802 332.164 128.512 332.456 131.474 332.316Z" fill="url(#paint13_linear_27_1322)"/>
<path d="M127.765 318.848L128.056 324.721C128.094 325.354 128.562 325.886 129.195 325.987C129.828 326.075 130.677 326.088 131.576 325.784C132.133 325.594 132.538 325.139 132.639 324.569L133.665 318.848H127.765Z" fill="url(#paint14_linear_27_1322)"/>
<path d="M90.9458 338.063C89.3884 337.785 88.6794 336.734 88.3882 335.607C88.3882 335.62 88.3882 335.633 88.3882 335.633C88.1603 336.81 88.6921 338.038 89.7556 338.62C91.0471 339.329 92.4525 339.443 93.5413 339.38C94.7188 339.316 95.7824 338.696 96.3774 337.683L96.3901 337.671C95.1999 338.443 93.5413 338.531 90.9458 338.063Z" fill="url(#paint15_linear_27_1322)"/>
<path d="M98.302 320.659H95.6811C91.6928 320.558 89.1986 331.418 88.3756 335.621C88.6668 336.735 89.3758 337.785 90.9332 338.076C93.5414 338.545 95.1873 338.456 96.3648 337.709C98.5172 334.051 99.5808 328.684 100.1 325.558C100.682 321.988 98.302 320.659 98.302 320.659Z" fill="url(#paint16_linear_27_1322)"/>
<path d="M96.0229 315.203L94.5669 320.975C94.3896 321.684 94.7315 322.418 95.3772 322.747C96.1875 323.165 97.3397 323.608 98.3906 323.481C98.8844 323.418 99.3022 323.076 99.4541 322.608L101.581 316.532L96.0229 315.203Z" fill="url(#paint17_linear_27_1322)"/>
<path d="M147.136 239.115C147.136 239.115 134.159 320.253 134.361 320.696C134.361 320.696 130.778 322.329 126.866 320.898C126.866 320.898 128.043 277.52 130.791 260.887C130.791 260.887 108.634 299.658 101.594 318.974C101.594 318.974 97.9221 318.531 94.8834 316.544C94.8834 316.544 118.737 246.761 125.106 237.47L147.136 239.115Z" fill="url(#paint18_linear_27_1322)"/>
<path d="M131.31 260.483C131.247 260.483 131.171 260.471 131.107 260.42C130.93 260.306 130.879 260.066 130.981 259.888L135.83 252.142C135.881 252.053 135.982 251.99 136.083 251.965L139.654 251.243C139.856 251.205 140.059 251.332 140.109 251.547C140.147 251.749 140.021 251.952 139.806 252.003L136.4 252.686L131.639 260.294C131.563 260.42 131.436 260.483 131.31 260.483Z" fill="url(#paint19_linear_27_1322)"/>
<path d="M206.72 159.661C206.72 159.661 197.959 161.598 192.628 164.053C191.565 164.547 190.729 165.395 190.248 166.446C188.653 169.939 183.892 178.686 174.637 182.863C175.966 184.635 178.118 188.306 179.043 194.483C184.601 190.357 189.387 183.445 191.691 172.129C191.691 172.129 193.439 173.079 195.629 172.015C196.781 171.458 198.123 170.661 199.123 170.028C200.124 169.408 200.858 168.433 201.149 167.307C201.529 165.813 201.301 164.496 201.301 163.091L205.809 161.699C205.809 161.699 207.163 161.193 206.72 159.661Z" fill="url(#paint20_linear_27_1322)"/>
<path d="M179.043 194.484C178.106 188.307 175.966 184.636 174.637 182.864C168.888 185.459 161.418 186.294 151.91 182.991C151.036 182.687 150.112 182.51 149.187 182.459C144.123 182.168 127.423 181.624 113.609 186.181C110.697 187.143 108.342 189.294 107.139 192.079C103.404 200.649 97.3524 220.18 114.154 230.028C115.445 226.825 116.939 224.256 118.205 222.357C115.496 217.8 114.698 211.572 119.497 203.459C122.991 212.902 124.637 226.686 124.979 232.787C125.093 234.8 124.739 236.8 123.954 238.661L123.865 238.863C123.7 239.255 123.928 239.711 124.359 239.812C133.817 241.939 143.642 241.357 146.579 241.116C147.098 241.078 147.542 240.698 147.655 240.192C152.251 220.825 152.264 207.61 151.137 199.269C155.429 200.218 168.585 202.269 179.043 194.484Z" fill="url(#paint21_linear_27_1322)"/>
<path d="M151.15 199.775C150.96 199.775 150.795 199.635 150.77 199.445C149.694 191.294 147.491 187.737 147.466 187.699C147.352 187.522 147.402 187.281 147.58 187.167C147.757 187.053 147.997 187.104 148.111 187.281C148.2 187.433 150.416 190.99 151.53 199.344C151.555 199.559 151.416 199.749 151.201 199.775C151.188 199.775 151.163 199.775 151.15 199.775Z" fill="url(#paint22_linear_27_1322)"/>
<path d="M127.815 171.169C127.815 171.169 126.853 181.283 126.017 184.27C125.891 184.726 126.081 185.207 126.499 185.434C127.929 186.257 131.36 187.586 136.045 185.283C136.805 184.915 137.261 184.118 137.223 183.283L136.805 173.511L127.815 171.169Z" fill="url(#paint23_linear_27_1322)"/>
<path d="M137.02 158.245C137.02 158.245 140.084 165.27 140.287 168.954C140.489 172.637 141.287 175.03 137.02 175.776C132.753 176.523 129.157 174.397 127.22 170.726C127.22 170.726 124.169 165.068 124.853 162.751C125.536 160.422 137.02 158.245 137.02 158.245Z" fill="url(#paint24_linear_27_1322)"/>
<path d="M128.676 168.08L128.917 167.979C129.221 167.839 129.36 167.472 129.208 167.168C128.613 166.004 127.435 163.346 128.955 162.726C130.905 161.928 138.641 160.346 140.312 157.612C141.92 154.979 140.489 151.574 138.362 150.599C138.223 150.536 138.046 150.587 137.982 150.726L137.805 151.068C137.678 151.295 137.337 151.257 137.273 151.017C137.21 150.776 136.881 150.726 136.754 150.941C136.235 151.764 134.855 153.093 131.158 153.776C125.891 154.751 122.422 156.878 122.333 160.51C122.333 160.738 122.08 160.865 121.89 160.751C121.497 160.51 120.877 160.409 120.054 161.105C118.611 162.32 119.206 165.472 122.371 168.067C122.523 168.194 122.523 168.422 122.358 168.536C121.789 168.915 120.928 169.801 123.143 170.979C125.435 172.206 127.157 172.105 127.815 171.991C127.98 171.966 128.081 171.801 128.043 171.637L127.334 168.447C127.296 168.27 127.435 168.093 127.613 168.093H128.676V168.08Z" fill="url(#paint25_linear_27_1322)"/>
<path d="M128.803 168.75C128.803 168.75 127.638 164.257 125.625 165.523C123.612 166.776 126.663 170.548 128.284 170.725L128.803 168.75Z" fill="url(#paint26_linear_27_1322)"/>
<path d="M194.034 171.092C193.945 171.092 193.869 171.067 193.793 171.003C193.628 170.864 193.603 170.624 193.742 170.459C194.072 170.054 197.009 166.459 198.149 165.814C198.566 165.586 198.807 165.345 198.858 165.117C198.883 165.016 198.87 164.889 198.807 164.763L195.35 165.459L193.388 167.143C193.223 167.282 192.983 167.257 192.843 167.105C192.704 166.94 192.73 166.7 192.881 166.56L194.92 164.814C194.971 164.776 195.034 164.738 195.097 164.725L198.921 163.953C199.073 163.927 199.225 163.991 199.313 164.117C199.592 164.535 199.681 164.915 199.592 165.295C199.491 165.738 199.136 166.13 198.516 166.484C197.667 166.965 195.198 169.864 194.325 170.94C194.249 171.041 194.135 171.092 194.034 171.092Z" fill="url(#paint27_linear_27_1322)"/>
<path d="M128.664 234.889L142.186 235.053L137.451 230.598C136.273 229.497 134.475 229.307 133.12 230.193C132.323 230.712 131.462 231.408 130.715 232.332C130.715 232.332 122.282 229.256 118.193 222.357C116.914 224.243 115.433 226.826 114.141 230.028C117.8 232.18 122.561 233.864 128.664 234.889Z" fill="url(#paint28_linear_27_1322)"/>
<path d="M130.12 236.62C130.145 236.62 130.17 236.62 130.196 236.62L164.52 236.582C165.369 236.582 166.052 235.898 166.052 235.063C166.052 234.228 165.356 233.531 164.52 233.544L130.196 233.582C129.347 233.582 128.664 234.266 128.664 235.101C128.664 235.924 129.309 236.582 130.12 236.62Z" fill="url(#paint29_linear_27_1322)"/>
<path d="M195.376 205.799H166.787C164.672 205.799 162.76 207.001 161.861 208.887L148.643 236.608H184.171C185.525 236.608 186.753 235.786 187.247 234.532L197.49 208.887C198.085 207.406 196.984 205.799 195.376 205.799Z" fill="url(#paint30_linear_27_1322)"/>
<path d="M175.232 220.013C174.611 221.912 175.067 223.76 176.257 224.139C177.447 224.519 178.903 223.279 179.524 221.38C180.144 219.481 179.688 217.633 178.498 217.253C177.321 216.874 175.852 218.102 175.232 220.013Z" fill="url(#paint31_linear_27_1322)"/>
<path d="M261.795 109.815V121.297H251.759V109.815C244.59 108.38 237.421 105.509 233.12 101.204L238.855 91.1573C244.59 95.4629 251.759 99.7685 257.494 99.7685C261.795 99.7685 264.662 98.3333 264.662 95.4629C264.662 86.8517 237.421 92.5925 237.421 73.9349C237.421 65.3237 243.156 59.5828 253.192 58.1476V46.666H263.229V56.7124C268.964 56.7124 274.699 59.5829 279 62.4533L273.265 73.9349C267.53 71.0645 260.361 68.1941 256.06 68.1941C253.192 68.1941 250.325 69.6293 250.325 71.0645C250.325 79.6757 277.566 75.3701 277.566 94.0277C279 102.639 271.831 108.38 261.795 109.815Z" fill="white"/>
<defs>
<linearGradient id="paint0_linear_27_1322" x1="210.897" y1="281.639" x2="232.518" y2="179.564" gradientUnits="userSpaceOnUse">
<stop stop-color="#09005D"/>
<stop offset="1" stop-color="#1A0F91"/>
</linearGradient>
<linearGradient id="paint1_linear_27_1322" x1="188.924" y1="16.3692" x2="217.031" y2="227.438" gradientUnits="userSpaceOnUse">
<stop stop-color="#09005D"/>
<stop offset="1" stop-color="#1A0F91"/>
</linearGradient>
<linearGradient id="paint2_linear_27_1322" x1="219.702" y1="-28.1433" x2="196.785" y2="267.695" gradientUnits="userSpaceOnUse">
<stop stop-color="#53D8FF"/>
<stop offset="1" stop-color="#3840F7"/>
</linearGradient>
<linearGradient id="paint3_linear_27_1322" x1="221.053" y1="349.952" x2="213.27" y2="276.425" gradientUnits="userSpaceOnUse">
<stop stop-color="#09005D"/>
<stop offset="1" stop-color="#1A0F91"/>
</linearGradient>
<linearGradient id="paint4_linear_27_1322" x1="199.56" y1="261.219" x2="210.586" y2="-2.81668" gradientUnits="userSpaceOnUse">
<stop stop-color="#4F52FF"/>
<stop offset="1" stop-color="#4042E2"/>
</linearGradient>
<linearGradient id="paint5_linear_27_1322" x1="118.83" y1="178.364" x2="115.371" y2="337.817" gradientUnits="userSpaceOnUse">
<stop stop-color="#09005D"/>
<stop offset="1" stop-color="#1A0F91"/>
</linearGradient>
<linearGradient id="paint6_linear_27_1322" x1="116.938" y1="303.639" x2="120.128" y2="191.973" gradientUnits="userSpaceOnUse">
<stop stop-color="#09005D"/>
<stop offset="1" stop-color="#1A0F91"/>
</linearGradient>
<linearGradient id="paint7_linear_27_1322" x1="97.472" y1="230.912" x2="170.121" y2="105.041" gradientUnits="userSpaceOnUse">
<stop stop-color="#4F52FF"/>
<stop offset="1" stop-color="#4042E2"/>
</linearGradient>
<linearGradient id="paint8_linear_27_1322" x1="243.488" y1="255.494" x2="323.737" y2="255.494" gradientUnits="userSpaceOnUse">
<stop stop-color="#09005D"/>
<stop offset="1" stop-color="#1A0F91"/>
</linearGradient>
<linearGradient id="paint9_linear_27_1322" x1="277.633" y1="313.396" x2="286.282" y2="185.372" gradientUnits="userSpaceOnUse">
<stop stop-color="#4F52FF"/>
<stop offset="1" stop-color="#4042E2"/>
</linearGradient>
<linearGradient id="paint10_linear_27_1322" x1="398.692" y1="-91.7245" x2="320.846" y2="-1.5305" gradientUnits="userSpaceOnUse">
<stop stop-color="#E1473D"/>
<stop offset="1" stop-color="#E9605A"/>
</linearGradient>
<linearGradient id="paint11_linear_27_1322" x1="292.256" y1="16.591" x2="93.763" y2="314.407" gradientUnits="userSpaceOnUse">
<stop stop-color="#FF928E"/>
<stop offset="1" stop-color="#FE7062"/>
</linearGradient>
<linearGradient id="paint12_linear_27_1322" x1="125.825" y1="332.306" x2="146.838" y2="332.306" gradientUnits="userSpaceOnUse">
<stop stop-color="#4F52FF"/>
<stop offset="1" stop-color="#4042E2"/>
</linearGradient>
<linearGradient id="paint13_linear_27_1322" x1="125.823" y1="328.188" x2="146.245" y2="328.188" gradientUnits="userSpaceOnUse">
<stop stop-color="#09005D"/>
<stop offset="1" stop-color="#1A0F91"/>
</linearGradient>
<linearGradient id="paint14_linear_27_1322" x1="127.765" y1="322.439" x2="133.684" y2="322.439" gradientUnits="userSpaceOnUse">
<stop stop-color="#FEBBBA"/>
<stop offset="1" stop-color="#FF928E"/>
</linearGradient>
<linearGradient id="paint15_linear_27_1322" x1="88.318" y1="337.515" x2="96.3707" y2="337.515" gradientUnits="userSpaceOnUse">
<stop stop-color="#4F52FF"/>
<stop offset="1" stop-color="#4042E2"/>
</linearGradient>
<linearGradient id="paint16_linear_27_1322" x1="88.3766" y1="329.504" x2="100.196" y2="329.504" gradientUnits="userSpaceOnUse">
<stop stop-color="#09005D"/>
<stop offset="1" stop-color="#1A0F91"/>
</linearGradient>
<linearGradient id="paint17_linear_27_1322" x1="94.5203" y1="319.354" x2="101.594" y2="319.354" gradientUnits="userSpaceOnUse">
<stop stop-color="#FEBBBA"/>
<stop offset="1" stop-color="#FF928E"/>
</linearGradient>
<linearGradient id="paint18_linear_27_1322" x1="151.738" y1="243.037" x2="91.3658" y2="341.958" gradientUnits="userSpaceOnUse">
<stop stop-color="#4F52FF"/>
<stop offset="1" stop-color="#4042E2"/>
</linearGradient>
<linearGradient id="paint19_linear_27_1322" x1="226.481" y1="220.02" x2="163.322" y2="244.684" gradientUnits="userSpaceOnUse">
<stop stop-color="#4F52FF"/>
<stop offset="1" stop-color="#4042E2"/>
</linearGradient>
<linearGradient id="paint20_linear_27_1322" x1="191.819" y1="170.387" x2="163.812" y2="206.834" gradientUnits="userSpaceOnUse">
<stop stop-color="#FEBBBA"/>
<stop offset="1" stop-color="#FF928E"/>
</linearGradient>
<linearGradient id="paint21_linear_27_1322" x1="202.641" y1="144.91" x2="137.118" y2="206.557" gradientUnits="userSpaceOnUse">
<stop stop-color="#FF928E"/>
<stop offset="1" stop-color="#FE7062"/>
</linearGradient>
<linearGradient id="paint22_linear_27_1322" x1="147.412" y1="193.441" x2="151.535" y2="193.441" gradientUnits="userSpaceOnUse">
<stop stop-color="#E1473D"/>
<stop offset="1" stop-color="#E9605A"/>
</linearGradient>
<linearGradient id="paint23_linear_27_1322" x1="129.37" y1="193.94" x2="132.434" y2="177.852" gradientUnits="userSpaceOnUse">
<stop stop-color="#FEBBBA"/>
<stop offset="1" stop-color="#FF928E"/>
</linearGradient>
<linearGradient id="paint24_linear_27_1322" x1="137.664" y1="164.425" x2="120.179" y2="177.807" gradientUnits="userSpaceOnUse">
<stop stop-color="#FEBBBA"/>
<stop offset="1" stop-color="#FF928E"/>
</linearGradient>
<linearGradient id="paint25_linear_27_1322" x1="125.353" y1="153.832" x2="141.635" y2="174.801" gradientUnits="userSpaceOnUse">
<stop stop-color="#09005D"/>
<stop offset="1" stop-color="#1A0F91"/>
</linearGradient>
<linearGradient id="paint26_linear_27_1322" x1="135.495" y1="161.59" x2="118.01" y2="174.972" gradientUnits="userSpaceOnUse">
<stop stop-color="#FEBBBA"/>
<stop offset="1" stop-color="#FF928E"/>
</linearGradient>
<linearGradient id="paint27_linear_27_1322" x1="192.75" y1="167.519" x2="199.626" y2="167.519" gradientUnits="userSpaceOnUse">
<stop stop-color="#FF928E"/>
<stop offset="1" stop-color="#FE7062"/>
</linearGradient>
<linearGradient id="paint28_linear_27_1322" x1="160.832" y1="191.939" x2="164.076" y2="188.046" gradientUnits="userSpaceOnUse">
<stop stop-color="#FEBBBA"/>
<stop offset="1" stop-color="#FF928E"/>
</linearGradient>
<linearGradient id="paint29_linear_27_1322" x1="124.296" y1="227.524" x2="151.539" y2="236.462" gradientUnits="userSpaceOnUse">
<stop stop-color="#09005D"/>
<stop offset="1" stop-color="#1A0F91"/>
</linearGradient>
<linearGradient id="paint30_linear_27_1322" x1="161.795" y1="209.884" x2="181.296" y2="230.5" gradientUnits="userSpaceOnUse">
<stop stop-color="#09005D"/>
<stop offset="1" stop-color="#1A0F91"/>
</linearGradient>
<linearGradient id="paint31_linear_27_1322" x1="173.623" y1="215.035" x2="182.437" y2="228.311" gradientUnits="userSpaceOnUse">
<stop stop-color="#4F52FF"/>
<stop offset="1" stop-color="#4042E2"/>
</linearGradient>
</defs>
</svg>
