<svg width="170" height="170" viewBox="0 0 170 170" fill="none" xmlns="http://www.w3.org/2000/svg">
<path d="M84.5669 0C84.5669 0 49.1033 25.3311 1.33607 16.6462C1.33607 16.6462 -16.7576 136.788 80.2244 169.357C80.2244 169.357 83.1194 170.804 89.6331 169.357C188.786 144.749 167.798 16.6462 167.798 16.6462C120.031 25.3311 84.5669 0 84.5669 0Z" fill="#407CCA"/>
<path d="M84.5669 13.7539C84.5669 13.7539 54.8933 34.7426 15.0873 27.5051C15.0873 27.5051 -0.111426 127.382 80.9482 155.608C80.9482 155.608 83.8432 157.056 88.9094 155.608C172.14 134.62 154.77 27.5051 154.77 27.5051C114.241 34.7426 84.5669 13.7539 84.5669 13.7539Z" fill="white"/>
<path d="M84.5669 20.2637C84.5669 20.2637 57.7883 39.0811 21.601 32.5674C21.601 32.5674 7.8498 123.759 80.9482 148.367C80.9482 148.367 83.1194 149.814 88.1857 148.367C163.455 129.549 147.533 32.5674 147.533 32.5674C112.069 39.8048 84.5669 20.2637 84.5669 20.2637Z" fill="#3B5CAD"/>
<path d="M85.2906 144.025C84.5669 144.025 83.1194 144.025 82.3957 143.302C12.916 127.379 26.6672 37.6347 26.6672 37.6347C59.9595 43.4247 84.5669 25.3311 84.5669 25.3311L85.2906 144.025Z" fill="#407CCA"/>
<path d="M104.832 119.415H66.4732C62.1308 119.415 58.512 115.797 58.512 111.454V81.0569C58.512 76.7144 62.1308 73.0957 66.4732 73.0957H104.832C109.174 73.0957 112.793 76.7144 112.793 81.0569V111.454C112.793 115.797 109.174 119.415 104.832 119.415Z" fill="white"/>
<path d="M101.937 76.7158C101.937 76.7158 107.003 45.5947 86.7381 45.5947C69.3682 45.5947 70.8157 65.1359 70.8157 75.9921" stroke="white" stroke-width="0.628" stroke-miterlimit="10"/>
<path d="M93.9756 92.6409C93.9756 88.2984 90.3568 84.6797 86.0144 84.6797C81.6719 84.6797 78.0531 88.2984 78.0531 92.6409C78.0531 95.5359 79.5006 98.4309 81.6719 99.1546V108.563H89.6331V99.8784C91.8043 98.4309 93.9756 95.5359 93.9756 92.6409Z" fill="#3B5CAD"/>
</svg>
